<?xml version="1.0" standalone="no"?>
<!DOCTYPE svg PUBLIC "-//W3C//DTD SVG 1.1//EN" "http://www.w3.org/Graphics/SVG/1.1/DTD/svg11.dtd" >
<svg xmlns="http://www.w3.org/2000/svg">
<metadata>
Created by FontPrep 20130207 at Fri May 30 19:09:18 2014
 By Davo
Copyright (c) 2005 Parachute :, www.parachute.gr.  All rights reserved.
</metadata>
<defs>
<font id="a93a2ed40a842f8d228713d3c7dea0f0" horiz-adv-x='1024' >
  <font-face 
    font-family="PFHandbookPro-Bold"
    font-weight="700"
    font-stretch="normal"
    units-per-em="2048"
    panose-1="2 0 8 6 5 0 0 2 0 4"
    ascent="1536"
    descent="-512"
    x-height="905"
    cap-height="1264"
    bbox="-388.357 -463 3604 1870"
    underline-thickness="163"
    underline-position="-93"
    unicode-range="U+0020-FB05"
  />
<missing-glyph horiz-adv-x="925" 
d="M768 324v784l-217 -393zM158 330l217 387l-217 395v-782zM690 1276h-454l227 -412zM692 158l-229 413l-223 -413h452zM0 1434h926v-1434h-926v1434z" />
    <glyph glyph-name="fj" unicode="fj" horiz-adv-x="989" 
d="M854 907q31 0 31 -30v-983q0 -192 -97.5 -232.5t-162.5 -40.5t-138 14q-43 12 -36 48l20 118q8 37 55 27q20 -4 58 -4q82 2 82 96v772q0 23 -7.5 29t-33.5 6h-217q-29 0 -29 -27v-671q0 -29 -33 -29h-158q-31 0 -30 29v669q0 29 -27 29h-74q-29 0 -28 33v117q0 31 32 30
h72q27 0 27 23v117q0 125 84 201.5t250 76.5t272 -63q25 -16 25 -24t-3 -13l-57 -131q-15 -28 -51 -10q-74 36 -156 36q-145 0 -145 -125v-67q0 -20 24 -21h451z" />
    <glyph glyph-name="ffj" unicode="ffj" horiz-adv-x="1505" 
d="M649 907q23 0 23 23v112q0 19 -8 23q-74 27 -141 27q-66 0 -105 -32t-39 -91v-41q0 -20 24 -21h246zM1370 907q31 0 31 -30v-983q0 -192 -97.5 -232.5t-163.5 -40.5t-108 9t-55.5 18.5t-9.5 34.5l20 118q8 35 55 27q20 -4 60 -3t59 23.5t19 71.5v762q0 14 -4.5 29.5
t-26.5 15.5h-225q-20 0 -24.5 -8t-4.5 -19v-671q0 -29 -33 -29h-160q-31 0 -30 29v669q0 29 -25 29h-239q-29 0 -29 -27v-671q0 -29 -33 -29h-158q-31 0 -30 29v669q0 29 -27 29h-74q-29 0 -28 33v117q0 31 32 30h72q27 0 27 23v84q0 125 88 205.5t229 80.5t244 -43
q4 -2 12 -2t67.5 45.5t231.5 45.5q88 0 158 -22t94 -36t31.5 -18t7.5 -10t-4 -15l-53 -129q-8 -20 -24 -20t-63 22t-157 21q-59 0 -93 -35t-34 -88v-88q0 -20 23 -21h452z" />
    <glyph glyph-name="ff" unicode="ff" horiz-adv-x="1142" 
d="M649 909q25 0 25 23v115q0 17 -10 22q-74 29 -147 29t-104.5 -36t-31.5 -89v-43q0 -20 25 -21h243zM158 698q0 31 -25 31h-74q-31 0 -30 31v119q0 31 32 30h74q25 0 25 23v96q0 119 88.5 199t249.5 80q108 0 223 -45q4 -2 13 -2t35 22t91.5 45t171.5 23t195 -50
q22 -10 22 -22t-4 -25l-43 -110q-10 -27 -28 -27q-8 0 -47 12t-102 13q-62 0 -95 -35t-33 -84v-92q0 -20 23 -21h157q33 0 33 -32v-117q0 -31 -33 -31h-151q-20 0 -24.5 -9t-4.5 -20v-669q0 -31 -33 -31h-157q-33 0 -33 31v667q0 31 -25 31h-239q-29 0 -29 -29v-669
q0 -31 -33 -31h-158q-33 0 -32 31v667z" />
    <glyph glyph-name="fi" unicode="fi" horiz-adv-x="989" 
d="M854 907q31 0 31 -30v-844q0 -33 -33 -33h-154q-33 0 -32 31v661q0 23 -7.5 29t-33.5 6h-217q-29 0 -29 -27v-671q0 -29 -33 -29h-158q-31 0 -30 29v669q0 29 -27 29h-74q-29 0 -28 33v117q0 31 32 30h72q27 0 27 23v117q0 125 84 201.5t250 76.5t272 -63q25 -16 25 -24
t-3 -13l-57 -131q-15 -28 -51 -10q-74 36 -156 36q-145 0 -145 -125v-67q0 -20 24 -21h451z" />
    <glyph glyph-name="fl" unicode="fl" horiz-adv-x="1062" 
d="M586 764q0 -37 -39 -37h-139q-29 0 -29 -27v-671q0 -29 -33 -29h-158q-31 0 -30 29v669q0 29 -27 29h-74q-29 0 -28 33v117q0 31 32 30h72q27 0 27 23v141q8 115 92 183.5t244 68.5q88 1 133 -13q46 -14 62 -19t26 -5h10q10 0 42 12t69 13q36 0 41.5 -10.5t5.5 -34.5
v-979q0 -59 16.5 -80t65.5 -21h22q29 0 29 -34v-129q0 -23 -19.5 -31t-30.5 -8h-55q-141 0 -195 77.5t-54 223.5v764q0 27 -24.5 46t-131.5 19q-57 0 -93 -33.5t-36 -87.5v-65q0 -20 24 -21h144q39 0 39 -39v-104z" />
    <glyph glyph-name="ffi" unicode="ffi" horiz-adv-x="1505" 
d="M649 907q23 0 23 23v114q0 23 -21 29q-56 23 -125 23q-147 0 -147 -125v-43q0 -20 24 -21h246zM408 727q-29 0 -29 -27v-671q0 -29 -33 -29h-158q-31 0 -30 29v669q0 29 -27 29h-74q-29 0 -28 33v117q0 31 32 30h72q27 0 27 23v94q0 120 89.5 199.5t224.5 79.5
q136 0 247 -46q2 -2 10 -2t39 21q90 70 249 70t261 -64q25 -12 25 -26t-7 -27l-45 -109q-12 -22 -27 -22t-65 20t-124 21q-74 0 -108 -35t-34 -88v-88q0 -20 23 -21h446q23 0 30 -9t7 -32v-837q0 -29 -35 -29h-154q-33 0 -32 29v665q0 20 -6.5 26.5t-26.5 6.5h-223
q-20 0 -24.5 -8t-4.5 -19v-671q0 -29 -33 -29h-160q-31 0 -30 29v669q0 29 -25 29h-239z" />
    <glyph glyph-name="ffl" unicode="ffl" horiz-adv-x="1548" 
d="M408 727q-29 0 -29 -27v-671q0 -29 -33 -29h-158q-31 0 -30 29v669q0 29 -27 29h-74q-29 0 -28 33v117q0 31 32 30h72q27 0 27 23v119q10 106 94 180t220 74t247 -46q2 -2 11 -2t35 22t92.5 45.5t157.5 23.5t148.5 -18.5t67.5 -18.5h10q10 0 41 12q30 12 68 12t43.5 -10
t5.5 -35v-999q0 -59 16.5 -80t65.5 -21h22q29 0 29 -34v-129q0 -23 -19.5 -31t-30.5 -8h-54q-141 0 -196.5 77.5t-55.5 223.5v784q0 27 -11.5 36t-52.5 21t-95 11q-54 0 -90 -35t-36 -88v-88q0 -20 25 -21h137q39 0 39 -39v-104q0 -23 -10.5 -30t-28.5 -7h-133
q-29 0 -29 -27v-671q0 -29 -33 -29h-158q-33 0 -32 29v669q0 12 -4 20.5t-21 8.5h-237zM672 1044q0 52 -172 52q-54 0 -87.5 -33t-33.5 -92v-43q0 -20 24 -21h246q23 0 23 23v114z" />
    <glyph glyph-name="ft" unicode="ft" horiz-adv-x="1169" 
d="M647 907q27 0 27 29v145q0 31 33 37l149 35q18 4 29.5 -4t11.5 -25v-190q0 -29 29 -29h161q33 0 33 -28v-119q0 -31 -33 -31h-165q-25 0 -25 -22v-416q0 -101 94 -101q40 0 70 8t39 7q27 0 33 -31l24 -113q5 -23 -20 -41q-57 -28 -163 -28t-159 22.5t-96 75t-43 188.5
v429q0 23 -25 22h-243q-29 0 -29 -27v-671q0 -29 -33 -29h-158q-31 0 -30 29v669q0 29 -27 29h-74q-29 0 -28 33v117q0 31 32 30h72q27 0 27 23v133q4 105 79 178.5t181 73.5q106 1 149 -11t54.5 -25t7.5 -32l-23 -121q-6 -27 -33 -26h-9q-9 0 -30 7t-65 7
q-45 0 -68.5 -27.5t-23.5 -72.5v-86q0 -20 24 -21h244z" />
    <glyph glyph-name=".notdef" horiz-adv-x="925" 
d="M768 324v784l-217 -393zM158 330l217 387l-217 395v-782zM690 1276h-454l227 -412zM692 158l-229 413l-223 -413h452zM0 1434h926v-1434h-926v1434z" />
    <glyph glyph-name=".null" horiz-adv-x="0" 
 />
    <glyph glyph-name="nonmarkingreturn" horiz-adv-x="681" 
 />
    <glyph glyph-name="space" unicode=" " horiz-adv-x="481" 
 />
    <glyph glyph-name="exclam" unicode="!" horiz-adv-x="569" 
d="M440 116q0 -54 -39 -93t-96 -39t-97 38.5t-40 92t40 92.5t96 39t96 -38t40 -92zM360 354h-106q-14 0 -18.5 9.5t-4.5 11.5l-43 858q0 31 29 31h174q29 0 29 -29l-39 -858q0 -23 -21 -23z" />
    <glyph glyph-name="quotedbl" unicode="&#x22;" horiz-adv-x="653" 
d="M250 1264q35 0 31 -27v-375h2q0 -28 -35 -28h-105q-34 0 -34 26v375q0 29 32 29h109zM516 1264q33 0 33 -27v-375q0 -28 -33 -28h-106q-35 0 -35 26v375q0 29 35 29h106z" />
    <glyph glyph-name="numbersign" unicode="#" horiz-adv-x="1017" 
d="M469 739q-25 0 -29 -22l-37 -180q-8 -27 21 -27h123q23 0 24 22l39 181q9 26 -18 26h-123zM168 82q-41 0 -33 35q0 26 23 108l24 103q4 14 0 19t-20 5h-101q-31 0 -26 29l22 102q4 27 33 27h111q19 0 28 22l41 183q8 24 -22 24h-115q-35 0 -27 29l23 104q6 27 33 27h135
q16 0 20 16l48 213q2 20 28 21h105q42 0 30 -35l-41 -190q-6 -25 21 -25h127q18 0 22 19l52 210q2 20 28 21h103q25 0 31 -11.5t1 -23.5l-43 -190q-5 -25 21 -25h102q25 0 28 -13.5t-1 -29.5l-21 -90q-7 -29 -30 -29h-121q-20 0 -25 -16l-39 -182q-8 -29 21 -29h119
q31 0 26 -31l-20 -98q-6 -29 -37 -29h-129q-16 0 -20.5 -3t-8.5 -15l-49 -230q-6 -23 -31 -22h-102q-41 0 -31 37l43 211q8 24 -20 24h-127q-17 0 -25 -20l-51 -230q-6 -23 -29 -22h-104z" />
    <glyph glyph-name="dollar" unicode="$" horiz-adv-x="1017" 
d="M897 385q0 -150 -83 -233t-224 -109q-16 -4 -17 -20v-121q0 -29 -28 -29h-84q-29 0 -29 27v120q0 16 -18 17q-166 18 -275 110q-35 29 -10 60l68 84q16 23 33.5 19t49.5 -32t88 -46.5t130 -18.5t133 39t59 117q0 104 -108.5 142t-153.5 53q-131 44 -218 119t-87 208
q0 132 82 222.5t207 115.5q18 2 18 22v109q0 27 29 26h86q27 0 26 -24v-109q0 -16 25 -22q121 -16 213 -78q23 -16 37 -31.5t-2 -42.5l-53 -80q-33 -51 -84 -11q-91 71 -201 71q-66 0 -121 -41.5t-55 -122.5q0 -104 225 -167q145 -40 243.5 -116.5t98.5 -226.5z" />
    <glyph glyph-name="percent" unicode="%" horiz-adv-x="1556" 
d="M1288 559q0 41 -26.5 63.5t-67.5 22.5t-67.5 -23.5t-26.5 -62.5v-342q0 -39 25.5 -61.5t66.5 -22.5t68.5 21.5t27.5 62.5v342zM1456 217q0 -111 -73.5 -167t-188.5 -56t-189.5 56t-74.5 167v342q0 109 74.5 167t188.5 58t188.5 -57t74.5 -168v-342zM457 1049
q0 41 -26.5 62.5t-66.5 21.5t-66 -23t-26 -61v-342q0 -37 25 -59.5t65.5 -22.5t67.5 22.5t27 59.5v342zM627 707q0 -111 -73 -167.5t-189.5 -56.5t-190.5 56.5t-74 167.5v342q0 109 75 167t189 58t188.5 -57.5t74.5 -167.5v-342zM514 -61h-84q-37 0 -24 36l581 1328
q10 23 37 22h74q44 0 28 -39l-581 -1329q-8 -18 -31 -18z" />
    <glyph glyph-name="ampersand" unicode="&#x26;" horiz-adv-x="1277" 
d="M573 184q209 0 209 207v164q-2 4 -6 13.5t-20 9.5h-201q-29 0 -29 26v131q0 10 9.5 18.5t21.5 8.5h434q124 0 246 76q17 8 27 8t20 -17l53 -94q6 -12 6 -24t-18 -27q-116 -91 -285 -102q-18 -4 -27 -11.5t-9 -29.5v-150q0 -174 -107.5 -288.5t-323.5 -114.5h-45
q-220 0 -321 106t-101 287v448q0 158 114 258.5t290 100.5h338q35 0 35 -33v-133q0 -31 -33 -31h-336q-80 0 -133 -45t-53 -115v-452q0 -87 40.5 -141t155.5 -54h49z" />
    <glyph glyph-name="quotesingle" unicode="'" horiz-adv-x="419" 
d="M266 834h-106q-35 0 -35 26v375q0 29 33 29h110q12 0 21.5 -7.5t9.5 -19.5l-2 -375q0 -28 -31 -28z" />
    <glyph glyph-name="parenleft" unicode="(" horiz-adv-x="718" 
d="M427 163.5q65 -204.5 167 -358.5q33 -51 0 -75l-64 -39q-47 -29 -81 18q-215 282 -264.5 499.5t-49.5 343.5q0 226 93 443t227 404q27 39 65 18l82 -43q39 -16 14 -53q-117 -197 -185.5 -388t-68.5 -378t65 -391.5z" />
    <glyph glyph-name="parenright" unicode=")" horiz-adv-x="700" 
d="M481 106.5q-88 -217.5 -225 -397.5q-35 -47 -82 -18l-63 39q-35 25 7 87q95 140 159.5 346.5t64.5 387.5q0 342 -254 770q-25 37 14 53l82 43q36 20 66 -18q138 -195 228.5 -407t90.5 -440t-88 -445.5z" />
    <glyph glyph-name="asterisk" unicode="*" horiz-adv-x="792" 
d="M352 1341h86q47 0 41 -41l-22 -184q-2 -18 14 -12l170 74q41 16 51 -23l29 -84q15 -39 -25 -49l-182 -37q-20 -4 -4 -20l123 -144q21 -24 -4 -49l-74 -51q-18 -12 -31.5 -13t-27.5 23l-82 146q-13 20 -21 12q-7 7 -14 -8l-90 -152q-21 -34 -53 -8l-72 49q-36 27 -6 59
l123 136q14 14 -2 18l-185 41q-37 10 -26 45l28 86q14 42 51 25l172 -76q16 -8 13 10l-21 191q-5 36 41 36z" />
    <glyph glyph-name="plus" unicode="+" horiz-adv-x="1017" 
d="M938 494q0 -43 -41 -43h-281q-16 0 -20 -5.5t-4 -17.5v-270q0 -39 -43 -39h-90q-43 0 -43 39v272q0 20 -29 21h-266q-41 0 -41 41v75q0 41 41 41h270q25 0 25 23v272q0 39 41 39h92q43 0 43 -39v-266q0 -16 4 -22.5t20 -6.5h281q41 0 41 -41v-73z" />
    <glyph glyph-name="comma" unicode="," horiz-adv-x="468" 
d="M143 -240q-33 0 -38 22.5t-5 45.5l25 354q5 64 63 64h134q45 0 55 -20.5t0 -55.5l-109 -360q-17 -50 -63 -50h-62z" />
    <glyph glyph-name="hyphen" unicode="-" horiz-adv-x="663" 
d="M561 422q0 -31 -29 -31h-409q-33 0 -33 29v117q0 29 31 28h409q31 0 31 -26v-117z" />
    <glyph glyph-name="period" unicode="." horiz-adv-x="468" 
d="M371 118q0 -54 -40 -94t-96 -40t-96.5 39.5t-40.5 93t40 92.5t96 39t96.5 -38t40.5 -92z" />
    <glyph glyph-name="slash" unicode="/" horiz-adv-x="655" 
d="M117 -135h-80q-44 0 -27 45l469 1440q8 20 20.5 26t41.5 6h69q43 0 29 -41l-473 -1443q-10 -33 -49 -33z" />
    <glyph glyph-name="zero" unicode="0" horiz-adv-x="1017" 
d="M674 926q0 72 -46 116.5t-118 44.5t-120 -45t-48 -116v-580q0 -74 47 -118t119 -44t119 42t47 120v580zM899 346q0 -172 -108.5 -265t-281.5 -93t-281.5 93t-108.5 263v582q0 165 109 260.5t280 95.5q172 0 281.5 -92.5t109.5 -263.5v-580z" />
    <glyph glyph-name="one" unicode="1" horiz-adv-x="1017" 
d="M662 33q0 -33 -33 -33h-160q-33 0 -33 31v932q0 14 -8 20t-25 -4l-131 -74q-55 -29 -55 21v125q0 44 27 61l213 133q27 18 61 19h105q39 0 39 -37v-1194z" />
    <glyph glyph-name="two" unicode="2" horiz-adv-x="1017" 
d="M883 31q0 -16 -9.5 -23.5t-21.5 -7.5h-711q-33 0 -32 37v92q0 27 4 45.5t26 46.5l402 510q37 47 71.5 100t34.5 109t-44.5 101.5t-112.5 45.5t-108 -26.5t-62 -54.5t-38 -35.5t-34 4.5l-88 65q-42 33 -17 66q121 176 345 176q180 0 283 -84t103 -248q0 -115 -61 -196.5
t-86 -114.5l-326 -414q-23 -29 15 -28h436q31 0 31 -29v-137z" />
    <glyph glyph-name="three" unicode="3" horiz-adv-x="1017" 
d="M846 362q0 -174 -104.5 -274t-280.5 -100q-267 0 -373 196q-14 33 12 49l125 70q16 10 25.5 4t19.5 -18q69 -105 176 -105q74 0 122 40t48 124v62q0 100 -47 138t-135 38h-104q-35 0 -35 32v127q0 31 33 31h129q76 0 120 45t41 105v16q-2 63 -48 104t-108 41
q-120 0 -181 -90q-26 -42 -60 -24l-98 57q-40 24 -21 68q57 98 154.5 141t195.5 43q185 0 288.5 -91t103.5 -249q0 -69 -39.5 -139.5t-106.5 -100.5q-12 -4 -12 -12t10 -14q80 -31 115 -99.5t35 -130.5v-84z" />
    <glyph glyph-name="four" unicode="4" horiz-adv-x="1017" 
d="M106 268q-36 0 -36 37v84q0 58 18 90l381 760q14 25 47 25h154q25 0 28.5 -15.5t-2.5 -25.5l-368 -742q-4 -6 -4 -14t16 -8h205q24 0 24 35v274q0 25 25 25h172q29 0 29 -27v-270q0 -23 5 -30t21 -7h103q24 0 24 -25v-139q0 -27 -24 -27h-101q-28 0 -28 -30v-213
q0 -25 -25 -25h-174q-27 0 -27 25v215q0 29 -30 28h-433z" />
    <glyph glyph-name="five" unicode="5" horiz-adv-x="1017" 
d="M885 350q0 -164 -112 -263t-284 -99q-127 0 -213 41t-151 159q-20 31 10 48l127 67q18 10 27 2.5t31 -37.5q64 -83 150 -84q87 0 138 42t51 114v149q0 66 -48 111t-120 45t-124 -37q-36 -20 -72 -6l-86 41q-41 23 -41 57v531q0 33 33 33h614q33 0 33 -31v-135
q0 -29 -31 -29h-397q-29 0 -29 -25v-202q-1 -33 27 -21q53 23 119 23q65 0 132.5 -26.5t141.5 -99t74 -229.5v-139z" />
    <glyph glyph-name="six" unicode="6" horiz-adv-x="1017" 
d="M383.5 585q-49.5 -46 -49.5 -110v-135q0 -72 51 -115t120 -43t120 44t51 114l2 135q0 74 -52.5 115t-122.5 41t-119.5 -46zM901 340q0 -166 -111 -259t-283 -93t-284 94t-112 258v586q0 163 109 259.5t271 96.5t248 -57q49 -31 102.5 -98.5t10.5 -92.5l-127 -65
q-20 -12 -28.5 -2.5t-30.5 39.5q-60 82 -164 81q-72 0 -120 -45t-48 -116v-129q0 -16 9 -22.5t26 3.5q63 49 177 49q56 0 124.5 -24.5t149.5 -95.5t81 -232v-135z" />
    <glyph glyph-name="seven" unicode="7" horiz-adv-x="1017" 
d="M866 1264q56 0 56 -43v-68q0 -22 -19 -76l-489 -1050q-11 -27 -37 -27h-180q-16 0 -25.5 11.5t-1.5 27.5l459 989q17 39 -25 39h-239q-25 0 -33 -6t-8 -23v-75q0 -35 -31 -35h-129q-35 0 -35 33v270q0 33 33 33h704z" />
    <glyph glyph-name="eight" unicode="8" horiz-adv-x="1017" 
d="M317 373q0 -90 52.5 -141.5t131.5 -51.5t136 55.5t57 144.5t-55 142t-130 53t-133.5 -56t-58.5 -146zM682 926q0 70 -46 120t-124 50t-129 -49t-51 -119t49 -120t127 -50t126 49t48 119zM788.5 1187q110.5 -99 110.5 -261q0 -68 -34 -134.5t-87 -105.5q-20 -14 -2 -27
q59 -39 98 -110.5t39 -164.5q0 -183 -115.5 -289.5t-293.5 -106.5q-277 0 -341.5 142t-64.5 238t44 175.5t110 115.5q16 10 0 21q-66 39 -98.5 110.5t-32.5 142.5t30.5 138.5t112.5 141t248 73.5t276.5 -99z" />
    <glyph glyph-name="nine" unicode="9" horiz-adv-x="1017" 
d="M488 1087q-69 0 -121 -46t-52 -115v-127q0 -74 51.5 -115t121.5 -41t119.5 44t49.5 112l2 125q0 72 -51 117.5t-120 45.5zM885 360q0 -173 -110 -272.5t-299 -99.5q-188 0 -260.5 76.5t-90.5 134.5q-8 27 16 37l127 65q20 10 30 1.5t32 -38.5q61 -82 164 -82q72 0 120 46
t48 132v119q0 38 -40 12q-70 -45 -151 -45q-158 0 -266.5 95.5t-108.5 257.5v112q0 166 117 268.5t293 102.5t277.5 -95t101.5 -261v-566z" />
    <glyph glyph-name="colon" unicode=":" horiz-adv-x="468" 
d="M371 118q0 -54 -40 -94t-96 -40t-96.5 39t-40.5 93t40 92t95 38v2q57 0 97.5 -38t40.5 -92zM371 675q0 -52 -40 -93t-96 -41t-96.5 40t-40.5 93t40 92t95.5 39t96.5 -39t41 -91z" />
    <glyph glyph-name="semicolon" unicode=";" horiz-adv-x="468" 
d="M190 -240h-61q-31 0 -37 23.5t-6 46.5l20 350q4 29 17.5 48.5t48.5 19.5h133q45 0 54.5 -21.5t-1.5 -56.5l-104 -358q-10 -33 -25.5 -42.5t-38.5 -9.5zM371 673q0 -54 -40.5 -93t-96.5 -39t-96 37.5t-40 91.5t39 93.5t95 39.5t97.5 -38t41.5 -92z" />
    <glyph glyph-name="less" unicode="&#x3c;" horiz-adv-x="1017" 
d="M936 23q0 -17 -12 -27t-29 0l-772 412q-45 23 -45 61v88q0 41 41 61q71 39 113 63t76 41q34 16 71 36t99 53t160 85t257 136q17 10 29 1t12 -25v-113q0 -15 -3 -29t-26 -24l-581 -307q-14 -9 -14 -19t14 -16l581 -303q23 -11 26 -25t3 -29v-120z" />
    <glyph glyph-name="equal" unicode="=" horiz-adv-x="1017" 
d="M946 272q0 -37 -39 -36h-796q-41 0 -41 36v90q0 37 41 37h794q16 0 29.5 -9t13.5 -25v-93h-2zM948 629q0 -39 -41 -39h-796q-41 0 -41 37v92q0 37 41 37h794q18 0 30.5 -10.5t12.5 -26.5v-90z" />
    <glyph glyph-name="greater" unicode="&#x3e;" horiz-adv-x="1017" 
d="M938 469q0 -38 -45 -61l-772 -412q-16 -10 -29 0q-12 10 -12 27v120q0 15 3 29t26 25l581 301q14 8 15 18q0 10 -15 16l-581 310q-23 10 -26 24t-3 29v113q0 16 12 25t29 -1l776 -414q41 -20 41 -61v-88z" />
    <glyph glyph-name="question" unicode="?" horiz-adv-x="1034" 
d="M559 115q0 -53 -39 -92t-96 -39t-98 38.5t-41 92t41 92.5t96 39t95 -37t40 -94h2zM922 958q0 -112 -61 -197.5t-139 -133.5q-79 -49 -130 -96.5t-51 -120.5v-39q0 -20 -25 -21h-164q-23 0 -32 8.5t-9 32.5v53q0 80 48.5 158t128.5 130t136 98t60 110t-39 107t-118 43
t-110.5 -33t-68.5 -80q-16 -23 -47 -4l-108 67q-31 18 -11 56q112 188 338 188q284 0 343 -129t59 -197z" />
    <glyph glyph-name="at" unicode="@" horiz-adv-x="1497" 
d="M740 590q-48 0 -76.5 -30t-28.5 -70.5t28.5 -70.5t73.5 -30t73 29.5t28 67.5t-25 71t-73 33zM1014 498q0 -115 104 -115q109 0 138.5 101.5t29.5 201.5t-45 185t-154 175.5t-294 90.5q-232 0 -389.5 -154t-157.5 -385t153.5 -388t399.5 -157q162 0 323 66q20 6 34.5 8
t25.5 -27l18 -51q12 -47 -22 -57q-179 -66 -353 -66q-337 0 -529 182.5t-192 476.5t141.5 434t267.5 191.5t268 51.5q280 0 463 -164t183 -400t-92.5 -341t-222.5 -105t-190 70q-6 6 -10 6t-24 -18t-66 -38t-93 -20q-113 0 -183.5 64.5t-70.5 169t66.5 168t181.5 63.5
q50 0 102 -31q4 -2 9 -2q14 0 14 16v17q0 86 -115 86q-59 0 -145 -37q-27 0 -33 16l-25 72q-8 20 13 31q100 47 224 47t185.5 -70.5t61.5 -175.5v-188z" />
    <glyph glyph-name="A" unicode="A" horiz-adv-x="987" 
d="M385 451h213q20 0 12 20l-65 287l-49 235q-2 8 -7.5 9.5t-7.5 -9.5l-110 -524q-2 -10 0 -14t14 -4zM924 0h-166q-33 0 -41 27l-47 204q-7 29 -27 29h-303q-16 0 -20.5 -8t-8.5 -22t-10 -41t-18 -83t-19 -81t-39 -25h-157q-29 0 -34 12.5t-1 28.5l299 1194q10 29 43 29
h233q14 0 24.5 -3.5t14.5 -23.5l307 -1194q4 -10 1 -26.5t-31 -16.5z" />
    <glyph glyph-name="B" unicode="B" horiz-adv-x="1056" 
d="M567 768q70 0 107 44t37 109t-39 102.5t-109 37.5h-184q-25 0 -25 -27v-233q0 -33 27 -33h186zM748 362q0 206 -175 207h-188q-31 0 -31 -30v-306q0 -16 6.5 -21t24.5 -5h207q74 0 115 50.5t41 104.5zM944 930q0 -66 -40 -136.5t-99 -109.5q-8 -8 2 -12q92 -41 135 -121
t43 -209.5t-104 -235.5t-285 -106h-436q-37 0 -37 35v1194q0 35 37 35h413q172 0 271.5 -85t99.5 -249z" />
    <glyph glyph-name="C" unicode="C" horiz-adv-x="966" 
d="M121 352v568q0 165 113 264.5t284 99.5q106 0 203.5 -38t175.5 -148q24 -29 -10 -54l-111 -83q-16 -10 -31.5 -4t-23.5 20q-70 102 -195 102q-86 0 -130 -50t-44 -118v-559q0 -66 45 -111.5t117 -45.5q124 0 205 96l17 17q16 16 36 3l123 -75q34 -20 16 -50
q-131 -198 -373 -198q-192 0 -304.5 98.5t-112.5 265.5z" />
    <glyph glyph-name="D" unicode="D" horiz-adv-x="1081" 
d="M735 885q0 176 -180 176h-158q-23 0 -29 -9.5t-6 -25.5v-786q0 -33 33 -33h168q172 0 172 176v502zM168 0q-39 0 -39 35v1194q0 35 39 35h414q195 0 290 -100.5t95 -276.5v-504q0 -180 -95.5 -281.5t-283.5 -101.5h-420z" />
    <glyph glyph-name="E" unicode="E" horiz-adv-x="958" 
d="M844 1264q35 0 35 -33v-133q0 -37 -33 -37h-457q-20 0 -26.5 -6t-6.5 -21v-246q0 -35 33 -34h377q33 0 33 -37v-131q0 -35 -33 -35h-379q-18 0 -24.5 -7t-6.5 -24v-282q0 -18 8.5 -24.5t28.5 -6.5h463q33 0 33 -35v-135q0 -37 -33 -37h-694q-37 0 -37 35v1194q0 35 37 35
h682z" />
    <glyph glyph-name="F" unicode="F" horiz-adv-x="899" 
d="M358 37q0 -37 -36 -37h-158q-37 0 -37 35v1194q0 35 37 35h676q33 0 32 -33v-133q0 -37 -32 -37h-453q-29 0 -29 -27v-256q0 -16 5.5 -22t21.5 -6h375q33 0 33 -37v-133q0 -37 -33 -37h-373q-29 0 -29 -35v-471z" />
    <glyph glyph-name="G" unicode="G" horiz-adv-x="1048" 
d="M752 1240.5q102 -43.5 161 -148.5q21 -32 -10 -52l-117 -84q-26 -13 -55 21q-74 100 -196 100q-84 0 -133.5 -49t-49.5 -121v-555q0 -72 51.5 -114.5t129.5 -42.5t128 43t50 122v127q0 23 -21 23h-110q-37 0 -37 33v133q0 33 37 33h321q41 0 41 -33v-328
q0 -168 -115.5 -264t-294 -96t-294 96t-115.5 262v578q0 162 85 235.5t158.5 99t178.5 25.5t207 -43.5z" />
    <glyph glyph-name="H" unicode="H" horiz-adv-x="1126" 
d="M326 1264q36 0 36 -29v-449q0 -23 5.5 -29.5t23.5 -6.5h342q18 0 25.5 7t7.5 29v447q0 31 35 31h157q39 0 39 -29v-1202q0 -33 -36 -33h-158q-37 0 -37 31v481q0 35 -35 35h-334q-23 0 -29 -9.5t-6 -25.5v-479q0 -33 -36 -33h-158q-39 0 -39 31v1202q0 31 39 31h158z" />
    <glyph glyph-name="I" unicode="I" horiz-adv-x="526" 
d="M180 0q-37 0 -37 31v1202q0 31 37 31h160q37 0 37 -31v-1200q0 -33 -37 -33h-160z" />
    <glyph glyph-name="J" unicode="J" horiz-adv-x="632" 
d="M248 213v1024q0 27 31 27h167q31 0 31 -27v-1042q0 -201 -91.5 -329.5t-301.5 -176.5q-44 -11 -51 26l-41 127q-4 16 -1 27t45 29q109 46 160.5 115.5t51.5 199.5z" />
    <glyph glyph-name="K" unicode="K" horiz-adv-x="1093" 
d="M965 0h-164q-31 0 -33 31l-25 370q-11 189 -184 189q-92 0 -143 -55.5t-51 -139.5l-3 -362q0 -33 -28 -33h-174q-29 0 -29 31v1200q0 33 35 33h166q31 0 30 -31v-426q0 -25 25 -6l354 440q20 23 56 23h182q18 0 23.5 -11.5t-5.5 -25.5l-358 -447q-16 -23 8 -22h23
q24 0 41 -4q129 -20 192.5 -110.5t63.5 -227.5l26 -383q0 -33 -28 -33z" />
    <glyph glyph-name="L" unicode="L" horiz-adv-x="923" 
d="M858 207q33 0 33 -35v-135q0 -37 -31 -37h-688q-37 0 -37 35v1198q0 31 35 31h160q37 0 37 -29v-997q0 -16 3 -23.5t23 -7.5h465z" />
    <glyph glyph-name="M" unicode="M" horiz-adv-x="1343" 
d="M1233 35q0 -35 -37 -35h-149q-35 0 -35 31v653q0 10 -11 0l-83 -223l-150 -387q-18 -37 -49 -37h-94q-20 0 -32.5 4t-23.5 27l-145 383l-82 229q-8 8 -8 0v-649q0 -31 -37 -31h-150q-37 0 -36 35v1188q0 41 43 41h127q25 0 38 -4.5t22 -25.5t26.5 -65.5t40 -102.5
t48 -123.5t47 -124t39 -102.5t23.5 -61l101 -268q8 -20 18 0q7 23 36.5 100.5t43.5 116.5t20 53l222 572q16 35 63 35h121q43 0 43 -41v-1188z" />
    <glyph glyph-name="N" unicode="N" horiz-adv-x="1124" 
d="M995 41q0 -41 -43 -41h-104q-25 0 -38 4t-26 27l-417 727q-4 10 -10.5 9t-6.5 -13v-725q0 -29 -39 -29h-147q-39 0 -39 29v1185q0 49 47 50h104q29 0 42.5 -8.5t23.5 -28.5l426 -748q8 -8 8 2v750q0 33 35 33h147q37 0 37 -33v-1190z" />
    <glyph glyph-name="O" unicode="O" horiz-adv-x="1083" 
d="M727 907q0 72 -46 121t-138 49t-141.5 -49t-49.5 -121v-545q0 -72 48.5 -119.5t137.5 -47.5t139 48t50 119v545zM961 360q0 -170 -117 -271t-300.5 -101t-303 99.5t-119.5 272.5v549q0 171 117.5 273t298.5 102q182 0 303 -101t121 -274v-549z" />
    <glyph glyph-name="P" unicode="P" horiz-adv-x="995" 
d="M711 884q0 71 -42 124t-122 53h-160q-29 0 -29 -31v-280q0 -31 29 -31h160q74 0 119 47t45 118zM385 516q-25 0 -25 -24v-459q0 -33 -36 -33h-158q-39 0 -39 33v1200q0 31 39 31h381q180 0 287.5 -106t107.5 -269t-111 -268t-282 -105h-164z" />
    <glyph glyph-name="Q" unicode="Q" horiz-adv-x="1083" 
d="M727 907q0 72 -46 121t-138 49t-141.5 -49t-49.5 -121v-545q0 -72 48.5 -119.5t137.5 -47.5t139 48t50 119v545zM961 360q0 -145 -85 -239t-223 -121q-18 -2 -16 -35q4 -67 72 -67q36 0 118 24q35 14 43 -14l31 -94q9 -30 -28 -52q-72 -43 -196 -43t-185.5 67t-61.5 191
q0 23 -20 27q-127 31 -208 123t-81 233v549q0 171 117.5 273t298.5 102q182 0 303 -101t121 -274v-549z" />
    <glyph glyph-name="R" unicode="R" horiz-adv-x="1050" 
d="M588 690q23 0 41 12q96 76 96 202q0 58 -42 107.5t-132 49.5h-158q-18 0 -24.5 -7t-6.5 -24v-311q0 -14 5.5 -21.5t23.5 -7.5h197zM569 1264q186 0 289 -96.5t103 -270.5q0 -109 -54.5 -200t-126.5 -156q-12 -13 -8 -23t22.5 -49t78 -169t120.5 -255q10 -20 1 -32.5
t-29 -12.5h-156q-41 0 -54.5 12.5t-23.5 32.5l-188 424q-4 18 -27 18h-135q-18 0 -19 -22v-432q0 -33 -38 -33h-156q-37 0 -37 31v1198q0 35 33 35h405z" />
    <glyph glyph-name="S" unicode="S" horiz-adv-x="997" 
d="M805.5 90.5q-122.5 -100.5 -316.5 -100.5q-113 0 -222 36.5t-187 116.5q-18 16 -20.5 30.5t16.5 37.5l80 90q18 20 31.5 16t33.5 -20q53 -47 128 -75.5t134 -28.5q111 0 161 45t50 101t-20.5 87t-67.5 62.5t-142 63.5q-180 60 -273 140.5t-93 234.5t114 253.5t304 99.5
t336 -94q23 -16 21.5 -29.5t-15.5 -36.5l-53 -98q-21 -33 -62 -14q-135 71 -221 71t-140 -34.5t-54 -111.5t53.5 -111.5t140.5 -66.5t155 -59.5t159.5 -96.5t91.5 -239q0 -169 -122.5 -269.5z" />
    <glyph glyph-name="T" unicode="T" horiz-adv-x="903" 
d="M866 1098q0 -37 -30 -37h-242q-33 0 -33 -27l-2 -1001q0 -33 -37 -33h-157q-37 0 -37 31l2 1001q0 14 -5.5 21.5t-25.5 7.5h-229q-35 0 -35 37v131q0 35 35 35h766q31 0 30 -33v-133z" />
    <glyph glyph-name="U" unicode="U" horiz-adv-x="1083" 
d="M315 1264q37 0 37 -29v-879q0 -68 51.5 -114.5t137.5 -46.5t137 47t51 116v875q0 31 37 31h158q39 0 39 -29v-879q0 -168 -119.5 -268t-301.5 -100t-301.5 99.5t-119.5 268.5v877q0 31 37 31h157z" />
    <glyph glyph-name="V" unicode="V" horiz-adv-x="980" 
d="M582 0h-176q-37 0 -48 31l-335 1190q-11 43 38 43h164q35 0 41 -23l228 -915q2 -6 6 -6t7 12t13 59t22.5 99.5t24 99.5t15.5 65l143 586q7 23 39 23h160q35 0 38 -14.5t-1 -28.5l-330 -1190q-8 -31 -49 -31z" />
    <glyph glyph-name="W" unicode="W" horiz-adv-x="1474" 
d="M1405 1264q39 0 39 -29q0 -8 -2 -14l-268 -1194q-8 -27 -48 -27h-163q-41 0 -48 25l-143 659q-10 41 -21 103.5t-16 62.5q-6 0 -10 -24t-14.5 -71.5t-32.5 -151.5t-56 -260.5t-69 -315.5q-7 -27 -47 -27h-164q-18 0 -28.5 3t-16.5 20l-274 1202v12q0 27 32 27h170
q33 0 37 -31l125 -627l39 -227q2 -6 6 -5t6 7l43 219l140 637q5 27 41 27h149q30 0 37 -29q37 -160 76 -318.5t69 -318.5l45 -217q2 -10 7.5 -10.5t11.5 31.5t15.5 88.5t17.5 110.5q18 115 60.5 333.5t55.5 300.5q6 29 39 29h160z" />
    <glyph glyph-name="X" unicode="X" horiz-adv-x="983" 
d="M495.5 442q-6.5 0 -10.5 -10l-196 -399q-12 -25 -25.5 -29t-36.5 -4h-164q-37 0 -36 27q0 12 6 24l309 574q12 23 12 39t-14 38l-277 519q-4 12 -4 18q0 27 37 27h174q39 0 60 -35q12 -29 20 -43l137 -293q8 -8 12.5 -8t10.5 10q41 84 80 166t80 168q23 35 57 35h166
q37 0 37 -25q0 -9 -8 -27l-277 -520q-8 -20 -8 -32.5t10 -32.5q133 -248 228 -422q94 -174 94 -182q0 -25 -39 -25h-166q-23 0 -36.5 5t-43.5 67t-78.5 161t-99.5 199q-4 10 -10.5 10z" />
    <glyph glyph-name="Y" unicode="Y" horiz-adv-x="952" 
d="M221 1264q23 0 36 -5.5t24 -27.5l184 -498q12 -12 18 -2q136 357 185 496q10 20 21 28.5t42 8.5h152q53 0 35 -41l-316 -729q-12 -24 -12 -54v-403q0 -37 -37 -37h-158q-37 0 -37 35v409q0 25 -10 45l-317 732q-16 43 28 43h162z" />
    <glyph glyph-name="Z" unicode="Z" horiz-adv-x="903" 
d="M121 0q-60 0 -60 53v60q1 37 19 69t54 99t81 152t95 177t112 208.5t110 207.5q18 35 -10 35h-389q-33 0 -33 37v135q0 31 37 31h637q53 0 53 -45v-72q0 -38 -26 -90l-443 -826q-18 -25 11 -24h444q14 0 24.5 -8.5t10.5 -26.5v-139q0 -33 -35 -33h-692z" />
    <glyph glyph-name="bracketleft" unicode="[" horiz-adv-x="720" 
d="M442 1229q-34 0 -34 -37v-1272q0 -37 34 -37h109q33 0 33 -33v-122q0 -33 -33 -33h-334q-33 0 -33 31v1658q0 33 33 33h334q33 0 33 -33v-122q0 -33 -33 -33h-109z" />
    <glyph glyph-name="backslash" unicode="\" horiz-adv-x="655" 
d="M612 -135h-80q-39 0 -49 33l-473 1443q-15 41 29 41h70q29 0 41 -6t20 -26l469 -1440q17 -45 -27 -45z" />
    <glyph glyph-name="bracketright" unicode="]" horiz-adv-x="710" 
d="M469 -305h-334q-33 0 -33 31v124q0 31 33 31h109q35 0 35 37v1272q0 39 -35 39h-109q-33 0 -33 31v124q0 33 33 33h334q33 0 33 -33v-1658q-4 -31 -33 -31z" />
    <glyph glyph-name="asciicircum" unicode="^" horiz-adv-x="1161" 
d="M999 816.5q0 -19.5 -22 -36.5l-47 -35q-33 -23 -78 27l-260 272q-22 22 -32.5 10t-14.5 -16l-246 -280q-34 -44 -72 -19l-53 37q-39 23 -6 66l311 411q10 14 21.5 22.5t40.5 8.5h80q40 0 63 -33l303 -399q12 -16 12 -35.5z" />
    <glyph glyph-name="underscore" unicode="_" horiz-adv-x="1024" 
d="M1012 -338h-1002q-33 0 -33 27v106q0 29 33 29h1000q35 0 34 -27v-108q-4 -27 -32 -27z" />
    <glyph glyph-name="grave" unicode="`" horiz-adv-x="931" 
d="M635 1077q18 -29 -10 -43l-50 -28q-39 -20 -65 8l-231 252q-26 34 8 53l123 67q26 16 49 -16z" />
    <glyph glyph-name="a" unicode="a" horiz-adv-x="946" 
d="M440 459q-76 0 -115.5 -43t-39.5 -106.5t40.5 -107.5t118.5 -44t116 46t37 106t-41 104.5t-116 44.5zM487 926q351 0 351 -340v-557q0 -29 -27 -29h-160q-23 0 -22 23v16q0 31 -53 -10t-160 -41q-158 0 -248 84t-90 230t92 234.5t258 88.5q84 0 158 -43q28 -17 28 12v24
q0 123 -157 123q-109 1 -223 -47q-28 -12 -37 21l-37 104q-6 14 0 25.5t46 29.5q111 52 281 52z" />
    <glyph glyph-name="b" unicode="b" horiz-adv-x="958" 
d="M334 340q0 -66 40 -111t117.5 -45t118.5 42t41 114v233q0 66 -36.5 112t-114.5 46t-122 -46t-44 -112v-233zM111 1272q0 33 32 33h158q33 0 33 -31v-393q0 -18 9 -18.5t36 15.5q74 46 165 46q169 0 249.5 -96.5t80.5 -254.5v-233q0 -149 -87 -249.5t-232 -100.5t-199 61
q-20 25 -26 0q-2 0 -2 -10t-3 -16t-7.5 -15.5t-20.5 -9.5h-154q-33 0 -32 31v1241z" />
    <glyph glyph-name="c" unicode="c" horiz-adv-x="864" 
d="M473 -12q-176 0 -282.5 95t-106.5 255v231q0 163 109.5 259t279.5 96q227 0 342 -191q14 -35 -14 -53l-115 -66q-27 -16 -39.5 -4t-30.5 44t-60 54.5t-98 22.5t-102.5 -45t-46.5 -111v-239q0 -66 46.5 -109t102.5 -43q118 0 165 86q10 18 23 30.5t40 -3.5l115 -64
q29 -18 14 -55q-119 -190 -342 -190z" />
    <glyph glyph-name="d" unicode="d" horiz-adv-x="958" 
d="M466 731q-77 0 -116 -46t-39 -112v-231q0 -68 39 -113t114 -45t120 45t45 111v231q0 66 -43 113t-120 47zM854 31q0 -31 -33 -31h-153q-33 0 -33 29v16q0 25 -57 -16t-153 -41q-175 0 -256 95t-81 257v231q0 154 91 253.5t253 99.5q101 0 160 -45q37 -25 37 6v387
q0 33 33 33h157q35 0 35 -31v-1243z" />
    <glyph glyph-name="e" unicode="e" horiz-adv-x="937" 
d="M470 731q-64 0 -104 -42t-47 -101q0 -29 35 -29h248q34 0 29 39q-8 61 -52.5 97t-108.5 36zM356 410q-41 0 -41 -35v-31q0 -66 43.5 -114t109.5 -48t108 31t62 55t30 28.5t28 -7.5l101 -64q42 -28 26 -55q-53 -96 -146 -139t-191 -43q-187 0 -291.5 95.5t-104.5 252.5
v231q0 160 107 259.5t276 99.5q170 0 276.5 -98.5t106.5 -260.5v-96q0 -29 -16.5 -45t-40.5 -16h-443z" />
    <glyph glyph-name="f" unicode="f" horiz-adv-x="634" 
d="M158 698q0 31 -25 31h-74q-31 0 -30 31v119q0 31 32 30h74q25 0 25 23v115q0 114 74.5 192t189.5 78t172 -23q16 -4 29.5 -13t9.5 -36l-25 -117q-8 -40 -55 -26t-88 14t-63.5 -27.5t-22.5 -72.5v-86q0 -20 25 -21h157q33 0 33 -30v-119q0 -31 -31 -31h-155q-29 0 -29 -29
v-669q0 -31 -33 -31h-158q-33 0 -32 31v667z" />
    <glyph glyph-name="g" unicode="g" horiz-adv-x="962" 
d="M604 574q0 60 -42 105.5t-114 45.5t-116.5 -46t-44.5 -105.5t40.5 -103.5t116.5 -44t118 44t42 104zM946 762q0 -16 -5 -22.5t-39 -2.5t-64 -2q-31 -6 -36 -12t-1 -16q59 -129 -4 -259.5t-170 -169t-187 -38.5h-49q-41 -2 -70.5 -33t-37.5 -55t-3 -27.5t59 7.5t145 11
q195 0 316.5 -67.5t121.5 -212.5q0 -78 -55.5 -153.5t-141.5 -117.5q-52 -21 -68 2l-63 97q-20 27 26 55q78 49 78 117q0 49 -60 73.5t-116 24.5q-141 -1 -261 -19t-159 4.5t-39 157.5q0 47 31 102.5t82 88.5q23 14 4 31q-112 94 -112 247t112 252t252 99q141 0 246 -70
q20 -14 37 0q94 68 196 68q35 0 35 -35v-125z" />
    <glyph glyph-name="h" unicode="h" horiz-adv-x="983" 
d="M143 1305h160q33 0 33 -33v-387q0 -33 36 -9q74 48 168 48q168 0 252.5 -95t84.5 -258v-538q0 -33 -33 -33h-158q-35 0 -35 31v540q0 68 -38.5 113t-114.5 45t-118 -47t-42 -115v-534q0 -33 -33 -33h-160q-33 0 -32 31l1 127l-1 1114q0 33 30 33z" />
    <glyph glyph-name="i" unicode="i" horiz-adv-x="458" 
d="M117 877q0 33 30 32h160q33 0 33 -32v-844q0 -33 -31 -33h-159q-33 0 -33 31v846zM362 1156q0 -52 -39 -91t-93 -39t-93 38t-39 91t38 90t92 37t94 -37t40 -89z" />
    <glyph glyph-name="j" unicode="j" horiz-adv-x="475" 
d="M354 -106q0 -187 -97 -230t-195 -43t-122 18.5t-20 45.5l21 118q7 34 49 27q42 -6 73 -5q68 2 68 95v957q0 33 33 32h160q31 0 30 -32v-983zM377 1155q0 -53 -40 -91t-94 -38t-93 37t-39 91t38.5 91t92.5 37t94.5 -37t40.5 -90z" />
    <glyph glyph-name="k" unicode="k" horiz-adv-x="954" 
d="M336 217v-188q0 -29 -31 -29h-166q-27 0 -26 29v1243q0 33 30 33h160q31 0 31 -31v-647q0 -16 9 -18.5t17 5.5l240 273q18 18 53 18h199q18 0 22.5 -12t-6.5 -23q-148 -170 -254 -280q-6 -12 -6 -15q0 -10 13 -10q136 -7 191 -93t67 -247l8 -188v-6q0 -31 -33 -31h-156
q-20 0 -26 8t-8 25l-11 190q-4 83 -39 129.5t-118 46.5q-160 0 -160 -182z" />
    <glyph glyph-name="l" unicode="l" horiz-adv-x="514" 
d="M453 188q28 0 28 -36v-127q0 -23 -15 -32t-26 -9h-65q-139 0 -194.5 67.5t-55.5 212.5v1012q0 29 27 29h167q29 0 29 -27v-987q0 -59 16.5 -81t65.5 -22h23z" />
    <glyph glyph-name="m" unicode="m" horiz-adv-x="1480" 
d="M1374 31q0 -31 -33 -31h-159q-31 0 -31 29v544q0 63 -36 109.5t-104 46.5t-113.5 -48t-45.5 -108v-542q0 -31 -33 -31h-157q-33 0 -33 29v544q0 63 -41 109.5t-108 46.5t-106.5 -46t-39.5 -110v-542q0 -31 -35 -31h-160q-31 0 -30 29v544q0 156 101.5 253.5t262.5 97.5
q72 0 142.5 -32t111.5 -79q10 -10 15 -10t14 8q41 47 114.5 80t153.5 33q160 0 255 -97t95 -254v-542z" />
    <glyph glyph-name="n" unicode="n" horiz-adv-x="983" 
d="M874 33q0 -33 -30 -33h-160q-33 0 -33 31v538q0 70 -36.5 114t-115.5 44t-121 -44t-42 -112v-538q0 -33 -35 -33h-158q-33 0 -32 31v846q0 33 32 32h160q29 0 29 -30v-15q0 -16 2 -16q4 -23 22 0q35 33 95.5 53.5t113.5 20.5q162 0 235.5 -97.5t73.5 -251.5v-540z" />
    <glyph glyph-name="o" unicode="o" horiz-adv-x="958" 
d="M637 571q0 72 -41 115t-118 43t-118 -44t-41 -114v-231q0 -70 40 -114t116 -44t119 43t43 115v231zM860 338q0 -172 -103.5 -261t-278.5 -89t-278.5 92t-103.5 252v246q0 152 106.5 250t277.5 98t275.5 -90.5t104.5 -257.5v-240z" />
    <glyph glyph-name="p" unicode="p" horiz-adv-x="962" 
d="M649 565q0 68 -39.5 113t-113.5 45t-119 -45t-43 -111v-231q0 -66 42 -113t120 -47t115.5 46t37.5 114v229zM872 319q0 -142 -90.5 -238.5t-249.5 -96.5q-105 0 -163 45q-35 23 -35 -6v-359q0 -33 -33 -33h-158q-35 0 -34 31v1215q0 31 32 30h154q31 0 31 -28v-17
q0 -24 34 0q79 58 174 58q171 0 254.5 -96t83.5 -257v-248z" />
    <glyph glyph-name="q" unicode="q" horiz-adv-x="962" 
d="M326 336q0 -76 43 -118t114.5 -42t114.5 46t43 112v233q2 66 -43 111t-112.5 45t-113.5 -45t-46 -111v-231zM866 -338q0 -31 -32 -31h-158q-33 0 -33 31v358q0 33 -30 13q-74 -49 -175 -49q-166 0 -251 91t-85 259v231q0 242 128 298.5t203 56.5q125 0 196 -66
q12 -10 16 -4t4 12v17q0 29 31 28h154q33 0 32 -30v-1215z" />
    <glyph glyph-name="r" unicode="r" horiz-adv-x="651" 
d="M340 489v-456q0 -33 -35 -33h-158q-33 0 -32 31v846q0 33 32 32h140q33 0 32 -30v-64q0 -12 7.5 -15t15.5 7q33 45 90 82t118 37t87 -11q23 -6 26 -16t-1 -27l-35 -143q-4 -23 -13.5 -28t-37.5 1t-56 7q-180 0 -180 -220z" />
    <glyph glyph-name="s" unicode="s" horiz-adv-x="845" 
d="M681.5 62.5q-98.5 -72.5 -267.5 -72.5q-168 0 -243 66t-91 98t-16.5 44.5t14.5 20.5l115 64q29 16 47 -9q82 -102 198 -102q41 0 81 22.5t40 60.5t-24.5 58.5t-62.5 33.5t-77 24t-109 35t-133 81.5t-63 142.5q0 149 96 221.5t234 72.5q78 0 164 -26t151 -85
q18 -18 -2 -49l-65 -96q-20 -20 -88 23.5t-153 43.5q-122 0 -122 -80q0 -53 96 -86q59 -18 126 -39.5t160 -77.5t93 -187q0 -130 -98.5 -202.5z" />
    <glyph glyph-name="t" unicode="t" horiz-adv-x="667" 
d="M387 936q0 -27 29 -27h162q33 0 32 -32v-117q0 -33 -32 -33h-166q-25 0 -25 -20v-414q0 -49 19.5 -76t63.5 -27t88 10t56.5 1.5t16.5 -31.5l20 -109q4 -29 -8 -38t-42 -19t-163 -16q-147 0 -209.5 69.5t-62.5 196.5v451q0 23 -25 22h-75q-35 0 -35 31v119q0 33 32 32h72
q29 0 29 29v154q0 33 33 41l149 32q41 7 41 -28v-201z" />
    <glyph glyph-name="u" unicode="u" horiz-adv-x="970" 
d="M862 33q0 -33 -33 -33h-161q-29 0 -29 29v22q0 8 -8 8.5t-27 -17.5t-66.5 -37t-113.5 -19t-129.5 25.5t-131 96t-67.5 228.5v541q0 33 31 32h160q35 0 35 -30v-541q0 -66 43 -112t114.5 -46t114.5 45t43 113v539q0 33 33 32h157q35 0 35 -30v-846z" />
    <glyph glyph-name="v" unicode="v" horiz-adv-x="884" 
d="M514 0h-143q-23 0 -33 6t-19 29l-290 829q-8 16 -1 30.5t29 14.5h150q48 0 57 -39l103 -348l67 -248q4 -10 9.5 -10t9.5 8l63 242l102 348q16 47 56 47h153q23 0 29 -15t2 -28l-295 -839q-8 -27 -49 -27z" />
    <glyph glyph-name="w" unicode="w" horiz-adv-x="1345" 
d="M899 0q-23 0 -34 5t-19 30l-103 325l-67 250q-10 15 -17 0l-71 -264l-96 -313q-8 -25 -21.5 -29t-30.5 -4h-131q-23 0 -34 6t-19 29l-231 831q-8 16 -1 29.5t29 13.5h156q45 0 53 -39l66 -286l55 -258q2 -8 8 -8.5t10 8.5l70 254l86 284q14 45 49 45h127q16 0 27.5 -6
t21.5 -35l99 -321l61 -221q2 -6 9 -7.5t10 7.5l114 540q14 43 58 43h151q42 0 31 -43l-236 -829q-10 -37 -49 -37h-131z" />
    <glyph glyph-name="x" unicode="x" horiz-adv-x="835" 
d="M53 0q-35 0 -35 25q0 12 7 18l251 393q23 38 0 72l-227 350q-12 20 -5 33.5t30 13.5h151q25 0 35 -4t25 -27l125 -219q10 -14 15 -14t15 16l123 217q14 23 25.5 27t34.5 4h151q35 0 35 -22q0 -17 -8 -25l-228 -348q-16 -25 -15 -38t13 -36l256 -401q8 -12 -1 -23.5
t-31 -11.5h-146q-23 0 -37 8t-30 35l-142 242q-10 16 -18 16t-19 -18l-143 -250q-14 -23 -28.5 -28t-34.5 -5h-144z" />
    <glyph glyph-name="y" unicode="y" horiz-adv-x="907" 
d="M432 -373h-133q-50 0 -31 54l88 284q4 16 3 25.5t-19 9.5h-23q-40 0 -51 43l-237 825q-12 45 30 45h164q35 0 49 -39l154 -630q4 -16 12 -16.5t15 16.5l71 245l119 381q11 43 53 43h148q20 0 30.5 -14t2.5 -37l-385 -1192q-16 -43 -60 -43z" />
    <glyph glyph-name="z" unicode="z" horiz-adv-x="874" 
d="M774 195q35 0 35 -33v-129q0 -33 -33 -33h-655q-55 0 -55 47v59q0 40 20 72l375 510q8 10 6 18.5t-16 8.5h-332q-35 0 -35 30v132q0 33 33 32h604q59 0 59 -47v-80q0 -38 -22 -69l-357 -490q-18 -29 17 -28h356z" />
    <glyph glyph-name="braceleft" unicode="{" horiz-adv-x="747" 
d="M84 512v92q0 23 12 33.5t54 28.5t81 64t39 122v244q0 164 89.5 242.5t256.5 74.5l25 -2q16 0 22.5 -9t6.5 -18v-127q0 -33 -27 -32h-29q-76 -2 -99 -35t-23 -105v-288q0 -72 -39 -131.5t-101 -96.5q-25 -16 0 -30q62 -30 102 -103.5t40 -140.5v-283q0 -72 22.5 -104.5
t97.5 -34.5h29q27 0 27 -33v-127q0 -8 -6.5 -17t-22.5 -9h-25q-344 -12 -344 315l-2 270q0 141 -135 193q-51 20 -51 47z" />
    <glyph glyph-name="bar" unicode="|" horiz-adv-x="481" 
d="M287 -236h-94q-33 0 -33 31v1559q0 31 33 30h94q35 0 35 -28l-3 -1563q0 -29 -32 -29z" />
    <glyph glyph-name="braceright" unicode="}" horiz-adv-x="747" 
d="M109 -313q-16 0 -22.5 9t-6.5 17v127q0 33 26 33h29q76 2 98.5 35t22.5 104v283q0 109 53 168t88 76q25 14 0 30q-61 37 -100 96.5t-39 131.5v288q0 72 -23.5 105t-99.5 35h-29q-27 0 -26 32v127q0 8 6 17.5t23 9.5h24q168 6 257 -72.5t89 -242.5v-244q0 -133 139 -195
q23 -10 35.5 -20t12.5 -33v-92q0 -26 -56 -48t-93.5 -69t-37.5 -123l-2 -268q0 -329 -344 -317h-24z" />
    <glyph glyph-name="asciitilde" unicode="~" horiz-adv-x="1017" 
d="M726 459q-70 0 -126.5 19.5t-108 43t-97.5 43t-84 19.5t-67 -17t-53 -47t-37.5 -33.5t-29.5 11.5l-76 67q-28 28 -11 53t23 35q97 121 248 121q77 0 166.5 -41t137 -60.5t91.5 -19.5t73 24.5t57 53.5t59 0l65 -55q42 -33 19 -68q-47 -68 -113 -108.5t-136 -40.5z" />
    <glyph glyph-name="exclamdown" unicode="&#xa1;" horiz-adv-x="569" 
d="M170 775q0 54 39 93t96 39t97 -39t40 -92t-40 -92t-96 -39t-96 38t-40 92zM250 537h106q14 0 18.5 -9.5t4.5 -11.5l43 -858q0 -31 -29 -31h-174q-29 0 -29 29l39 858q0 23 21 23z" />
    <glyph glyph-name="cent" unicode="&#xa2;" horiz-adv-x="1017" 
d="M516 184q118 0 166 86q10 18 23.5 30.5t39.5 -3.5l115 -64q37 -19 14 -55q-75 -143 -235 -178q-16 -4 -25.5 -11t-9.5 -28v-84q0 -27 -29 -27h-86q-29 0 -28 27v88q0 25 -33 33q-133 27 -209 116t-76 224v231q0 135 78 226.5t207 117.5q18 4 25.5 9.5t7.5 21.5v94
q0 27 28 27h86q29 0 29 -27v-92q0 -16 6 -21t23 -10q169 -35 244 -178q14 -36 -15 -53l-117 -70q-27 -16 -39 -3.5t-22 30.5q-51 90 -154 90q-70 0 -115.5 -45t-45.5 -111v-239q0 -66 45.5 -109t101.5 -43z" />
    <glyph glyph-name="sterling" unicode="&#xa3;" horiz-adv-x="1017" 
d="M866 197q35 0 35 -31v-133q0 -33 -33 -33h-759q-33 0 -33 31v123q0 34 37 43q90 26 90 155v156q0 16 -4 25.5t-25 9.5l-63 2q-33 0 -33 30v123q0 31 33 31h67q27 0 27 33v153q0 164 104.5 266.5t274.5 102.5q111 0 202 -42t150 -157q15 -26 -14 -49l-103 -65
q-23 -14 -33 -7.5t-30 38.5t-58 58.5t-104 26.5t-116 -44t-50 -111v-168q0 -35 35 -35h194q33 0 33 -31v-123q0 -31 -33 -30h-188q-23 0 -30 -8.5t-7 -26.5v-143q0 -98 -37 -148q-14 -23 15 -22h456z" />
    <glyph glyph-name="currency" unicode="&#xa4;" horiz-adv-x="1007" 
d="M326 506q0 -74 52 -126t126 -52t125 52t51 126t-51 125t-125 51t-126 -51t-52 -125zM496 858q108 0 182 -49l90 88q32 32 63 0l62 -63q35 -35 2 -62l-90 -86q51 -72 51 -182t-49 -182l88 -82q30 -30 2 -60l-66 -69q-27 -27 -45 -11l-106 99q-87 -49 -183 -49t-175 53
l-84 -86q-31 -31 -60 -2l-69 65q-14 10 -15.5 26.5t15.5 33.5l90 94q-49 87 -49 180t49 168l-82 90q-16 16 -18.5 25.5t20.5 31.5l67 66q27 27 45 10l88 -96q69 49 177 49z" />
    <glyph glyph-name="yen" unicode="&#xa5;" horiz-adv-x="1017" 
d="M918 1264q34 0 34 -25q0 -12 -6 -20l-184 -424q-4 -10 -4 -19.5t16 -9.5h115q31 0 31 -31v-86q0 -31 -31 -31h-758q-33 0 -33 31v86q0 31 33 31h102q29 0 15 31l-185 420q-4 12 -4 20q0 27 33 27h160q23 0 34 -5.5t21 -27.5l182 -469q18 -45 37 -2l183 467q8 20 19 28.5
t38 8.5h152zM889 530q14 0 22.5 -9t8.5 -19v-88q0 -31 -31 -31h-240q-23 0 -28 -10.5t-5 -26.5v-317q0 -29 -32 -29h-158q-33 0 -33 29v315q0 16 -4 27.5t-29 11.5h-229q-33 0 -33 31v88q0 29 33 28h758z" />
    <glyph glyph-name="brokenbar" unicode="&#xa6;" horiz-adv-x="481" 
d="M287 604h-97q-33 0 -32 31l2 721q0 31 33 30h94q35 0 35 -28l-3 -725q0 -29 -32 -29zM287 -236h-97q-33 0 -32 31l2 701q0 31 33 30h94q35 0 35 -28l-3 -705q0 -29 -32 -29z" />
    <glyph glyph-name="section" unicode="&#xa7;" horiz-adv-x="962" 
d="M501 1176q-52 0 -89 -20.5t-37 -59.5t33.5 -64.5t105.5 -50.5q163 -57 243.5 -119.5t80.5 -167.5q0 -164 -154 -235q-14 -4 -31.5 -10.5t-27.5 16.5l-50 102q-4 5 -4 19t21 22q39 26 39 74t-50.5 75t-118.5 52q-157 58 -226.5 112.5t-69.5 166.5t93 185t247 73
t226.5 -56.5t101.5 -97.5q4 -4 4 -5v-18q0 -11 -19 -26l-74 -64q-14 -14 -27 -14t-40 30t-76 55.5t-101 25.5zM129 32q0 14 21 29q45 40 67 58q21 18 37 18q16 -1 42 -31t82 -55.5t114 -25.5t105.5 19.5t47.5 63.5t-39 69.5t-104 47.5q-152 51 -241 122.5t-89 172.5
q0 150 158 225q10 4 20 8.5t20 4.5t25 -21l47 -90q4 -6 4 -21q0 -14 -19 -26q-50 -30 -50 -65t37.5 -62t107.5 -53q171 -64 255.5 -127.5t84.5 -182.5t-105 -186t-253 -67q-122 0 -220 38.5t-149 116.5q-6 6 -6 20z" />
    <glyph glyph-name="dieresis" unicode="&#xa8;" horiz-adv-x="962" 
d="M297 1016q-53 0 -88 33.5t-35 85t35 86t88 34.5t88 -34.5t36 -84.5t-35 -85t-89 -35zM780 1136q0 -50 -35 -85t-87 -35t-89 33.5t-37 85t36 86t88 34.5t88 -34.5t36 -84.5z" />
    <glyph glyph-name="copyright" unicode="&#xa9;" horiz-adv-x="1447" 
d="M729 860q-39 0 -70.5 -28.5t-31.5 -71.5v-285q0 -43 30.5 -71.5t88.5 -28.5t100 59q6 8 12 13.5t19 -3.5l77 -43q16 -10 7 -28q-45 -70 -102.5 -94.5t-123.5 -24.5q-109 0 -176 57.5t-67 161.5v285q0 102 68.5 161.5t160.5 59.5t148.5 -25.5t91.5 -95.5q13 -19 -9 -29
l-75 -41q-20 -12 -31 11q-35 61 -117 61zM1219 774q0 165 -129.5 274t-364.5 109t-358 -110.5t-123 -272.5v-287q0 -161 125.5 -271t355.5 -110t362 109.5t132 271.5v287zM1335 494q0 -234 -170 -364t-439 -130t-435 134t-166 360v276q0 227 168 360.5t435 133.5t437 -131
t170 -363v-276z" />
    <glyph glyph-name="ordfeminine" unicode="&#xaa;" horiz-adv-x="643" 
d="M393 707q0 33 -24.5 55t-62.5 22t-61.5 -22t-23.5 -56t23.5 -57.5t62.5 -23.5t62.5 24.5t23.5 57.5zM406 895q0 72 -99 72q-71 0 -153 -29q-4 -2 -11 -2q-14 0 -20 18l-21 66q-2 4 -2 17t34 30q70 35 198 35t187 -60.5t59 -164.5v-349q0 -31 -29 -30h-107q-27 0 -26 24v6
q0 16 -18 2q-52 -38 -143 -38q-92 0 -149 55t-57 150t64.5 153.5t177.5 58.5q61 0 102 -30q13 -13 13 4v12z" />
    <glyph glyph-name="guillemotleft" unicode="&#xab;" horiz-adv-x="1122" 
d="M588 41h-133q-27 0 -42.5 9t-33.5 32l-234 283q-38 48 0 96l238 291q24 34 70 34h135q29 0 36 -15t-10 -36l-245 -301q-12 -16 -12.5 -23.5t10.5 -17.5l243 -295q16 -20 7 -38.5t-29 -18.5zM995 41h-131q-29 0 -44 9t-34 32l-233 283q-38 48 0 96l238 291q24 34 71 34
h133q29 0 36 -15t-9 -36l-246 -301q-12 -16 -11 -23.5t9 -17.5l244 -295q16 -20 8 -38.5t-31 -18.5z" />
    <glyph glyph-name="logicalnot" unicode="&#xac;" horiz-adv-x="1017" 
d="M938 152q0 -33 -29 -33h-92q-29 0 -29 31v282q0 18 -22 19h-653q-33 0 -33 28v101q0 29 31 28h794q33 0 33 -28v-428z" />
    <glyph glyph-name="sfthyphen" unicode="&#xad;" horiz-adv-x="663" 
d="M561 422q0 -31 -29 -31h-409q-33 0 -33 29v117q0 29 31 28h409q31 0 31 -26v-117z" />
    <glyph glyph-name="registered" unicode="&#xae;" horiz-adv-x="837" 
d="M481 1049q0 47 -47 47h-53v-99h53q16 0 31.5 14.5t15.5 37.5zM549 782h-39q-20 0 -25 15l-61 129q-2 10 -14 10h-27v-137q0 -16 -14 -17h-52q-14 0 -14 17v350q0 18 19 18h110q61 0 94 -30.5t33 -69.5q0 -72 -49 -109q-12 -8 -13 -12t3 -12l63 -125q4 -8 2 -17.5
t-16 -9.5zM674 1051q0 84 -64.5 142t-194.5 58t-191.5 -60.5t-61.5 -139.5v-154q0 -83 64.5 -141t186.5 -58t191.5 58t69.5 141v154zM750 901q0 -127 -92.5 -199.5t-239.5 -72.5t-239.5 71.5t-92.5 200.5v148q0 127 92 199.5t238 72.5q229 0 281.5 -103.5t52.5 -168.5v-148z
" />
    <glyph glyph-name="macron" unicode="&#xaf;" horiz-adv-x="946" 
d="M727 1106q0 -18 -6 -22.5t-29 -4.5h-434q-23 0 -31 3t-8 24v104q0 23 7 29t30 6h434q23 0 30 -6t7 -27v-106z" />
    <glyph glyph-name="degree" unicode="&#xb0;" horiz-adv-x="657" 
d="M442 1065q0 47 -33.5 82t-83.5 35t-84 -34t-34 -82t33.5 -83t81 -35t84 35t36.5 82zM66 1065q0 101 74 171.5t186 70.5q111 0 186.5 -71t75.5 -170t-79 -171t-186.5 -72t-182 70.5t-74.5 171.5z" />
    <glyph glyph-name="plusminus" unicode="&#xb1;" horiz-adv-x="1017" 
d="M938 51q0 -51 -49 -51h-760q-49 0 -49 49v64q0 45 49 45h760q49 0 49 -45v-62zM938 643q0 -43 -41 -43h-281q-16 0 -20 -5t-4 -17v-271q0 -39 -43 -39h-90q-43 0 -43 39v273q0 20 -29 20h-266q-41 0 -41 41v76q0 41 41 41h270q25 0 25 22v273q0 39 41 39h92q43 0 43 -39
v-267q0 -16 4 -22t20 -6h281q41 0 41 -41v-74z" />
    <glyph glyph-name="twosuperior" unicode="&#xb2;" horiz-adv-x="638" 
d="M70 674q-35 0 -35 31v61q0 34 20 59l260 301q66 75 66 110q0 36 -24.5 58.5t-72.5 22.5t-96 -51q-27 -35 -61 -11q-9 9 -13 11l-33 22q-29 20 -29.5 31.5t9.5 28.5q86 112 242 112q108 0 179 -56.5t71 -145.5t-100 -205q-14 -16 -39 -46t-52.5 -62t-54 -61.5t-41.5 -47.5
t4 -19h256q16 0 24.5 -10t8.5 -21v-81q0 -31 -31 -31h-458z" />
    <glyph glyph-name="threesuperior" unicode="&#xb3;" horiz-adv-x="638" 
d="M553 897q0 -109 -71.5 -169t-190.5 -60q-86 4 -145.5 30.5t-98.5 94.5q-4 12 -4 24q0 11 17 21t37 19t36 17q15 8 29 9q14 0 22 -17q40 -59 92 -59t80.5 23.5t28.5 58.5v49q0 33 -25.5 58.5t-66.5 25.5h-82q-35 0 -35 31v73q0 33 33 33h84q41 0 66.5 23.5t25.5 56.5
t-26.5 55.5t-62.5 22.5q-68 0 -106 -49q-14 -23 -32 -23t-25 4l-70 39q-14 8 -14 24t8 34q75 112 257 112q94 0 165.5 -56t71.5 -159q0 -41 -20.5 -81t-61.5 -64q-4 -4 -4 -6t4 -7q84 -47 84 -135v-53z" />
    <glyph glyph-name="acute" unicode="&#xb4;" horiz-adv-x="931" 
d="M481 1004q-21 -21 -51 -5l-57 35q-27 14 -13 43l179 293q19 32 49 16l123 -67q23 -13 19 -29t-13 -24z" />
    <glyph glyph-name="mu" unicode="&#xb5;" horiz-adv-x="987" 
d="M864 31q0 -31 -33 -31h-153q-33 0 -33 31v16q-1 26 -29 2q-28 -25 -71 -43t-96 -18t-89 25t-36 -7v-344q0 -33 -33 -33h-158q-33 0 -33 29v1219q0 33 33 32h158q33 0 33 -30v-543q0 -63 45 -108.5t113 -45.5t112.5 43t44.5 109v543q0 33 33 32h157q35 0 35 -30v-848z" />
    <glyph glyph-name="mu" unicode="&#x3bc;" horiz-adv-x="987" 
d="M864 31q0 -31 -33 -31h-153q-33 0 -33 31v16q-1 26 -29 2q-28 -25 -71 -43t-96 -18t-89 25t-36 -7v-344q0 -33 -33 -33h-158q-33 0 -33 29v1219q0 33 33 32h158q33 0 33 -30v-543q0 -63 45 -108.5t113 -45.5t112.5 43t44.5 109v543q0 33 33 32h157q35 0 35 -30v-848z" />
    <glyph glyph-name="paragraph" unicode="&#xb6;" horiz-adv-x="1056" 
d="M434 608q-153 0 -252.5 99.5t-99.5 245.5t102 250t250 104h162q31 0 31 -29v-641q0 -29 -31 -29h-162zM934 168q0 -193 -110.5 -283t-303.5 -102q-25 0 -33 29l-16 120q-5 35 25 39q186 22 205.5 96t19.5 121v1090q0 29 31 29h151q31 0 31 -29v-1110z" />
    <glyph glyph-name="periodcentered" unicode="&#xb7;" horiz-adv-x="468" 
d="M235 350q-56 0 -96.5 40t-40.5 93.5t41 92t95 38.5t95.5 -38t41.5 -92t-40 -94t-96 -40z" />
    <glyph glyph-name="cedilla" unicode="&#xb8;" horiz-adv-x="843" 
d="M532 -248q0 60 -69 60h-62q-39 0 -56 20.5t-9 54.5l37 144q7 28 28 28h66q20 0 20 -18q0 -4 -4 -16l-22 -97v-2q0 -6 14 -6h14q72 0 121 -44t49 -122q0 -110 -77.5 -141t-130.5 -31q-100 0 -168 49q-20 13 -7 35l39 47q11 15 19 15t38 -18t74 -17q44 0 65 17.5t21 41.5z
" />
    <glyph glyph-name="onesuperior" unicode="&#xb9;" horiz-adv-x="569" 
d="M96 1231v76q0 35 27 49l141 82q25 10 39 10h72q37 0 37 -35v-706q0 -33 -37 -33h-103q-35 0 -34 31v532q0 14 -15 8l-73 -37q-54 -23 -54 23z" />
    <glyph glyph-name="ordmasculine" unicode="&#xba;" horiz-adv-x="651" 
d="M416 860q0 35 -24.5 57.5t-66.5 22.5t-68 -23.5t-26 -58.5v-143q0 -37 27 -60.5t68 -23.5t65.5 22.5t24.5 61.5v145zM592 713q0 -113 -75 -172.5t-191.5 -59.5t-191.5 61.5t-75 166.5v153q0 102 73 166t190 64t193.5 -58.5t76.5 -171.5v-149z" />
    <glyph glyph-name="guillemotright" unicode="&#xbb;" horiz-adv-x="1122" 
d="M285 39h-133q-25 0 -34 16.5t7 36.5l231 281q20 26 17 39q5 14 -13 34l-235 285q-16 20 -7 36.5t34 16.5h133q29 0 43 -9t30 -30l205 -247q14 -16 24.5 -46t6.5 -44q4 -14 -5 -37t-20 -37l-211 -256q-16 -18 -30.5 -28.5t-42.5 -10.5zM692 39h-133q-25 0 -33 16.5t9 36.5
l229 281q19 25 16 39q4 12 -12 34l-233 285q-16 20 -8 36.5t32 16.5h133q29 0 43.5 -9t30.5 -30l207 -247q12 -16 23 -46t5 -44q8 -29 -24 -74l-211 -256q-16 -18 -30.5 -28.5t-43.5 -10.5z" />
    <glyph glyph-name="onequarter" unicode="&#xbc;" horiz-adv-x="1556" 
d="M1120 147q0 19 -20 19h-289q-29 0 -29 24v56q0 38 15 63l241 449q12 18 39 18h117q31 0 16 -26l-227 -431q-10 -14 8 -14h113q16 0 16 17v131q0 22 23 22h114q27 0 27 -22v-131q0 -17 14 -17h68q25 0 25 -20v-97q0 -23 -21 -22h-72q-14 0 -14 -16v-125q0 -25 -27 -25
h-114q-23 0 -23 25v122zM471 -61h-84q-35 0 -25 36l582 1328q10 23 37 22h74q44 0 28 -39l-581 -1329q-8 -18 -31 -18zM172 1047v75q0 35 27 49l141 82q10 4 18.5 7.5t20.5 3.5h72q37 0 36 -35v-707q0 -33 -36 -33h-103q-35 0 -35 31v533q0 14 -14 8l-74 -37q-53 -23 -53 23
z" />
    <glyph glyph-name="onehalf" unicode="&#xbd;" horiz-adv-x="1556" 
d="M1358 139q28 0 28 -28v-80q0 -31 -28 -31h-461q-31 0 -31 29v61q0 34 21 60l260 301q65 78 65 113q0 34 -24.5 57.5t-74.5 23.5t-97 -53q-29 -29 -58 -10l-61 43q-16 14 -16 23t10 24q89 112 237 112q104 0 178 -54t74 -145t-100 -206l-186 -219q-8 -10 -5 -15.5t9 -5.5
h260zM440 -61h-84q-23 0 -25.5 11t1.5 25l581 1328q10 23 37 22h74q43 0 29 -39l-582 -1329q-8 -18 -31 -18zM166 1047v75q0 35 27 49l141 82q10 4 18 7.5t21 3.5h71q37 0 37 -35v-707q0 -33 -37 -33h-102q-35 0 -35 31v533q0 14 -14 8l-74 -37q-53 -23 -53 23z" />
    <glyph glyph-name="threequarters" unicode="&#xbe;" horiz-adv-x="1556" 
d="M514 -61h-84q-37 0 -24 36l581 1328q10 23 37 22h74q44 0 28 -39l-581 -1329q-8 -18 -31 -18zM1157 147q0 19 -20 19h-289q-29 0 -29 24v56q0 38 15 63l241 449q12 18 39 18h117q29 0 16 -26l-227 -431q-10 -14 8 -14h113q16 0 16 17v131q0 16 7 19t16 3h114q27 0 27 -22
v-131q0 -17 14 -17h68q25 0 24 -20v-97q0 -23 -20 -22h-72q-14 0 -14 -16v-125q0 -25 -27 -25h-114q-23 0 -23 25v122zM606 713q0 -109 -71.5 -169.5t-190.5 -60.5q-86 4 -145.5 31t-98.5 94q-4 12 -4 24t18 22l37 18.5l35 17.5t30 8t22 -16q39 -59 91 -59t80.5 23.5
t28.5 58.5v49q0 33 -25.5 58.5t-66.5 25.5h-82q-35 0 -35 30v74q0 33 33 33h84q41 0 66.5 23.5t25.5 56.5t-26.5 55.5t-62.5 22.5q-70 0 -105 -50q-14 -23 -32 -23t-26 5l-69 39q-28 16 -6 57q75 113 255 113q94 0 166 -56.5t72 -155.5t-82 -149q-4 -4 -4 -6t4 -6
q84 -47 84 -135v-53z" />
    <glyph glyph-name="questiondown" unicode="&#xbf;" horiz-adv-x="1034" 
d="M535 776q0 53 38.5 92t96.5 39t98.5 -39t40.5 -92t-41 -92t-96.5 -39t-95 37t-39.5 94h-2zM172 -68q0 113 59.5 197.5t139.5 134.5q80 49 131 96.5t51 120.5v39q0 20 25 21h163q23 0 32 -8.5t9 -32.5v-54q0 -80 -48 -157.5t-128 -129.5t-136 -98.5t-60 -110.5t39 -106.5
t98 -42.5q88 0 125 28.5t73 84.5q16 23 48 4l108 -68q31 -18 10 -55q-111 -188 -337 -188q-286 0 -344 129.5t-58 195.5z" />
    <glyph glyph-name="Agrave" unicode="&#xc0;" horiz-adv-x="987" 
d="M385 451h213q20 0 12 20l-65 287l-49 235q-2 8 -7.5 9.5t-7.5 -9.5l-110 -524q-2 -10 0 -14t14 -4zM258 1624q28 35 84 -6l248 -188q27 -20 6 -46l-41 -53q-23 -28 -49 -14l-316 160q-10 4 -19 18t7 33zM924 0h-166q-33 0 -41 27l-47 204q-7 29 -27 29h-303
q-16 0 -20.5 -8t-8.5 -22t-10 -41t-18 -83t-19 -81t-39 -25h-157q-29 0 -34 12.5t-1 28.5l299 1194q10 29 43 29h233q14 0 24.5 -3.5t14.5 -23.5l307 -1194q4 -10 1 -26.5t-31 -16.5z" />
    <glyph glyph-name="Aacute" unicode="&#xc1;" horiz-adv-x="987" 
d="M791 1528q16 -18 6.5 -32.5t-19.5 -18.5l-315 -160q-26 -14 -49 14l-41 53q-20 25 6 46l248 188q56 41 84 6zM385 451h213q20 0 12 20l-65 287l-49 235q-2 8 -7.5 9.5t-7.5 -9.5l-110 -524q-2 -10 0 -14t14 -4zM924 0h-166q-33 0 -41 27l-47 204q-7 29 -27 29h-303
q-16 0 -20.5 -8t-8.5 -22t-10 -41t-18 -83t-19 -81t-39 -25h-157q-29 0 -34 12.5t-1 28.5l299 1194q10 29 43 29h233q14 0 24.5 -3.5t14.5 -23.5l307 -1194q4 -10 1 -26.5t-31 -16.5z" />
    <glyph glyph-name="Acircumflex" unicode="&#xc2;" horiz-adv-x="987" 
d="M420 1640h137q25 0 45 -20l203 -234q22 -27 -2 -36l-66 -31q-27 -14 -45 4l-192 150q-14 12 -29 2l-190 -154q-17 -17 -43 -4l-64 33q-24 9 -2 36l205 234q16 20 43 20zM385 451h213q20 0 12 20l-65 287l-49 235q-2 8 -7.5 9.5t-7.5 -9.5l-110 -524q-2 -10 0 -14t14 -4z
M924 0h-166q-33 0 -41 27l-47 204q-7 29 -27 29h-303q-16 0 -20.5 -8t-8.5 -22t-10 -41t-18 -83t-19 -81t-39 -25h-157q-29 0 -34 12.5t-1 28.5l299 1194q10 29 43 29h233q14 0 24.5 -3.5t14.5 -23.5l307 -1194q4 -10 1 -26.5t-31 -16.5z" />
    <glyph glyph-name="Atilde" unicode="&#xc3;" horiz-adv-x="987" 
d="M472 1365q-87 32 -112 32q-57 0 -102 -51q-18 -21 -41 0l-57 55q-16 16 -4 37q29 49 81 83.5t98 34.5q62 0 144 -33.5t111 -33.5t49.5 19.5t32.5 34.5t19 16.5t20 -7.5l69 -45q14 -10 16 -18t-8 -31q-33 -59 -85 -92t-98 -33t-133 32zM385 451h213q20 0 12 20l-65 287
l-49 235q-2 8 -7.5 9.5t-7.5 -9.5l-110 -524q-2 -10 0 -14t14 -4zM924 0h-166q-33 0 -41 27l-47 204q-7 29 -27 29h-303q-16 0 -20.5 -8t-8.5 -22t-10 -41t-18 -83t-19 -81t-39 -25h-157q-29 0 -34 12.5t-1 28.5l299 1194q10 29 43 29h233q14 0 24.5 -3.5t14.5 -23.5
l307 -1194q4 -10 1 -26.5t-31 -16.5z" />
    <glyph glyph-name="Adieresis" unicode="&#xc4;" horiz-adv-x="987" 
d="M430 1452q0 -51 -35 -85t-88 -34t-88 34t-35 85t35 86t88 35t88 -35t35 -86zM791 1452q0 -51 -35 -85t-88.5 -34t-89 34t-35.5 85t35.5 86t87.5 35t88.5 -35t36.5 -86zM385 451h213q20 0 12 20l-65 287l-49 235q-2 8 -7.5 9.5t-7.5 -9.5l-110 -524q-2 -10 0 -14t14 -4z
M924 0h-166q-33 0 -41 27l-47 204q-7 29 -27 29h-303q-16 0 -20.5 -8t-8.5 -22t-10 -41t-18 -83t-19 -81t-39 -25h-157q-29 0 -34 12.5t-1 28.5l299 1194q10 29 43 29h233q14 0 24.5 -3.5t14.5 -23.5l307 -1194q4 -10 1 -26.5t-31 -16.5z" />
    <glyph glyph-name="Aring" unicode="&#xc5;" horiz-adv-x="987" 
d="M565 1503.5q0 30.5 -23.5 55t-54 24.5t-52 -22.5t-21.5 -56.5t21 -55.5t53 -21.5t54.5 23t22.5 53.5zM309 1504q0 74 50.5 126.5t126.5 52.5t131 -52t55 -127t-54 -127t-129 -52t-127.5 52.5t-52.5 126.5zM385 451h213q20 0 12 20l-65 287l-49 235q-2 8 -7.5 9.5
t-7.5 -9.5l-110 -524q-2 -10 0 -14t14 -4zM924 0h-166q-33 0 -41 27l-47 204q-7 29 -27 29h-303q-16 0 -20.5 -8t-8.5 -22t-10 -41t-18 -83t-19 -81t-39 -25h-157q-29 0 -34 12.5t-1 28.5l299 1194q10 29 43 29h233q14 0 24.5 -3.5t14.5 -23.5l307 -1194q4 -10 1 -26.5
t-31 -16.5z" />
    <glyph glyph-name="AE" unicode="&#xc6;" horiz-adv-x="1554" 
d="M690 483q29 0 29 27v532q0 18 -21 19h-63q-18 0 -23 -17l-190 -542q-8 -18 12 -19h256zM1393 580q0 -37 -31 -37h-383q-18 0 -22.5 -7.5t-4.5 -23.5v-274q0 -10 3 -20.5t26 -10.5h475q33 0 33 -35v-139q0 -33 -33 -33h-700q-37 0 -37 31v221q0 12 -3 23.5t-26 11.5h-319
q-22 0 -33 -27l-86 -231q-11 -29 -41 -29h-158q-42 0 -26 47t52 140.5t81 209t94 242.5t93 242.5t80 209t54 142.5q16 31 51 31h912q33 0 33 -31v-135q0 -37 -31 -37h-465q-29 0 -29 -27v-254q0 -18 5.5 -25t23.5 -7h381q18 0 24.5 -7.5t6.5 -25.5v-135z" />
    <glyph glyph-name="Ccedilla" unicode="&#xc7;" horiz-adv-x="966" 
d="M623 -248q0 60 -70 60h-61q-39 0 -56.5 20.5t-9.5 54.5l27 105q-152 18 -242 113.5t-90 246.5v568q0 165 113 264.5t284 99.5q106 0 203.5 -38t175.5 -148q24 -29 -10 -54l-111 -83q-16 -10 -31.5 -4t-23.5 20q-70 102 -195 102q-86 0 -130 -50t-44 -118v-559
q0 -66 45 -111.5t117 -45.5q124 0 205 96l17 17q16 16 36 3l123 -75q34 -20 16 -50q-120 -179 -348 -196l-12 -62v-2q0 -6 14 -6h15q72 0 121 -44t49 -122q0 -110 -78 -141t-131 -31q-100 0 -168 49q-21 14 -6 35l39 47q12 15 19 15t38 -18t75 -17q44 0 64.5 17.5t20.5 41.5
z" />
    <glyph glyph-name="Egrave" unicode="&#xc8;" horiz-adv-x="958" 
d="M238 1624q28 35 84 -6l247 -188q27 -20 6 -46l-40 -53q-23 -28 -50 -14l-315 160q-10 4 -19.5 18t7.5 33zM844 1264q35 0 35 -33v-133q0 -37 -33 -37h-457q-20 0 -26.5 -6t-6.5 -21v-246q0 -35 33 -34h377q33 0 33 -37v-131q0 -35 -33 -35h-379q-18 0 -24.5 -7t-6.5 -24
v-282q0 -18 8.5 -24.5t28.5 -6.5h463q33 0 33 -35v-135q0 -37 -33 -37h-694q-37 0 -37 35v1194q0 35 37 35h682z" />
    <glyph glyph-name="Eacute" unicode="&#xc9;" horiz-adv-x="958" 
d="M758 1528q16 -18 7 -32.5t-20 -18.5l-315 -160q-26 -14 -49 14l-41 53q-20 25 6 46l248 188q57 42 84 6zM844 1264q35 0 35 -33v-133q0 -37 -33 -37h-457q-20 0 -26.5 -6t-6.5 -21v-246q0 -35 33 -34h377q33 0 33 -37v-131q0 -35 -33 -35h-379q-18 0 -24.5 -7t-6.5 -24
v-282q0 -18 8.5 -24.5t28.5 -6.5h463q33 0 33 -35v-135q0 -37 -33 -37h-694q-37 0 -37 35v1194q0 35 37 35h682z" />
    <glyph glyph-name="Ecircumflex" unicode="&#xca;" horiz-adv-x="958" 
d="M426 1640h137q25 0 45 -20l203 -234q22 -27 -2 -36l-66 -31q-26 -13 -45 4l-192 150q-14 12 -29 2l-190 -154q-17 -17 -43 -4l-64 33q-24 9 -2 36l205 234q16 20 43 20zM844 1264q35 0 35 -33v-133q0 -37 -33 -37h-457q-20 0 -26.5 -6t-6.5 -21v-246q0 -35 33 -34h377
q33 0 33 -37v-131q0 -35 -33 -35h-379q-18 0 -24.5 -7t-6.5 -24v-282q0 -18 8.5 -24.5t28.5 -6.5h463q33 0 33 -35v-135q0 -37 -33 -37h-694q-37 0 -37 35v1194q0 35 37 35h682z" />
    <glyph glyph-name="Edieresis" unicode="&#xcb;" horiz-adv-x="958" 
d="M414 1452q0 -51 -35 -85t-88 -34t-88 34t-35 85t35 86t88 35t88 -35t35 -86zM774 1452q0 -51 -34.5 -85t-88 -34t-89.5 34t-36 85t36 86t88 35t88 -35t36 -86zM844 1264q35 0 35 -33v-133q0 -37 -33 -37h-457q-20 0 -26.5 -6t-6.5 -21v-246q0 -35 33 -34h377q33 0 33 -37
v-131q0 -35 -33 -35h-379q-18 0 -24.5 -7t-6.5 -24v-282q0 -18 8.5 -24.5t28.5 -6.5h463q33 0 33 -35v-135q0 -37 -33 -37h-694q-37 0 -37 35v1194q0 35 37 35h682z" />
    <glyph glyph-name="Igrave" unicode="&#xcc;" horiz-adv-x="526" 
d="M4 1624q28 35 84 -6l248 -188q27 -20 6 -46l-41 -53q-23 -28 -49 -14l-315 160q-10 4 -19.5 18t6.5 33zM180 0q-37 0 -37 31v1202q0 31 37 31h160q37 0 37 -31v-1200q0 -33 -37 -33h-160z" />
    <glyph glyph-name="Iacute" unicode="&#xcd;" horiz-adv-x="526" 
d="M596 1528q16 -18 7 -32.5t-19 -18.5l-316 -160q-26 -14 -49 14l-41 53q-20 25 6 46l248 188q57 42 84 6zM180 0q-37 0 -37 31v1202q0 31 37 31h160q37 0 37 -31v-1200q0 -33 -37 -33h-160z" />
    <glyph glyph-name="Icircumflex" unicode="&#xce;" horiz-adv-x="526" 
d="M332 1657q26 0 45 -21l203 -233q22 -28 -2 -37l-66 -31q-27 -14 -45 4l-193 150q-14 12 -28 2l-191 -154q-16 -16 -43 -4l-63 33q-24 9 -2 37l205 233q16 20 43 21h137zM180 0q-37 0 -37 31v1202q0 31 37 31h160q37 0 37 -31v-1200q0 -33 -37 -33h-160z" />
    <glyph glyph-name="Idieresis" unicode="&#xcf;" horiz-adv-x="526" 
d="M205 1452q0 -51 -35 -85t-88 -34t-88 34t-35 85t35 86t88 35t88 -35t35 -86zM565 1452q0 -51 -34.5 -85t-88 -34t-89.5 34t-36 85t36 86t88 35t88 -35t36 -86zM180 0q-37 0 -37 31v1202q0 31 37 31h160q37 0 37 -31v-1200q0 -33 -37 -33h-160z" />
    <glyph glyph-name="Eth" unicode="&#xd0;" horiz-adv-x="1081" 
d="M735 885q0 176 -180 176h-158q-23 0 -29 -9.5t-6 -25.5v-303q2 -8 19 -8h133q31 0 31 -31v-92q0 -29 -29 -29h-133q-16 0 -21 -10v-313q0 -33 33 -33h168q172 0 172 176v502zM109 715q20 0 20 26v488q0 35 39 35h414q195 0 290 -100.5t95 -276.5v-504
q0 -180 -95.5 -281.5t-283.5 -101.5h-420q-39 0 -39 35v502q0 12 -2 19t-18 7h-54q-18 0 -23 6t-5 23v92q0 16 5 23.5t21 7.5h56z" />
    <glyph glyph-name="Ntilde" unicode="&#xd1;" horiz-adv-x="1124" 
d="M562 1357q-87 32 -112 32q-58 0 -102 -52q-10 -12 -18 -12t-23 12l-57 56q-16 16 -4 37q29 49 81 83.5t98 34.5q64 0 144.5 -33.5t110.5 -33.5q29 0 49.5 19.5t32.5 34.5t19 16t20 -7l69 -45q14 -10 16.5 -18t-7.5 -31q-33 -59 -85.5 -92t-98.5 -33t-133 32zM995 41
q0 -41 -43 -41h-104q-25 0 -38 4t-26 27l-417 727q-4 10 -10.5 9t-6.5 -13v-725q0 -29 -39 -29h-147q-39 0 -39 29v1185q0 49 47 50h104q29 0 42.5 -8.5t23.5 -28.5l426 -748q8 -8 8 2v750q0 33 35 33h147q37 0 37 -33v-1190z" />
    <glyph glyph-name="Ograve" unicode="&#xd2;" horiz-adv-x="1083" 
d="M311 1630q30 38 84 -6l248 -188q27 -20 6 -45l-41 -54q-10 -12 -20 -18t-29 4l-315 160q-10 4 -19.5 18.5t6.5 32.5zM727 907q0 72 -46 121t-138 49t-141.5 -49t-49.5 -121v-545q0 -72 48.5 -119.5t137.5 -47.5t139 48t50 119v545zM961 360q0 -170 -117 -271t-300.5 -101
t-303 99.5t-119.5 272.5v549q0 171 117.5 273t298.5 102q182 0 303 -101t121 -274v-549z" />
    <glyph glyph-name="Oacute" unicode="&#xd3;" horiz-adv-x="1083" 
d="M872 1536q16 -18 7 -32.5t-19 -18.5l-315 -160q-26 -14 -49 14l-41 54q-20 25 6 45l248 188q56 41 84 6zM727 907q0 72 -46 121t-138 49t-141.5 -49t-49.5 -121v-545q0 -72 48.5 -119.5t137.5 -47.5t139 48t50 119v545zM961 360q0 -170 -117 -271t-300.5 -101t-303 99.5
t-119.5 272.5v549q0 171 117.5 273t298.5 102q182 0 303 -101t121 -274v-549z" />
    <glyph glyph-name="Ocircumflex" unicode="&#xd4;" horiz-adv-x="1083" 
d="M479 1640h137q24 0 46 -20l202 -234q22 -28 -2 -36l-65 -31q-27 -14 -45 4l-193 150q-14 12 -29 2l-190 -154q-17 -17 -43 -4l-64 33q-24 9 -2 36l205 234q16 20 43 20zM727 907q0 72 -46 121t-138 49t-141.5 -49t-49.5 -121v-545q0 -72 48.5 -119.5t137.5 -47.5t139 48
t50 119v545zM961 360q0 -170 -117 -271t-300.5 -101t-303 99.5t-119.5 272.5v549q0 171 117.5 273t298.5 102q182 0 303 -101t121 -274v-549z" />
    <glyph glyph-name="Otilde" unicode="&#xd5;" horiz-adv-x="1083" 
d="M537.5 1377.5q-80.5 31.5 -108.5 31.5q-62 0 -105 -51q-10 -12 -18.5 -12t-22.5 12l-58 55q-16 16 -4 37q29 49 81 84t98 35q58 0 144.5 -34t113.5 -34t47 19.5t32 34.5t19.5 16.5t19.5 -6.5l70 -45q14 -10 16 -18.5t-8 -31.5q-33 -59 -85 -91.5t-101 -32.5
q-50 0 -130.5 31.5zM727 907q0 72 -46 121t-138 49t-141.5 -49t-49.5 -121v-545q0 -72 48.5 -119.5t137.5 -47.5t139 48t50 119v545zM961 360q0 -170 -117 -271t-300.5 -101t-303 99.5t-119.5 272.5v549q0 171 117.5 273t298.5 102q182 0 303 -101t121 -274v-549z" />
    <glyph glyph-name="Odieresis" unicode="&#xd6;" horiz-adv-x="1083" 
d="M473 1452q0 -51 -35 -85t-88 -34t-88 34t-35 85t35 86t88 35t88 -35t35 -86zM834 1452q0 -51 -35 -85t-88.5 -34t-89 34t-35.5 85t36 86t88 35t88 -35t36 -86zM727 907q0 72 -46 121t-138 49t-141.5 -49t-49.5 -121v-545q0 -72 48.5 -119.5t137.5 -47.5t139 48t50 119
v545zM961 360q0 -170 -117 -271t-300.5 -101t-303 99.5t-119.5 272.5v549q0 171 117.5 273t298.5 102q182 0 303 -101t121 -274v-549z" />
    <glyph glyph-name="multiply" unicode="&#xd7;" horiz-adv-x="1017" 
d="M178 203q-31 31 -2 59l207 207q12 10 11 16t-9 17l-203 203q-29 29 0 57l54 53q25 25 57 0l205 -205q12 -12 34 6l193 195q29 29 59 0l54 -53q29 -29 0 -58l-197 -196q-18 -18 2 -39l199 -199q24 -28 0 -57l-51 -51q-33 -33 -60 -2l-209 206q-12 10 -28 -6l-205 -204
q-31 -31 -58 0z" />
    <glyph glyph-name="Oslash" unicode="&#xd8;" horiz-adv-x="1083" 
d="M350 451q0 -12 6 -11.5t11 6.5l315 547q12 16 -6 37q-41 47 -132 47t-142.5 -50t-51.5 -120v-456zM727 809q0 12 -3 12t-7 -6l-318 -553q-6 -14 2 -22q54 -50 137 -50t136 48.5t53 119.5v451zM119 348v557q0 173 119 274t305 101q129 0 245 -61q17 -7 31 10l27 43
q12 20 37 8l63 -33q14 -8 11 -18t-9 -21l-41 -71q-11 -18 7 -43q48 -64 47 -174v-568q0 -168 -120.5 -266t-288.5 -98t-257 57q-16 12 -25 0l-26 -41q-14 -25 -35 -12l-64 35q-21 12 -4 39l35 61q2 6 6 13t-12 28t-33.5 74t-17.5 106z" />
    <glyph glyph-name="Ugrave" unicode="&#xd9;" horiz-adv-x="1083" 
d="M291 1624q28 35 84 -6l248 -188q27 -20 6 -46l-41 -53q-23 -28 -49 -14l-316 160q-10 4 -19 18t7 33zM315 1264q37 0 37 -29v-879q0 -68 51.5 -114.5t137.5 -46.5t137 47t51 116v875q0 31 37 31h158q39 0 39 -29v-879q0 -168 -119.5 -268t-301.5 -100t-301.5 99.5
t-119.5 268.5v877q0 31 37 31h157z" />
    <glyph glyph-name="Uacute" unicode="&#xda;" horiz-adv-x="1083" 
d="M827 1528q16 -18 7 -32.5t-19 -18.5l-315 -160q-26 -14 -49 14l-41 53q-20 25 6 46l248 188q56 41 84 6zM315 1264q37 0 37 -29v-879q0 -68 51.5 -114.5t137.5 -46.5t137 47t51 116v875q0 31 37 31h158q39 0 39 -29v-879q0 -168 -119.5 -268t-301.5 -100t-301.5 99.5
t-119.5 268.5v877q0 31 37 31h157z" />
    <glyph glyph-name="Ucircumflex" unicode="&#xdb;" horiz-adv-x="1083" 
d="M473 1640h137q25 0 45 -20l203 -234q22 -27 -2 -36l-65 -31q-27 -13 -46 4l-192 150q-14 12 -29 2l-190 -154q-17 -17 -43 -4l-64 33q-24 9 -2 36l205 234q16 20 43 20zM315 1264q37 0 37 -29v-879q0 -68 51.5 -114.5t137.5 -46.5t137 47t51 116v875q0 31 37 31h158
q39 0 39 -29v-879q0 -168 -119.5 -268t-301.5 -100t-301.5 99.5t-119.5 268.5v877q0 31 37 31h157z" />
    <glyph glyph-name="Udieresis" unicode="&#xdc;" horiz-adv-x="1083" 
d="M481 1452q0 -51 -34.5 -85t-88 -34t-88 34t-34.5 85t34.5 86t88 35t88 -35t34.5 -86zM842 1452q0 -51 -35 -85t-88 -34t-89 34t-36 85t36 86t88 35t88 -35t36 -86zM315 1264q37 0 37 -29v-879q0 -68 51.5 -114.5t137.5 -46.5t137 47t51 116v875q0 31 37 31h158
q39 0 39 -29v-879q0 -168 -119.5 -268t-301.5 -100t-301.5 99.5t-119.5 268.5v877q0 31 37 31h157z" />
    <glyph glyph-name="Yacute" unicode="&#xdd;" horiz-adv-x="952" 
d="M768 1528q16 -18 7 -32.5t-19 -18.5l-316 -160q-26 -14 -49 14l-41 53q-20 25 6 46l248 188q57 42 84 6zM221 1264q23 0 36 -5.5t24 -27.5l184 -498q12 -12 18 -2q136 357 185 496q10 20 21 28.5t42 8.5h152q53 0 35 -41l-316 -729q-12 -24 -12 -54v-403q0 -37 -37 -37
h-158q-37 0 -37 35v409q0 25 -10 45l-317 732q-16 43 28 43h162z" />
    <glyph glyph-name="Thorn" unicode="&#xde;" horiz-adv-x="995" 
d="M389 811q-26 0 -31 -29v-284q0 -29 29 -29h160q74 0 119 47t45 119t-45.5 124t-118.5 52h-158zM385 266q-25 0 -25 -26v-207q0 -33 -36 -33h-158q-37 0 -39 31v1202q0 31 39 31h156q37 0 36 -29v-199q4 -20 27 -20h162q177 0 286 -105.5t109 -269.5t-113 -269.5
t-280 -105.5h-164z" />
    <glyph glyph-name="germandbls" unicode="&#xdf;" horiz-adv-x="1003" 
d="M541 811q116 1 116 127q0 60 -39.5 106t-107.5 46t-109 -45.5t-41 -110.5v-901q0 -33 -32 -33h-158q-35 0 -35 31v889q0 163 102 263.5t272 100.5t271 -99t101 -253q0 -53 -25 -110.5t-76 -80.5q-27 -12 -2 -24q63 -27 93 -87.5t30 -125.5v-172q0 -160 -110 -258
q-98 -94 -240 -94h-84q-31 0 -31 26v117q0 33 39 33h49q67 0 110.5 52t43.5 118v170q0 66 -37 109.5t-109 43.5h-16q-31 0 -31 27v108q0 27 29 27h27z" />
    <glyph glyph-name="agrave" unicode="&#xe0;" horiz-adv-x="946" 
d="M635 1077q18 -29 -10 -43l-50 -28q-39 -20 -65 8l-231 252q-26 35 8 53l123 67q26 16 49 -16zM442 158q78 0 116 45t39 106t-39 105.5t-117 44.5t-116.5 -43t-39.5 -106.5t39.5 -107.5t117.5 -44zM487 926q351 0 351 -340v-557q0 -29 -27 -29h-160q-23 0 -22 23v16
q0 31 -53 -10t-160 -41q-158 0 -248 84t-90 230t92 234.5t258 88.5q84 0 158 -43q28 -17 28 12v24q0 123 -157 123q-109 1 -223 -47q-28 -12 -37 21l-37 104q-6 14 0 25.5t46 29.5q111 52 281 52z" />
    <glyph glyph-name="aacute" unicode="&#xe1;" horiz-adv-x="946" 
d="M481 1004q-22 -22 -51 -5l-57 35q-27 14 -13 43l179 293q19 32 49 16l123 -67q23 -12 18.5 -28.5t-12.5 -24.5zM440 459q-76 0 -115.5 -43t-39.5 -106.5t40.5 -107.5t118.5 -44t116 46t37 106t-41 104.5t-116 44.5zM487 926q351 0 351 -340v-557q0 -29 -27 -29h-160
q-23 0 -22 23v16q0 31 -53 -10t-160 -41q-158 0 -248 84t-90 230t92 234.5t258 88.5q84 0 158 -43q28 -17 28 12v24q0 123 -157 123q-109 1 -223 -47q-28 -12 -37 21l-37 104q-6 14 0 25.5t46 29.5q111 52 281 52z" />
    <glyph glyph-name="acircumflex" unicode="&#xe2;" horiz-adv-x="946" 
d="M442 158q78 0 116 45t39 106t-39 105.5t-117 44.5t-116.5 -43t-39.5 -106.5t39.5 -107.5t117.5 -44zM408 1368h137q23 0 45 -22l203 -267q21 -32 -2 -43l-66 -35q-26 -16 -45 5l-193 184q-16 14 -28 2l-191 -188q-10 -10 -18 -12.5t-25 7.5l-63 37q-23 12 -2 43l205 267
q18 22 43 22zM487 926q351 0 351 -340v-557q0 -29 -27 -29h-160q-23 0 -22 23v16q0 31 -53 -10t-160 -41q-158 0 -248 84t-90 230t92 234.5t258 88.5q84 0 158 -43q28 -17 28 12v24q0 123 -157 123q-109 1 -223 -47q-28 -12 -37 21l-37 104q-6 14 0 25.5t46 29.5
q111 52 281 52z" />
    <glyph glyph-name="atilde" unicode="&#xe3;" horiz-adv-x="946" 
d="M442 158q78 0 116 45t39 106t-39 105.5t-117 44.5t-116.5 -43t-39.5 -106.5t39.5 -107.5t117.5 -44zM492.5 1070q-85.5 32 -110.5 32q-59 0 -103 -51q-18 -21 -41 0l-58 55q-16 16 -4 37q29 49 81.5 84t98.5 35q61 0 142.5 -34t111.5 -34q29 0 49.5 19.5t32.5 34.5
t19.5 16.5t19.5 -7.5l70 -45q14 -10 16 -18t-8 -31q-33 -59 -85 -92t-99 -33t-132.5 32zM487 926q351 0 351 -340v-557q0 -29 -27 -29h-160q-23 0 -22 23v16q0 31 -53 -10t-160 -41q-158 0 -248 84t-90 230t92 234.5t258 88.5q84 0 158 -43q28 -17 28 12v24q0 123 -157 123
q-109 1 -223 -47q-28 -12 -37 21l-37 104q-6 14 0 25.5t46 29.5q111 52 281 52z" />
    <glyph glyph-name="adieresis" unicode="&#xe4;" horiz-adv-x="946" 
d="M297 1016q-53 0 -88 33.5t-35 85t35 86t88 34.5t88 -34.5t36 -84.5t-35 -85t-89 -35zM780 1136q0 -50 -35 -85t-87 -35t-89 33.5t-37 85t36 86t88 34.5t88 -34.5t36 -84.5zM440 459q-76 0 -115.5 -43t-39.5 -106.5t40.5 -107.5t118.5 -44t116 46t37 106t-41 104.5
t-116 44.5zM487 926q351 0 351 -340v-557q0 -29 -27 -29h-160q-23 0 -22 23v16q0 31 -53 -10t-160 -41q-158 0 -248 84t-90 230t92 234.5t258 88.5q84 0 158 -43q28 -17 28 12v24q0 123 -157 123q-109 1 -223 -47q-28 -12 -37 21l-37 104q-6 14 0 25.5t46 29.5
q111 52 281 52z" />
    <glyph glyph-name="aring" unicode="&#xe5;" horiz-adv-x="946" 
d="M559 1181.5q0 30.5 -23.5 55.5t-54 25t-52 -22.5t-21.5 -56.5t21 -55.5t53 -21.5t54.5 22.5t22.5 53zM440 459q-76 0 -115.5 -43t-39.5 -106.5t40.5 -107.5t118.5 -44t116 46t37 106t-41 104.5t-116 44.5zM612.5 1055.5q-53.5 -51.5 -129.5 -51.5t-128 52t-52 126t50 127
t127 53t131.5 -52t54.5 -128q0 -75 -53.5 -126.5zM487 926q351 0 351 -340v-557q0 -29 -27 -29h-160q-23 0 -22 23v16q0 31 -53 -10t-160 -41q-158 0 -248 84t-90 230t92 234.5t258 88.5q84 0 158 -43q28 -17 28 12v24q0 123 -157 123q-109 1 -223 -47q-28 -12 -37 21
l-37 104q-6 14 0 25.5t46 29.5q111 52 281 52z" />
    <glyph glyph-name="ae" unicode="&#xe6;" horiz-adv-x="1464" 
d="M997 731q-64 0 -104.5 -42t-46.5 -101q0 -29 35 -29h247q16 0 23.5 11.5t3.5 27.5h2q-8 61 -52 97t-108 36zM448 459q-64 0 -105.5 -42t-41.5 -103.5t41 -104.5t110 -43t107.5 45t37.5 103t-43 101.5t-106 43.5zM883 410q-41 0 -41 -35v-31q0 -66 43 -114t109 -48t108 31
t62 55t30 28.5t29 -7.5l100 -64q42 -28 27 -55q-53 -96 -146.5 -139t-192.5 -43q-185 0 -294 100q-12 12 -17.5 8t-13.5 -12q-96 -96 -256 -96t-254 85.5t-94 230.5q0 144 92.5 234.5t253.5 90.5q90 0 158 -47q10 -8 19 -6t9 18v29q0 61 -49 95t-126 34t-197 -52
q-35 -14 -45 19l-37 100q-6 14 0 25.5t46 29.5q111 52 221 52q186 0 292 -80q14 -10 22 -4q106 84 267 84q162 0 268 -98.5t106 -260.5v-96q0 -29 -16 -45t-41 -16h-442z" />
    <glyph glyph-name="ccedilla" unicode="&#xe7;" horiz-adv-x="864" 
d="M561 -248q0 60 -69 60h-62q-39 0 -56.5 20.5t-8.5 54.5l26 107q-141 23 -224 113t-83 231v231q0 163 109.5 259t279.5 96q227 0 342 -191q14 -35 -14 -53l-115 -66q-27 -16 -39.5 -4t-30.5 44t-60 54.5t-98 22.5t-102.5 -45t-46.5 -111v-239q0 -66 46.5 -109t102.5 -43
q118 0 165 86q10 18 23 30.5t40 -3.5l115 -64q29 -18 14 -55q-113 -180 -313 -188l-13 -62v-2q0 -6 15 -6h14q72 0 121 -44t49 -122q0 -110 -78 -141t-131 -31q-100 0 -168 49q-12 9 -12 17t6 18l39 47q12 15 20 15t37 -18q31 -18 75 -17q44 0 64.5 17.5t20.5 41.5z" />
    <glyph glyph-name="egrave" unicode="&#xe8;" horiz-adv-x="937" 
d="M623 1077q18 -29 -11 -43l-49 -28q-39 -20 -65 8l-232 252q-26 35 8 53l123 67q26 16 49 -16zM470 731q-64 0 -104 -42t-47 -101q0 -29 35 -29h248q34 0 29 39q-8 61 -52.5 97t-108.5 36zM356 410q-41 0 -41 -35v-31q0 -66 43.5 -114t109.5 -48t108 31t62 55t30 28.5
t28 -7.5l101 -64q42 -28 26 -55q-53 -96 -146 -139t-191 -43q-187 0 -291.5 95.5t-104.5 252.5v231q0 160 107 259.5t276 99.5q170 0 276.5 -98.5t106.5 -260.5v-96q0 -29 -16.5 -45t-40.5 -16h-443z" />
    <glyph glyph-name="eacute" unicode="&#xe9;" horiz-adv-x="937" 
d="M461 1004q-22 -22 -51 -5l-58 35q-27 14 -12 43l178 293q8 14 22.5 18.5t26.5 -2.5l123 -67q23 -12 19 -28.5t-13 -24.5zM470 731q-64 0 -104 -42t-47 -101q0 -29 35 -29h248q34 0 29 39q-8 61 -52.5 97t-108.5 36zM356 410q-41 0 -41 -35v-31q0 -66 43.5 -114t109.5 -48
t108 31t62 55t30 28.5t28 -7.5l101 -64q42 -28 26 -55q-53 -96 -146 -139t-191 -43q-187 0 -291.5 95.5t-104.5 252.5v231q0 160 107 259.5t276 99.5q170 0 276.5 -98.5t106.5 -260.5v-96q0 -29 -16.5 -45t-40.5 -16h-443z" />
    <glyph glyph-name="ecircumflex" unicode="&#xea;" horiz-adv-x="937" 
d="M408 1368h137q23 0 45 -22l203 -267q21 -32 -2 -43l-66 -35q-26 -16 -45 5l-193 184q-16 14 -28 2l-191 -188q-10 -10 -18 -12.5t-25 7.5l-63 37q-23 12 -2 43l205 267q18 22 43 22zM470 731q-64 0 -104 -42t-47 -101q0 -29 35 -29h248q34 0 29 39q-8 61 -52.5 97
t-108.5 36zM356 410q-41 0 -41 -35v-31q0 -66 43.5 -114t109.5 -48t108 31t62 55t30 28.5t28 -7.5l101 -64q42 -28 26 -55q-53 -96 -146 -139t-191 -43q-187 0 -291.5 95.5t-104.5 252.5v231q0 160 107 259.5t276 99.5q170 0 276.5 -98.5t106.5 -260.5v-96q0 -29 -16.5 -45
t-40.5 -16h-443z" />
    <glyph glyph-name="edieresis" unicode="&#xeb;" horiz-adv-x="937" 
d="M313.5 1016q-53.5 0 -88.5 33.5t-35 85t35 86t88.5 34.5t88 -34.5t35.5 -84.5t-34.5 -85t-89 -35zM797 1136q0 -50 -35 -85t-87 -35t-89 33.5t-37 85t36 86t88 34.5t88 -34.5t36 -84.5zM470 731q-64 0 -104 -42t-47 -101q0 -29 35 -29h248q34 0 29 39q-8 61 -52.5 97
t-108.5 36zM356 410q-41 0 -41 -35v-31q0 -66 43.5 -114t109.5 -48t108 31t62 55t30 28.5t28 -7.5l101 -64q42 -28 26 -55q-53 -96 -146 -139t-191 -43q-187 0 -291.5 95.5t-104.5 252.5v231q0 160 107 259.5t276 99.5q170 0 276.5 -98.5t106.5 -260.5v-96q0 -29 -16.5 -45
t-40.5 -16h-443z" />
    <glyph glyph-name="igrave" unicode="&#xec;" horiz-adv-x="458" 
d="M344 1077q18 -29 -10 -43l-49 -28q-39 -20 -66 8l-231 252q-26 35 8 53l123 67q26 16 49 -16zM117 877q0 33 30 32h160q33 0 33 -32v-844q0 -33 -31 -33h-159q-33 0 -33 31v846z" />
    <glyph glyph-name="iacute" unicode="&#xed;" horiz-adv-x="458" 
d="M244 1004q-22 -22 -51 -5l-58 35q-27 14 -12 43l178 293q8 14 22.5 18.5t26.5 -2.5l123 -67q23 -12 18.5 -28.5t-12.5 -24.5zM117 877q0 33 30 32h160q33 0 33 -32v-844q0 -33 -31 -33h-159q-33 0 -33 31v846z" />
    <glyph glyph-name="icircumflex" unicode="&#xee;" horiz-adv-x="458" 
d="M150 1368h137q23 0 45 -22l203 -267q21 -32 -3 -43l-65 -35q-26 -16 -45 5l-193 184q-16 14 -28 2l-191 -188q-10 -10 -18 -12.5t-25 7.5l-63 37q-23 12 -2 43l204 267q18 22 44 22zM117 877q0 33 30 32h160q33 0 33 -32v-844q0 -33 -31 -33h-159q-33 0 -33 31v846z" />
    <glyph glyph-name="idieresis" unicode="&#xef;" horiz-adv-x="458" 
d="M57.5 1016q-53.5 0 -88.5 33.5t-35 85t35 86t88.5 34.5t88 -34.5t35.5 -84.5t-34.5 -85t-89 -35zM541 1136q0 -50 -35 -85t-87 -35t-89 33.5t-37 85t36 86t88 34.5t88 -34.5t36 -84.5zM117 877q0 33 30 32h160q33 0 33 -32v-844q0 -33 -31 -33h-159q-33 0 -33 31v846z
" />
    <glyph glyph-name="eth" unicode="&#xf0;" horiz-adv-x="954" 
d="M631 467q0 205 -166 205q-78 0 -116 -48.5t-38 -113.5v-172q0 -70 42 -113t117 -43t118 42t43 114v129zM297 1165v115q2 33 43 33h22q188 -4 291 -76q10 -6 16.5 -8t16.5 8l76 78q18 18 35 0l55 -51q16 -12 -4 -33l-78 -80q-10 -10 -4 -19.5t22 -33.5q64 -98 64 -420
v-348q-8 -166 -111.5 -254t-274.5 -88t-274.5 90t-103.5 268v133q0 182 88 280.5t260 98.5q109 0 189 -55q4 -4 13 -2.5t9 29.5q0 98 -31 151q-6 12 -20 -2l-66 -68q-18 -18 -32 -2q-14 10 -27 22.5t-29 26.5t4 35l72 74q10 10 -13.5 34.5t-163.5 27.5q-44 1 -44 36z" />
    <glyph glyph-name="ntilde" unicode="&#xf1;" horiz-adv-x="983" 
d="M476 1070q-87 32 -112 32q-57 0 -102 -51q-10 -12 -18 -12.5t-23 12.5l-57 55q-16 16 -4 37q29 49 81 84t98 35q61 0 143 -34t112 -34q29 0 49.5 19.5t32.5 34.5t19 16.5t20 -7.5l69 -45q14 -10 16.5 -18t-7.5 -31q-33 -59 -85.5 -92t-98.5 -33t-133 32zM874 33
q0 -33 -30 -33h-160q-33 0 -33 31v538q0 70 -36.5 114t-115.5 44t-121 -44t-42 -112v-538q0 -33 -35 -33h-158q-33 0 -32 31v846q0 33 32 32h160q29 0 29 -30v-15q0 -16 2 -16q4 -23 22 0q35 33 95.5 53.5t113.5 20.5q162 0 235.5 -97.5t73.5 -251.5v-540z" />
    <glyph glyph-name="ograve" unicode="&#xf2;" horiz-adv-x="958" 
d="M586 1077q18 -29 -11 -43l-49 -28q-39 -20 -65 8l-232 252q-26 35 9 53l122 67q25 16 50 -16zM637 571q0 72 -41 115t-118 43t-118 -44t-41 -114v-231q0 -70 40 -114t116 -44t119 43t43 115v231zM860 338q0 -172 -103.5 -261t-278.5 -89t-278.5 92t-103.5 252v246
q0 152 106.5 250t277.5 98t275.5 -90.5t104.5 -257.5v-240z" />
    <glyph glyph-name="oacute" unicode="&#xf3;" horiz-adv-x="958" 
d="M502 1004q-22 -22 -51 -5l-58 35q-27 14 -12 43l178 293q8 14 22.5 18.5t26.5 -2.5l123 -67q23 -12 18.5 -28.5t-12.5 -24.5zM637 571q0 72 -41 115t-118 43t-118 -44t-41 -114v-231q0 -70 40 -114t116 -44t119 43t43 115v231zM860 338q0 -172 -103.5 -261t-278.5 -89
t-278.5 92t-103.5 252v246q0 152 106.5 250t277.5 98t275.5 -90.5t104.5 -257.5v-240z" />
    <glyph glyph-name="ocircumflex" unicode="&#xf4;" horiz-adv-x="958" 
d="M422 1368h137q23 0 45 -22l203 -267q21 -32 -2 -43l-66 -35q-25 -15 -45 5l-192 184q-16 14 -29 2l-190 -188q-20 -20 -43 -5l-64 37q-23 12 -2 43l205 267q18 22 43 22zM637 571q0 72 -41 115t-118 43t-118 -44t-41 -114v-231q0 -70 40 -114t116 -44t119 43t43 115v231z
M860 338q0 -172 -103.5 -261t-278.5 -89t-278.5 92t-103.5 252v246q0 152 106.5 250t277.5 98t275.5 -90.5t104.5 -257.5v-240z" />
    <glyph glyph-name="otilde" unicode="&#xf5;" horiz-adv-x="958" 
d="M484.5 1070q-85.5 32 -110.5 32q-58 0 -104 -51q-10 -12 -18 -12.5t-23 12.5l-57 55q-16 16 -4 37q29 49 81 84t98 35q61 0 143 -34t112 -34q29 0 49.5 19.5t32.5 34.5t19.5 16.5t19.5 -7.5l70 -45q14 -10 16 -18t-8 -31q-33 -59 -85 -92t-99 -33t-132.5 32zM637 571
q0 72 -41 115t-118 43t-118 -44t-41 -114v-231q0 -70 40 -114t116 -44t119 43t43 115v231zM860 338q0 -172 -103.5 -261t-278.5 -89t-278.5 92t-103.5 252v246q0 152 106.5 250t277.5 98t275.5 -90.5t104.5 -257.5v-240z" />
    <glyph glyph-name="odieresis" unicode="&#xf6;" horiz-adv-x="958" 
d="M309 1016q-53 0 -88 33.5t-35 85t35 86t88 34.5t88 -34.5t36 -84.5t-35 -85t-89 -35zM793 1136q0 -50 -35 -85t-87 -35t-89 33.5t-37 85t35.5 86t87.5 34.5t88.5 -34.5t36.5 -84.5zM637 571q0 72 -41 115t-118 43t-118 -44t-41 -114v-231q0 -70 40 -114t116 -44t119 43
t43 115v231zM860 338q0 -172 -103.5 -261t-278.5 -89t-278.5 92t-103.5 252v246q0 152 106.5 250t277.5 98t275.5 -90.5t104.5 -257.5v-240z" />
    <glyph glyph-name="divide" unicode="&#xf7;" horiz-adv-x="1017" 
d="M509 25q-60 0 -104.5 39.5t-44.5 99t44.5 101.5t103.5 42t102 -41t43 -100l2 -2q-2 -57 -44 -98t-102 -41zM655 893q0 -59 -41 -101t-104.5 -42t-106.5 40.5t-43 100t44.5 101.5t103.5 42t103 -41t44 -100zM940 506q0 -55 -53 -55h-756q-53 0 -53 53v55q0 49 53 49h756
q53 0 53 -49v-53z" />
    <glyph glyph-name="oslash" unicode="&#xf8;" horiz-adv-x="958" 
d="M484 182q62 0 106.5 42t46.5 114v199q0 4 -2 8t-8 -4l-240 -299q-18 -23 -6 -29q41 -31 103 -31zM319 371q0 -12 9 -4l252 311q10 12 -23 32t-89 20t-102.5 -44.5t-46.5 -114.5v-200zM862 578v-238q0 -165 -107 -258.5t-256 -93.5t-241 55q-10 4 -15 8t-14 -6l-39 -49
q-12 -16 -34 2l-56 49q-4 4 -7 15.5t7 21.5l37 43q12 12 4 27l-12 24q-33 66 -33 154v246q0 152 106.5 250t258.5 98q153 0 252 -64q10 -4 22 8l37 45q16 16 35 -2l51 -47q10 -6 12 -15t-8 -15l-43 -54q-13 -14 5 -38q38 -50 38 -166z" />
    <glyph glyph-name="ugrave" unicode="&#xf9;" horiz-adv-x="970" 
d="M631 1077q18 -29 -10 -43l-50 -28q-39 -20 -65 8l-232 252q-26 35 9 53l123 67q24 15 49 -16zM862 33q0 -33 -33 -33h-161q-29 0 -29 29v22q0 8 -8 8.5t-27 -17.5t-66.5 -37t-113.5 -19t-129.5 25.5t-131 96t-67.5 228.5v541q0 33 31 32h160q35 0 35 -30v-541
q0 -66 43 -112t114.5 -46t114.5 45t43 113v539q0 33 33 32h157q35 0 35 -30v-846z" />
    <glyph glyph-name="uacute" unicode="&#xfa;" horiz-adv-x="970" 
d="M492 1004q-21 -21 -52 -5l-57 35q-27 14 -12 43l178 293q8 14 22.5 18.5t26.5 -2.5l123 -67q23 -12 18.5 -28.5t-12.5 -24.5zM862 33q0 -33 -33 -33h-161q-29 0 -29 29v22q0 8 -8 8.5t-27 -17.5t-66.5 -37t-113.5 -19t-129.5 25.5t-131 96t-67.5 228.5v541q0 33 31 32
h160q35 0 35 -30v-541q0 -66 43 -112t114.5 -46t114.5 45t43 113v539q0 33 33 32h157q35 0 35 -30v-846z" />
    <glyph glyph-name="ucircumflex" unicode="&#xfb;" horiz-adv-x="970" 
d="M397 1368h138q21 0 45 -22l202 -267q21 -32 -2 -43l-65 -35q-26 -16 -45 5l-193 184q-16 14 -28 2l-191 -188q-20 -20 -43 -5l-63 37q-25 12 -2 43l204 267q18 22 43 22zM862 33q0 -33 -33 -33h-161q-29 0 -29 29v22q0 8 -8 8.5t-27 -17.5t-66.5 -37t-113.5 -19
t-129.5 25.5t-131 96t-67.5 228.5v541q0 33 31 32h160q35 0 35 -30v-541q0 -66 43 -112t114.5 -46t114.5 45t43 113v539q0 33 33 32h157q35 0 35 -30v-846z" />
    <glyph glyph-name="udieresis" unicode="&#xfc;" horiz-adv-x="970" 
d="M307 1016q-53 0 -88 33.5t-35 85t35 86t88 34.5t88 -34.5t36 -84.5t-35 -85t-89 -35zM791 1136q0 -50 -35 -85t-87 -35t-89 33.5t-37 85t35.5 86t87.5 34.5t88.5 -34.5t36.5 -84.5zM862 33q0 -33 -33 -33h-161q-29 0 -29 29v22q0 8 -8 8.5t-27 -17.5t-66.5 -37
t-113.5 -19t-129.5 25.5t-131 96t-67.5 228.5v541q0 33 31 32h160q35 0 35 -30v-541q0 -66 43 -112t114.5 -46t114.5 45t43 113v539q0 33 33 32h157q35 0 35 -30v-846z" />
    <glyph glyph-name="yacute" unicode="&#xfd;" horiz-adv-x="888" 
d="M479 1004q-22 -22 -51 -5l-57 35q-27 14 -13 43l179 293q19 32 49 16l123 -67q23 -12 18.5 -28.5t-12.5 -24.5zM432 -373h-133q-50 0 -31 54l88 284q4 16 3 25.5t-19 9.5h-23q-40 0 -51 43l-237 825q-12 45 30 45h164q35 0 49 -39l154 -630q4 -16 12 -16.5t15 16.5
l71 245l119 381q11 43 53 43h148q20 0 30.5 -14t2.5 -37l-385 -1192q-16 -43 -60 -43z" />
    <glyph glyph-name="thorn" unicode="&#xfe;" horiz-adv-x="962" 
d="M649 571q0 66 -45.5 111t-113.5 45t-112 -45t-44 -111v-233q0 -66 43 -112t114.5 -46t114.5 46t43 112v233zM874 338q0 -150 -98 -252t-252 -102q-101 0 -153 45q-18 14 -27.5 10t-9.5 -16v-361q0 -33 -33 -33h-158q-35 0 -34 31v1593q0 31 34 31h152q16 0 24.5 -5
t8.5 -26v-374q0 -33 13 -27t33 22q60 50 149 50q168 0 259.5 -99.5t91.5 -253.5v-233z" />
    <glyph glyph-name="ydieresis" unicode="&#xff;" horiz-adv-x="888" 
d="M270.5 1016q-53.5 0 -88.5 33.5t-35 85t35 86t88.5 34.5t88 -34.5t35.5 -84.5t-34.5 -85t-89 -35zM754 1136q0 -50 -35 -85t-87 -35t-89 33.5t-37 85t36 86t88 34.5t88 -34.5t36 -84.5zM432 -373h-133q-50 0 -31 54l88 284q4 16 3 25.5t-19 9.5h-23q-40 0 -51 43
l-237 825q-12 45 30 45h164q35 0 49 -39l154 -630q4 -16 12 -16.5t15 16.5l71 245l119 381q11 43 53 43h148q20 0 30.5 -14t2.5 -37l-385 -1192q-16 -43 -60 -43z" />
    <glyph glyph-name="Amacron" unicode="&#x100;" horiz-adv-x="987" 
d="M711 1391q0 -18 -6.5 -22.5t-28.5 -4.5h-434q-23 0 -31 3t-8 24v104q0 23 7 29t30 6h434q23 0 30 -6t7 -27v-106zM385 451h213q20 0 12 20l-65 287l-49 235q-2 8 -7.5 9.5t-7.5 -9.5l-110 -524q-2 -10 0 -14t14 -4zM924 0h-166q-33 0 -41 27l-47 204q-7 29 -27 29h-303
q-16 0 -20.5 -8t-8.5 -22t-10 -41t-18 -83t-19 -81t-39 -25h-157q-29 0 -34 12.5t-1 28.5l299 1194q10 29 43 29h233q14 0 24.5 -3.5t14.5 -23.5l307 -1194q4 -10 1 -26.5t-31 -16.5z" />
    <glyph glyph-name="amacron" unicode="&#x101;" horiz-adv-x="946" 
d="M442 158q78 0 116 45t39 106t-39 105.5t-117 44.5t-116.5 -43t-39.5 -106.5t39.5 -107.5t117.5 -44zM727 1106q0 -18 -6 -22.5t-29 -4.5h-434q-23 0 -31 3t-8 24v104q0 23 7 29t30 6h434q23 0 30 -6t7 -27v-106zM487 926q351 0 351 -340v-557q0 -29 -27 -29h-160
q-23 0 -22 23v16q0 31 -53 -10t-160 -41q-158 0 -248 84t-90 230t92 234.5t258 88.5q84 0 158 -43q28 -17 28 12v24q0 123 -157 123q-109 1 -223 -47q-28 -12 -37 21l-37 104q-6 14 0 25.5t46 29.5q111 52 281 52z" />
    <glyph glyph-name="Abreve" unicode="&#x102;" horiz-adv-x="987" 
d="M385 451h213q20 0 12 20l-65 287l-49 235q-2 8 -7.5 9.5t-7.5 -9.5l-110 -524q-2 -10 0 -14t14 -4zM256 1614h82q20 0 25.5 -5t6.5 -40t29.5 -68t82.5 -33q102 0 120 121q2 16 7 21.5t26 5.5h74q20 0 25 -4t3 -42q-5 -100 -70.5 -174.5t-183.5 -74.5q-119 0 -187.5 77
t-72.5 187q0 16 5 22.5t28 6.5zM924 0h-166q-33 0 -41 27l-47 204q-7 29 -27 29h-303q-16 0 -20.5 -8t-8.5 -22t-10 -41t-18 -83t-19 -81t-39 -25h-157q-29 0 -34 12.5t-1 28.5l299 1194q10 29 43 29h233q14 0 24.5 -3.5t14.5 -23.5l307 -1194q4 -10 1 -26.5t-31 -16.5z" />
    <glyph glyph-name="abreve" unicode="&#x103;" horiz-adv-x="946" 
d="M442 158q78 0 116 45t39 106t-39 105.5t-117 44.5t-116.5 -43t-39.5 -106.5t39.5 -107.5t117.5 -44zM283 1313h82q20 0 25 -5t6 -40t30 -68t83 -33q102 0 120 121q2 16 7 21.5t26 5.5h73q20 0 25.5 -4t3.5 -42q-5 -100 -70.5 -174.5t-184.5 -74.5t-187 77t-72 187
q0 16 5 22.5t28 6.5zM487 926q351 0 351 -340v-557q0 -29 -27 -29h-160q-23 0 -22 23v16q0 31 -53 -10t-160 -41q-158 0 -248 84t-90 230t92 234.5t258 88.5q84 0 158 -43q28 -17 28 12v24q0 123 -157 123q-109 1 -223 -47q-28 -12 -37 21l-37 104q-6 14 0 25.5t46 29.5
q111 52 281 52z" />
    <glyph glyph-name="Aogonek" unicode="&#x104;" horiz-adv-x="987" 
d="M385 451h213q20 0 12 20l-65 287l-49 235q-2 8 -7.5 9.5t-7.5 -9.5l-110 -524q-2 -10 0 -14t14 -4zM924 0h-97q-45 -47 -72.5 -108.5t-27.5 -98.5t9 -52t43 -15t81 24q46 24 52 24t14 -10l35 -45q10 -14 1.5 -24t-30.5 -29t-75 -40t-125 -21t-112 44t-40 96
q0 80 39 154.5t98 127.5l-47 204q-7 29 -27 29h-303q-16 0 -20.5 -8t-8.5 -22t-10 -41t-18 -83t-19 -81t-39 -25h-157q-29 0 -34 12.5t-1 28.5l299 1194q10 29 43 29h233q14 0 24.5 -3.5t14.5 -23.5l307 -1194q4 -10 1 -26.5t-31 -16.5z" />
    <glyph glyph-name="aogonek" unicode="&#x105;" horiz-adv-x="946" 
d="M440 459q-76 0 -115.5 -43t-39.5 -106.5t40.5 -107.5t118.5 -44t116 46t37 106t-41 104.5t-116 44.5zM487 926q351 0 351 -340v-557q0 -29 -27 -29h-78q-45 -47 -72.5 -108.5t-27.5 -98.5t9 -52t44 -15t80 24t52 24t13 -10l35 -45q10 -14 2 -24t-30 -29t-75.5 -40
t-125.5 -21t-112 44t-40 96q0 78 39.5 153.5t87.5 119.5l17 15v6q0 31 -53 -10t-160 -41q-158 0 -248 84t-90 230t92 234.5t258 88.5q84 0 158 -43q28 -17 28 12v24q0 123 -157 123q-109 1 -223 -47q-28 -12 -37 21l-37 104q-6 14 0 25.5t46 29.5q111 52 281 52z" />
    <glyph glyph-name="Cacute" unicode="&#x106;" horiz-adv-x="966" 
d="M807 1528q16 -18 7 -32.5t-19 -18.5l-316 -160q-26 -14 -49 14l-41 53q-20 25 6 46l248 188q57 42 84 6zM121 352v568q0 165 113 264.5t284 99.5q106 0 203.5 -38t175.5 -148q24 -29 -10 -54l-111 -83q-16 -10 -31.5 -4t-23.5 20q-70 102 -195 102q-86 0 -130 -50
t-44 -118v-559q0 -66 45 -111.5t117 -45.5q124 0 205 96l17 17q16 16 36 3l123 -75q34 -20 16 -50q-131 -198 -373 -198q-192 0 -304.5 98.5t-112.5 265.5z" />
    <glyph glyph-name="cacute" unicode="&#x107;" horiz-adv-x="864" 
d="M463 1004q-22 -22 -51 -5l-58 35q-27 14 -12 43l178 293q8 14 22.5 18.5t26.5 -2.5l123 -67q23 -12 19 -28.5t-13 -24.5zM473 -12q-176 0 -282.5 95t-106.5 255v231q0 163 109.5 259t279.5 96q227 0 342 -191q14 -35 -14 -53l-115 -66q-27 -16 -39.5 -4t-30.5 44
t-60 54.5t-98 22.5t-102.5 -45t-46.5 -111v-239q0 -66 46.5 -109t102.5 -43q118 0 165 86q10 18 23 30.5t40 -3.5l115 -64q29 -18 14 -55q-119 -190 -342 -190z" />
    <glyph glyph-name="Ccircumflex" unicode="&#x108;" horiz-adv-x="966" 
d="M461 1640h137q25 0 45 -20l203 -234q22 -27 -2 -36l-66 -31q-27 -14 -45 4l-192 150q-14 12 -29 2l-190 -154q-17 -17 -43 -4l-64 33q-24 9 -2 36l205 234q16 20 43 20zM121 352v568q0 165 113 264.5t284 99.5q106 0 203.5 -38t175.5 -148q24 -29 -10 -54l-111 -83
q-16 -10 -31.5 -4t-23.5 20q-70 102 -195 102q-86 0 -130 -50t-44 -118v-559q0 -66 45 -111.5t117 -45.5q124 0 205 96l17 17q16 16 36 3l123 -75q34 -20 16 -50q-131 -198 -373 -198q-192 0 -304.5 98.5t-112.5 265.5z" />
    <glyph glyph-name="ccircumflex" unicode="&#x109;" horiz-adv-x="864" 
d="M408 1368h137q23 0 45 -22l203 -267q21 -32 -2 -43l-66 -35q-26 -16 -45 5l-193 184q-16 14 -28 2l-191 -188q-10 -10 -18 -12.5t-25 7.5l-63 37q-23 12 -2 43l205 267q18 22 43 22zM473 -12q-176 0 -282.5 95t-106.5 255v231q0 163 109.5 259t279.5 96q227 0 342 -191
q14 -35 -14 -53l-115 -66q-27 -16 -39.5 -4t-30.5 44t-60 54.5t-98 22.5t-102.5 -45t-46.5 -111v-239q0 -66 46.5 -109t102.5 -43q118 0 165 86q10 18 23 30.5t40 -3.5l115 -64q29 -18 14 -55q-119 -190 -342 -190z" />
    <glyph glyph-name="Cdotaccent" unicode="&#x10a;" horiz-adv-x="966" 
d="M653 1492q0 -50 -34.5 -85t-88 -35t-89 33t-35.5 84t35.5 87t87.5 36t88 -35t36 -85zM121 352v568q0 165 113 264.5t284 99.5q106 0 203.5 -38t175.5 -148q24 -29 -10 -54l-111 -83q-16 -10 -31.5 -4t-23.5 20q-70 102 -195 102q-86 0 -130 -50t-44 -118v-559
q0 -66 45 -111.5t117 -45.5q124 0 205 96l17 17q16 16 36 3l123 -75q34 -20 16 -50q-131 -198 -373 -198q-192 0 -304.5 98.5t-112.5 265.5z" />
    <glyph glyph-name="cdotaccent" unicode="&#x10b;" horiz-adv-x="864" 
d="M598 1144q0 -50 -35 -85t-88 -35t-89 33t-36 84t36 87t88 36t88 -35t36 -85zM473 -12q-176 0 -282.5 95t-106.5 255v231q0 163 109.5 259t279.5 96q227 0 342 -191q14 -35 -14 -53l-115 -66q-27 -16 -39.5 -4t-30.5 44t-60 54.5t-98 22.5t-102.5 -45t-46.5 -111v-239
q0 -66 46.5 -109t102.5 -43q118 0 165 86q10 18 23 30.5t40 -3.5l115 -64q29 -18 14 -55q-119 -190 -342 -190z" />
    <glyph glyph-name="Ccaron" unicode="&#x10c;" horiz-adv-x="966" 
d="M594 1313h-137q-27 0 -43 20l-205 234q-21 27 2 37l63 32q26 13 43 -4l191 -153q14 -10 29 2l192 149q18 18 45 4l66 -30q24 -9 2 -37l-203 -234q-20 -20 -45 -20zM121 352v568q0 165 113 264.5t284 99.5q106 0 203.5 -38t175.5 -148q24 -29 -10 -54l-111 -83
q-16 -10 -31.5 -4t-23.5 20q-70 102 -195 102q-86 0 -130 -50t-44 -118v-559q0 -66 45 -111.5t117 -45.5q124 0 205 96l17 17q16 16 36 3l123 -75q34 -20 16 -50q-131 -198 -373 -198q-192 0 -304.5 98.5t-112.5 265.5z" />
    <glyph glyph-name="ccaron" unicode="&#x10d;" horiz-adv-x="864" 
d="M543 993h-137q-23 0 -44 23l-204 266q-21 32 2 43l63 37q24 15 43 -4l191 -189q12 -14 28 2l193 185q20 20 45 4l65 -35q24 -12 3 -43l-203 -266q-23 -23 -45 -23zM473 -12q-176 0 -282.5 95t-106.5 255v231q0 163 109.5 259t279.5 96q227 0 342 -191q14 -35 -14 -53
l-115 -66q-27 -16 -39.5 -4t-30.5 44t-60 54.5t-98 22.5t-102.5 -45t-46.5 -111v-239q0 -66 46.5 -109t102.5 -43q118 0 165 86q10 18 23 30.5t40 -3.5l115 -64q29 -18 14 -55q-119 -190 -342 -190z" />
    <glyph glyph-name="Dcaron" unicode="&#x10e;" horiz-adv-x="1081" 
d="M553 1313h-137q-27 0 -43 20l-205 234q-21 27 2 37l63 32q26 13 43 -4l191 -153q14 -10 29 2l192 149q18 18 45 4l66 -30q24 -9 2 -37l-203 -234q-20 -20 -45 -20zM735 885q0 176 -180 176h-158q-23 0 -29 -9.5t-6 -25.5v-786q0 -33 33 -33h168q172 0 172 176v502zM168 0
q-39 0 -39 35v1194q0 35 39 35h414q195 0 290 -100.5t95 -276.5v-504q0 -180 -95.5 -281.5t-283.5 -101.5h-420z" />
    <glyph glyph-name="dcaron" unicode="&#x10f;" horiz-adv-x="1150" 
d="M466 731q-77 0 -116 -46t-39 -112v-231q0 -68 39 -113t114 -45t120 45t45 111v231q0 66 -43 113t-120 47zM854 31q0 -31 -33 -31h-153q-33 0 -33 29v16q0 25 -57 -16t-153 -41q-175 0 -256 95t-81 257v231q0 154 91 253.5t253 99.5q101 0 160 -45q37 -25 37 6v387
q0 33 33 33h157q35 0 35 -31v-1243zM1055 920h-54q-29 0 -33.5 20.5t-4.5 38.5l22 274q5 56 55 56h119q69 0 49 -68l-96 -278q-10 -27 -22.5 -35t-34.5 -8z" />
    <glyph glyph-name="Dcroat" unicode="&#x110;" horiz-adv-x="1081" 
d="M735 885q0 176 -180 176h-158q-23 0 -29 -9.5t-6 -25.5v-303q2 -8 19 -8h133q31 0 31 -31v-92q0 -29 -29 -29h-133q-16 0 -21 -10v-313q0 -33 33 -33h168q172 0 172 176v502zM109 715q20 0 20 26v488q0 35 39 35h414q195 0 290 -100.5t95 -276.5v-504
q0 -180 -95.5 -281.5t-283.5 -101.5h-420q-39 0 -39 35v502q0 12 -2 19t-18 7h-54q-18 0 -23 6t-5 23v92q0 16 5 23.5t21 7.5h56z" />
    <glyph glyph-name="dcroat" unicode="&#x111;" horiz-adv-x="958" 
d="M471 731q-72 0 -116 -46t-44 -112v-231q0 -68 46 -113t114 -45t113 45t45 111v233q0 66 -43 112t-115 46zM629 995q0 14 -5.5 21.5t-23.5 7.5h-176q-29 0 -29 31v63q0 27 31 27h174q29 0 29 29v98q0 33 33 33h157q35 0 35 -31v-100q0 -29 29 -29h47q27 0 26 -29v-63
q0 -29 -28 -29h-45q-23 0 -26 -9t-3 -20v-964q0 -31 -33 -31h-151q-31 0 -35 29v18q0 23 -57 -18t-143 -41q-165 0 -256 97.5t-91 254.5v231q0 152 96.5 252.5t259.5 100.5q89 0 148 -45q37 -25 37 6v110z" />
    <glyph glyph-name="Emacron" unicode="&#x112;" horiz-adv-x="958" 
d="M766 1391q0 -18 -6 -22.5t-29 -4.5h-434q-23 0 -31 3t-8 24v104q0 23 7 29t30 6h434q23 0 30 -6t7 -27v-106zM844 1264q35 0 35 -33v-133q0 -37 -33 -37h-457q-20 0 -26.5 -6t-6.5 -21v-246q0 -35 33 -34h377q33 0 33 -37v-131q0 -35 -33 -35h-379q-18 0 -24.5 -7
t-6.5 -24v-282q0 -18 8.5 -24.5t28.5 -6.5h463q33 0 33 -35v-135q0 -37 -33 -37h-694q-37 0 -37 35v1194q0 35 37 35h682z" />
    <glyph glyph-name="emacron" unicode="&#x113;" horiz-adv-x="937" 
d="M729 1106q0 -18 -6 -22.5t-29 -4.5h-434q-23 0 -31 3t-8 24v104q0 23 7.5 29t29.5 6h434q23 0 30 -6t7 -27v-106zM470 731q-64 0 -104 -42t-47 -101q0 -29 35 -29h248q34 0 29 39q-8 61 -52.5 97t-108.5 36zM356 410q-41 0 -41 -35v-31q0 -66 43.5 -114t109.5 -48t108 31
t62 55t30 28.5t28 -7.5l101 -64q42 -28 26 -55q-53 -96 -146 -139t-191 -43q-187 0 -291.5 95.5t-104.5 252.5v231q0 160 107 259.5t276 99.5q170 0 276.5 -98.5t106.5 -260.5v-96q0 -29 -16.5 -45t-40.5 -16h-443z" />
    <glyph glyph-name="Ebreve" unicode="&#x114;" horiz-adv-x="958" 
d="M258 1614h82q20 0 25.5 -5t6.5 -40t29.5 -68t82.5 -33q102 0 120 121q2 16 7 21.5t26 5.5h74q20 0 25 -4t3 -42q-5 -102 -70.5 -175.5t-183.5 -73.5t-187 77t-73 187q0 16 5.5 22.5t27.5 6.5zM844 1264q35 0 35 -33v-133q0 -37 -33 -37h-457q-20 0 -26.5 -6t-6.5 -21
v-246q0 -35 33 -34h377q33 0 33 -37v-131q0 -35 -33 -35h-379q-18 0 -24.5 -7t-6.5 -24v-282q0 -18 8.5 -24.5t28.5 -6.5h463q33 0 33 -35v-135q0 -37 -33 -37h-694q-37 0 -37 35v1194q0 35 37 35h682z" />
    <glyph glyph-name="ebreve" unicode="&#x115;" horiz-adv-x="937" 
d="M470 731q-64 0 -104 -42t-47 -101q0 -29 35 -29h248q34 0 29 39q-8 61 -52.5 97t-108.5 36zM250 1313h82q20 0 25 -5t6 -40t30 -68t83 -33q102 0 120 121q2 16 7 21.5t26 5.5h73q20 0 25.5 -4t3.5 -42q-5 -100 -70.5 -174.5t-184.5 -74.5t-187 77t-72 187q0 16 5 22.5
t28 6.5zM356 410q-41 0 -41 -35v-31q0 -66 43.5 -114t109.5 -48t108 31t62 55t30 28.5t28 -7.5l101 -64q42 -28 26 -55q-53 -96 -146 -139t-191 -43q-187 0 -291.5 95.5t-104.5 252.5v231q0 160 107 259.5t276 99.5q170 0 276.5 -98.5t106.5 -260.5v-96q0 -29 -16.5 -45
t-40.5 -16h-443z" />
    <glyph glyph-name="Edotaccent" unicode="&#x116;" horiz-adv-x="958" 
d="M631 1451q0 -50 -35 -85t-88 -35t-89 33t-36 84t36 87t88 36t88 -35t36 -85zM844 1264q35 0 35 -33v-133q0 -37 -33 -37h-457q-20 0 -26.5 -6t-6.5 -21v-246q0 -35 33 -34h377q33 0 33 -37v-131q0 -35 -33 -35h-379q-18 0 -24.5 -7t-6.5 -24v-282q0 -18 8.5 -24.5
t28.5 -6.5h463q33 0 33 -35v-135q0 -37 -33 -37h-694q-37 0 -37 35v1194q0 35 37 35h682z" />
    <glyph glyph-name="edotaccent" unicode="&#x117;" horiz-adv-x="937" 
d="M608 1144q0 -50 -34.5 -85t-88 -35t-89.5 33t-36 84t36 87t88 36t88 -35t36 -85zM470 731q-64 0 -104 -42t-47 -101q0 -29 35 -29h248q34 0 29 39q-8 61 -52.5 97t-108.5 36zM356 410q-41 0 -41 -35v-31q0 -66 43.5 -114t109.5 -48t108 31t62 55t30 28.5t28 -7.5l101 -64
q42 -28 26 -55q-53 -96 -146 -139t-191 -43q-187 0 -291.5 95.5t-104.5 252.5v231q0 160 107 259.5t276 99.5q170 0 276.5 -98.5t106.5 -260.5v-96q0 -29 -16.5 -45t-40.5 -16h-443z" />
    <glyph glyph-name="Eogonek" unicode="&#x118;" horiz-adv-x="958" 
d="M844 1264q35 0 35 -33v-133q0 -37 -33 -37h-457q-20 0 -26.5 -6t-6.5 -21v-246q0 -35 33 -34h377q33 0 33 -37v-131q0 -35 -33 -35h-379q-18 0 -24.5 -7t-6.5 -24v-282q0 -18 8.5 -24.5t28.5 -6.5h463q33 0 33 -35v-135q0 -37 -33 -37h-84q-45 -47 -72.5 -108.5
t-27.5 -98.5t9 -52t44 -15t80 24t52 24t13 -10l35 -45q10 -14 1.5 -24t-30.5 -29t-75 -40t-125 -21t-112 44t-40 109t33 130t76 112h-471q-37 0 -37 35v1194q0 35 37 35h682z" />
    <glyph glyph-name="eogonek" unicode="&#x119;" horiz-adv-x="937" 
d="M470 731q-64 0 -104 -42t-47 -101q0 -29 35 -29h248q34 0 29 39q-8 61 -52.5 97t-108.5 36zM395 -202q0 85 82 190q-177 0 -282 95.5t-105 252.5v231q0 160 107 259.5t276 99.5q170 0 276.5 -98.5t106.5 -260.5v-96q0 -29 -16.5 -45t-40.5 -16h-443q-41 0 -41 -35v-31
q0 -66 43.5 -114t109.5 -48t108 31t62 55t30 28.5t28 -7.5l101 -64q42 -28 26 -55q-66 -112 -186 -156q-43 -47 -68.5 -106.5t-25.5 -95.5t9 -51t43 -15t80 24t53 25q7 0 13 -10l35 -45q10 -14 2 -25t-30 -29t-76 -39.5t-126 -21.5t-111.5 44t-39.5 129z" />
    <glyph glyph-name="Ecaron" unicode="&#x11a;" horiz-adv-x="958" 
d="M559 1313h-137q-27 0 -43 20l-205 234q-21 27 2 37l64 32q25 12 43 -4l190 -153q14 -10 29 2l192 149q18 18 45 4l66 -30q24 -9 2 -37l-203 -234q-20 -20 -45 -20zM844 1264q35 0 35 -33v-133q0 -37 -33 -37h-457q-20 0 -26.5 -6t-6.5 -21v-246q0 -35 33 -34h377
q33 0 33 -37v-131q0 -35 -33 -35h-379q-18 0 -24.5 -7t-6.5 -24v-282q0 -18 8.5 -24.5t28.5 -6.5h463q33 0 33 -35v-135q0 -37 -33 -37h-694q-37 0 -37 35v1194q0 35 37 35h682z" />
    <glyph glyph-name="ecaron" unicode="&#x11b;" horiz-adv-x="937" 
d="M470 731q-64 0 -104 -42t-47 -101q0 -29 35 -29h248q34 0 29 39q-8 61 -52.5 97t-108.5 36zM551 993h-137q-25 0 -43 23l-205 266q-21 32 2 43l63 37q24 15 43 -4l191 -189q12 -14 29 2l192 185q20 20 45 4l66 -35q23 -12 2 -43l-203 -266q-23 -23 -45 -23zM356 410
q-41 0 -41 -35v-31q0 -66 43.5 -114t109.5 -48t108 31t62 55t30 28.5t28 -7.5l101 -64q42 -28 26 -55q-53 -96 -146 -139t-191 -43q-187 0 -291.5 95.5t-104.5 252.5v231q0 160 107 259.5t276 99.5q170 0 276.5 -98.5t106.5 -260.5v-96q0 -29 -16.5 -45t-40.5 -16h-443z" />
    <glyph glyph-name="Gcircumflex" unicode="&#x11c;" horiz-adv-x="1048" 
d="M457 1640h137q25 0 45 -20l203 -234q22 -27 -2 -36l-66 -31q-27 -14 -45 4l-192 150q-14 12 -29 2l-191 -154q-16 -16 -43 -4l-63 33q-24 9 -2 36l205 234q16 20 43 20zM752 1240.5q102 -43.5 161 -148.5q21 -32 -10 -52l-117 -84q-26 -13 -55 21q-74 100 -196 100
q-84 0 -133.5 -49t-49.5 -121v-555q0 -72 51.5 -114.5t129.5 -42.5t128 43t50 122v127q0 23 -21 23h-110q-37 0 -37 33v133q0 33 37 33h321q41 0 41 -33v-328q0 -168 -115.5 -264t-294 -96t-294 96t-115.5 262v578q0 162 85 235.5t158.5 99t178.5 25.5t207 -43.5z" />
    <glyph glyph-name="gcircumflex" unicode="&#x11d;" horiz-adv-x="962" 
d="M604 574q0 60 -42 105.5t-114 45.5t-116.5 -46t-44.5 -105.5t40.5 -103.5t116.5 -44t118 44t42 104zM387 1368h137q23 0 45 -22l203 -267q21 -32 -2 -43l-65 -35q-25 -16 -46 5l-192 184q-16 14 -29 2l-190 -188q-20 -20 -43 -5l-64 37q-23 12 -2 43l205 267q18 22 43 22
zM946 762q0 -16 -5 -22.5t-39 -2.5t-64 -2q-31 -6 -36 -12t-1 -16q59 -129 -4 -259.5t-170 -169t-187 -38.5h-49q-41 -2 -70.5 -33t-37.5 -55t-3 -27.5t59 7.5t145 11q195 0 316.5 -67.5t121.5 -212.5q0 -78 -55.5 -153.5t-141.5 -117.5q-52 -21 -68 2l-63 97q-20 27 26 55
q78 49 78 117q0 49 -60 73.5t-116 24.5q-141 -1 -261 -19t-159 4.5t-39 157.5q0 47 31 102.5t82 88.5q23 14 4 31q-112 94 -112 247t112 252t252 99q141 0 246 -70q20 -14 37 0q94 68 196 68q35 0 35 -35v-125z" />
    <glyph glyph-name="Gbreve" unicode="&#x11e;" horiz-adv-x="1048" 
d="M301 1614h82q20 0 25.5 -5t6.5 -40t29.5 -68t82.5 -33q102 0 120 121q2 16 7 21.5t26 5.5h74q20 0 25 -4t3 -42q-5 -102 -70.5 -175.5t-183.5 -73.5t-187 77t-73 187q0 16 5.5 22.5t27.5 6.5zM752 1240.5q102 -43.5 161 -148.5q21 -32 -10 -52l-117 -84q-26 -13 -55 21
q-74 100 -196 100q-84 0 -133.5 -49t-49.5 -121v-555q0 -72 51.5 -114.5t129.5 -42.5t128 43t50 122v127q0 23 -21 23h-110q-37 0 -37 33v133q0 33 37 33h321q41 0 41 -33v-328q0 -168 -115.5 -264t-294 -96t-294 96t-115.5 262v578q0 162 85 235.5t158.5 99t178.5 25.5
t207 -43.5z" />
    <glyph glyph-name="gbreve" unicode="&#x11f;" horiz-adv-x="962" 
d="M604 574q0 60 -42 105.5t-114 45.5t-116.5 -46t-44.5 -105.5t40.5 -103.5t116.5 -44t118 44t42 104zM229 1313h82q20 0 25.5 -5t6.5 -40t30 -68t83 -33q101 0 119 121q2 16 7.5 21.5t25.5 5.5h74q20 0 25.5 -4t3.5 -42q-5 -101 -71 -175t-184 -74t-186.5 76.5
t-72.5 187.5q0 16 5 22.5t27 6.5zM946 762q0 -16 -5 -22.5t-39 -2.5t-64 -2q-31 -6 -36 -12t-1 -16q59 -129 -4 -259.5t-170 -169t-187 -38.5h-49q-41 -2 -70.5 -33t-37.5 -55t-3 -27.5t59 7.5t145 11q195 0 316.5 -67.5t121.5 -212.5q0 -78 -55.5 -153.5t-141.5 -117.5
q-52 -21 -68 2l-63 97q-20 27 26 55q78 49 78 117q0 49 -60 73.5t-116 24.5q-141 -1 -261 -19t-159 4.5t-39 157.5q0 47 31 102.5t82 88.5q23 14 4 31q-112 94 -112 247t112 252t252 99q141 0 246 -70q20 -14 37 0q94 68 196 68q35 0 35 -35v-125z" />
    <glyph glyph-name="Gdotaccent" unicode="&#x120;" horiz-adv-x="1048" 
d="M653 1451q0 -50 -34.5 -85t-88 -35t-89 33t-35.5 84t35.5 87t87.5 36t88 -35t36 -85zM752 1240.5q102 -43.5 161 -148.5q21 -32 -10 -52l-117 -84q-26 -13 -55 21q-74 100 -196 100q-84 0 -133.5 -49t-49.5 -121v-555q0 -72 51.5 -114.5t129.5 -42.5t128 43t50 122v127
q0 23 -21 23h-110q-37 0 -37 33v133q0 33 37 33h321q41 0 41 -33v-328q0 -168 -115.5 -264t-294 -96t-294 96t-115.5 262v578q0 162 85 235.5t158.5 99t178.5 25.5t207 -43.5z" />
    <glyph glyph-name="gdotaccent" unicode="&#x121;" horiz-adv-x="962" 
d="M590 1144q0 -50 -35 -85t-88 -35t-89 33t-36 84t36 87t88 36t88 -35t36 -85zM604 574q0 60 -42 105.5t-114 45.5t-116.5 -46t-44.5 -105.5t40.5 -103.5t116.5 -44t118 44t42 104zM946 762q0 -16 -5 -22.5t-39 -2.5t-64 -2q-31 -6 -36 -12t-1 -16q59 -129 -4 -259.5
t-170 -169t-187 -38.5h-49q-41 -2 -70.5 -33t-37.5 -55t-3 -27.5t59 7.5t145 11q195 0 316.5 -67.5t121.5 -212.5q0 -78 -55.5 -153.5t-141.5 -117.5q-52 -21 -68 2l-63 97q-20 27 26 55q78 49 78 117q0 49 -60 73.5t-116 24.5q-141 -1 -261 -19t-159 4.5t-39 157.5
q0 47 31 102.5t82 88.5q23 14 4 31q-112 94 -112 247t112 252t252 99q141 0 246 -70q20 -14 37 0q94 68 196 68q35 0 35 -35v-125z" />
    <glyph glyph-name="Gcommaaccent" unicode="&#x122;" horiz-adv-x="1048" 
d="M479 -463h-53q-29 0 -34 20.5t-5 39.5l23 274q5 55 55 55h119q39 0 48 -18.5t1 -48.5l-96 -279q-10 -27 -22.5 -35t-35.5 -8zM752 1240.5q102 -43.5 161 -148.5q21 -32 -10 -52l-117 -84q-26 -13 -55 21q-74 100 -196 100q-84 0 -133.5 -49t-49.5 -121v-555
q0 -72 51.5 -114.5t129.5 -42.5t128 43t50 122v127q0 23 -21 23h-110q-37 0 -37 33v133q0 33 37 33h321q41 0 41 -33v-328q0 -168 -115.5 -264t-294 -96t-294 96t-115.5 262v578q0 162 85 235.5t158.5 99t178.5 25.5t207 -43.5z" />
    <glyph glyph-name="gcommaaccent" unicode="&#x123;" horiz-adv-x="962" 
d="M498 1413h53q29 0 34 -20.5t5 -38.5l-23 -275q-5 -55 -55 -55h-119q-39 0 -48 18.5t-1 49.5l96 278q10 27 22.5 35t35.5 8zM604 574q0 60 -42 105.5t-114 45.5t-116.5 -46t-44.5 -105.5t40.5 -103.5t116.5 -44t118 44t42 104zM946 762q0 -16 -5 -22.5t-39 -2.5t-64 -2
q-31 -6 -36 -12t-1 -16q59 -129 -4 -259.5t-170 -169t-187 -38.5h-49q-41 -2 -70.5 -33t-37.5 -55t-3 -27.5t59 7.5t145 11q195 0 316.5 -67.5t121.5 -212.5q0 -78 -55.5 -153.5t-141.5 -117.5q-52 -21 -68 2l-63 97q-20 27 26 55q78 49 78 117q0 49 -60 73.5t-116 24.5
q-141 -1 -261 -19t-159 4.5t-39 157.5q0 47 31 102.5t82 88.5q23 14 4 31q-112 94 -112 247t112 252t252 99q141 0 246 -70q20 -14 37 0q94 68 196 68q35 0 35 -35v-125z" />
    <glyph glyph-name="Hcircumflex" unicode="&#x124;" horiz-adv-x="1126" 
d="M483 1640h138q23 0 45 -20l202 -234q22 -28 -2 -36l-65 -31q-27 -14 -45 4l-193 150q-14 12 -28 2l-191 -154q-17 -17 -43 -4l-63 33q-26 10 -2 36l204 234q16 20 43 20zM326 1264q36 0 36 -29v-449q0 -23 5.5 -29.5t23.5 -6.5h342q18 0 25.5 7t7.5 29v447q0 31 35 31
h157q39 0 39 -29v-1202q0 -33 -36 -33h-158q-37 0 -37 31v481q0 35 -35 35h-334q-23 0 -29 -9.5t-6 -25.5v-479q0 -33 -36 -33h-158q-39 0 -39 31v1202q0 31 39 31h158z" />
    <glyph glyph-name="hcircumflex" unicode="&#x125;" horiz-adv-x="985" 
d="M170 1640h137q25 0 45 -20l203 -234q22 -27 -2 -36l-66 -31q-26 -13 -45 4l-192 150q-14 12 -29 2l-190 -154q-17 -17 -43 -4l-64 33q-24 9 -2 36l205 234q16 20 43 20zM143 1305h160q33 0 33 -33v-387q0 -33 36 -9q74 48 168 48q168 0 252.5 -95t84.5 -258v-538
q0 -33 -33 -33h-158q-35 0 -35 31v540q0 68 -38.5 113t-114.5 45t-118 -47t-42 -115v-534q0 -33 -33 -33h-160q-33 0 -32 31l1 127l-1 1114q0 33 30 33z" />
    <glyph glyph-name="Hbar" unicode="&#x126;" horiz-adv-x="1148" 
d="M774 946q0 31 -24 31h-357q-22 0 -22 -31v-164q0 -23 5 -27.5t23 -4.5h342q18 0 25.5 6t7.5 26v164zM371 1139q0 -31 20 -31h361q22 0 22 31v94q0 31 35 31h156q39 0 39 -29v-98q0 -29 26 -29h49q31 0 31 -31v-67q0 -33 -33 -33h-47q-26 0 -26 -31v-913q0 -33 -37 -33
h-156q-37 0 -37 31v483q0 33 -35 33h-333q-23 0 -29 -7.5t-6 -23.5v-483q0 -33 -37 -33h-158q-39 0 -39 31v915q0 14 -4 22.5t-20 8.5h-50q-18 0 -23 8t-5 25v67q0 31 26 31h52q24 0 24 29v96q0 31 39 31h158q37 0 37 -29v-96z" />
    <glyph glyph-name="hbar" unicode="&#x127;" horiz-adv-x="985" 
d="M113 952q0 10 -3.5 19.5t-25.5 9.5h-35q-33 0 -33 29v84q0 29 31 28h37q29 0 29 29v121q0 33 30 33h160q33 0 33 -31v-123q0 -29 29 -29h262q31 0 30 -26v-84q0 -31 -28 -31h-264q-18 0 -23.5 -7t-5.5 -22v-127q0 -35 44 -5q62 42 190 42q64 0 186.5 -52t122.5 -298v-479
q0 -33 -31 -33h-162q-33 0 -33 31v479q0 68 -38.5 113t-114.5 45t-119 -47.5t-43 -114.5v-473q0 -33 -31 -33h-160q-35 0 -34 31v921z" />
    <glyph glyph-name="Itilde" unicode="&#x128;" horiz-adv-x="526" 
d="M252.5 1418q-83.5 32 -110.5 32q-61 0 -105 -51q-18 -21 -41 0l-57 55q-16 16 -5 37q29 49 81.5 84t98.5 35q58 0 144 -34t113 -34t47 19.5t32 34.5t19.5 16.5t19.5 -6.5l70 -45q14 -10 16 -18.5t-8 -31.5q-33 -59 -85 -92t-99 -33t-130.5 32zM180 0q-37 0 -37 31v1202
q0 31 37 31h160q37 0 37 -31v-1200q0 -33 -37 -33h-160z" />
    <glyph glyph-name="itilde" unicode="&#x129;" horiz-adv-x="548" 
d="M281.5 1070q-85.5 32 -110.5 32q-59 0 -103 -51q-18 -21 -41 0l-58 55q-16 16 -4 37q29 49 81 84t98 35q60 0 143.5 -34t112.5 -34t49 19.5t32 34.5t19.5 16.5t19.5 -7.5l70 -45q14 -10 16 -18t-8 -31q-33 -59 -85 -92t-99 -33t-132.5 32zM168 877q0 33 31 32h159
q33 0 33 -32v-844q0 -33 -31 -33h-159q-33 0 -33 31v846z" />
    <glyph glyph-name="Imacron" unicode="&#x12a;" horiz-adv-x="526" 
d="M506 1391q0 -18 -6 -22.5t-29 -4.5h-434q-23 0 -31 3t-8 24v104q0 23 7 29t30 6h434q23 0 30 -6t7 -27v-106zM180 0q-37 0 -37 31v1202q0 31 37 31h160q37 0 37 -31v-1200q0 -33 -37 -33h-160z" />
    <glyph glyph-name="imacron" unicode="&#x12b;" horiz-adv-x="503" 
d="M508 1106q0 -18 -6 -22.5t-29 -4.5h-434q-23 0 -31 3t-8 24v104q0 23 7 29t30 6h434q23 0 30 -6t7 -27v-106zM137 877q0 33 31 32h160q33 0 32 -32v-844q0 -33 -30 -33h-160q-33 0 -33 31v846z" />
    <glyph glyph-name="Ibreve" unicode="&#x12c;" horiz-adv-x="555" 
d="M61 1614h82q20 0 25.5 -5t6.5 -40t30 -68t83 -33q100 0 120 121q2 16 7 21.5t25 5.5h74q20 0 25.5 -4t3.5 -42q-5 -101 -71 -175t-185 -74t-186.5 77t-71.5 187q0 16 5 22.5t27 6.5zM213 0q-37 0 -37 31v1202q0 31 37 31h160q37 0 37 -31v-1200q0 -33 -37 -33h-160z" />
    <glyph glyph-name="ibreve" unicode="&#x12d;" horiz-adv-x="509" 
d="M35 1325h82q20 0 25 -5t6 -40t30 -67.5t83 -32.5q102 0 120 120q2 16 7 21.5t26 5.5h73q20 0 25.5 -4t3.5 -42q-5 -100 -70.5 -174.5t-184.5 -74.5t-187 77t-72 187q0 16 5 22.5t28 6.5zM143 877q0 33 31 32h160q33 0 33 -32v-844q0 -33 -31 -33h-160q-33 0 -33 31v846z
" />
    <glyph glyph-name="Iogonek" unicode="&#x12e;" horiz-adv-x="526" 
d="M182 -222q0 -52 47 -52q40 0 86 24t53 24t13 -10l35 -45q10 -14 2 -24t-31 -29t-76 -40t-125 -21t-111.5 44t-39.5 111t34.5 134t82.5 114q-8 6 -9 23v1202q0 31 37 31h160q37 0 37 -31v-1200q0 -33 -37 -33h-57q-45 -47 -73 -108.5t-28 -113.5z" />
    <glyph glyph-name="iogonek" unicode="&#x12f;" horiz-adv-x="458" 
d="M362 1156q0 -52 -39 -91t-93 -39t-93 38t-39 91t38 90t92 37t94 -37t40 -89zM117 877q0 33 30 32h160q33 0 33 -32v-844q0 -33 -31 -33h-53q-45 -47 -72.5 -108.5t-27.5 -98.5t9 -52t44 -15t80 24t52 24t13 -10l35 -45q10 -14 1.5 -24t-30.5 -29t-75 -40t-125 -21
t-112 44t-40 111t35 134t82 114q-8 6 -8 23v846z" />
    <glyph glyph-name="Idotaccent" unicode="&#x130;" horiz-adv-x="526" 
d="M389 1492q0 -50 -35 -85t-88 -35t-89 33t-36 84t36 87t88 36t88 -35t36 -85zM180 0q-37 0 -37 31v1202q0 31 37 31h160q37 0 37 -31v-1200q0 -33 -37 -33h-160z" />
    <glyph glyph-name="dotlessi" unicode="&#x131;" horiz-adv-x="458" 
d="M117 877q0 33 30 32h160q33 0 33 -32v-844q0 -33 -31 -33h-159q-33 0 -33 31v846z" />
    <glyph glyph-name="IJ" unicode="&#x132;" horiz-adv-x="1026" 
d="M664 213v1024q0 27 30 27h168q31 0 31 -27v-1042q0 -201 -91 -329t-302 -177q-44 -11 -51 26l-41 127q-4 16 -1 27t45 29q109 46 160.5 115.5t51.5 199.5zM170 0q-37 0 -37 31v1202q0 31 37 31h160q37 0 37 -31v-1200q0 -33 -37 -33h-160z" />
    <glyph glyph-name="ij" unicode="&#x133;" horiz-adv-x="911" 
d="M793 -106q0 -187 -97.5 -230t-195.5 -43t-122 18.5t-20 45.5l21 118q7 34 49 28q42 -7 73 -6q68 2 68 95v957q0 33 33 32h160q31 0 31 -32v-983zM815 1155q0 -53 -40 -91t-94 -38t-93 37t-39 91t39 91t93 37t94 -37t40 -90zM117 877q0 33 30 32h160q33 0 33 -32v-844
q0 -33 -31 -33h-159q-33 0 -33 31v846zM362 1156q0 -52 -39 -91t-93 -39t-93 38t-39 91t38 90t92 37t94 -37t40 -89z" />
    <glyph glyph-name="Jcircumflex" unicode="&#x134;" horiz-adv-x="632" 
d="M424 1645q24 0 45 -21l203 -233q22 -28 -2 -37l-66 -31q-27 -14 -45 4l-192 150q-14 12 -29 2l-191 -154q-16 -16 -43 -4l-63 33q-23 9 -2 37l205 233q16 20 43 21h137zM248 215v1024q0 27 31 27h167q31 0 31 -27v-1042q0 -201 -91.5 -329.5t-301.5 -176.5
q-44 -11 -51 26l-41 127q-4 16 -1 27.5t25 22.5q129 53 180.5 122t51.5 199z" />
    <glyph glyph-name="jcircumflex" unicode="&#x135;" horiz-adv-x="600" 
d="M233 1368h138q23 0 45 -22l202 -267q21 -32 -2 -43l-65 -35q-26 -16 -45 5l-193 184q-16 14 -28 2l-191 -188q-10 -10 -18 -12.5t-25 7.5l-63 37q-25 12 -2 43l204 267q18 22 43 22zM412 -106q0 -187 -97.5 -230t-195.5 -43t-122 18.5t-20 45.5l21 118q7 34 49 28
q42 -7 73 -6q68 2 68 95v957q0 33 33 32h160q31 0 31 -32v-983z" />
    <glyph glyph-name="Kcommaaccent" unicode="&#x136;" horiz-adv-x="1093" 
d="M494 -422h-54q-29 0 -34 20.5t-5 39.5l23 274q5 55 55 55h119q39 0 48 -18.5t1 -48.5l-96 -279q-10 -27 -22.5 -35t-34.5 -8zM965 0h-164q-31 0 -33 31l-25 370q-11 189 -184 189q-92 0 -143 -55.5t-51 -139.5l-3 -362q0 -33 -28 -33h-174q-29 0 -29 31v1200q0 33 35 33
h166q31 0 30 -31v-426q0 -25 25 -6l354 440q20 23 56 23h182q18 0 23.5 -11.5t-5.5 -25.5l-358 -447q-16 -23 8 -22h23q24 0 41 -4q129 -20 192.5 -110.5t63.5 -227.5l26 -383q0 -33 -28 -33z" />
    <glyph glyph-name="kcommaaccent" unicode="&#x137;" horiz-adv-x="972" 
d="M453 -463h-54q-29 0 -34 20.5t-5 39.5l23 274q5 55 55 55h119q39 0 48 -18.5t1 -48.5l-96 -279q-10 -27 -22.5 -35t-34.5 -8zM336 217v-188q0 -29 -31 -29h-166q-27 0 -26 29v1243q0 33 30 33h160q31 0 31 -31v-647q0 -16 9 -18.5t17 5.5l240 273q18 18 53 18h199
q18 0 22.5 -12t-6.5 -23q-148 -170 -254 -280q-6 -12 -6 -15q0 -10 13 -10q136 -7 191 -93t67 -247l8 -188v-6q0 -31 -33 -31h-156q-20 0 -26 8t-8 25l-11 190q-4 83 -39 129.5t-118 46.5q-160 0 -160 -182z" />
    <glyph glyph-name="kgreenlandic" unicode="&#x138;" horiz-adv-x="972" 
d="M336 217v-188q0 -29 -31 -29h-166q-27 0 -26 29v848q0 33 30 32h160q31 0 31 -30v-252q0 -16 9 -18.5t17 5.5l240 273q18 18 53 18h199q18 0 22.5 -12t-6.5 -23q-148 -170 -254 -280q-6 -12 -6 -15q0 -10 13 -10q136 -7 191 -93t67 -247l8 -188v-6q0 -31 -33 -31h-156
q-20 0 -26 8t-8 25l-11 190q-4 83 -39 129.5t-118 46.5q-160 0 -160 -182z" />
    <glyph glyph-name="Lacute" unicode="&#x139;" horiz-adv-x="923" 
d="M567 1528q16 -18 7 -32.5t-19 -18.5l-315 -160q-18 -10 -28.5 -4t-21.5 18l-40 53q-20 25 6 46l247 188q57 42 84 6zM858 207q33 0 33 -35v-135q0 -37 -31 -37h-688q-37 0 -37 35v1198q0 31 35 31h160q37 0 37 -29v-997q0 -16 3 -23.5t23 -7.5h465z" />
    <glyph glyph-name="lacute" unicode="&#x13a;" horiz-adv-x="514" 
d="M567 1602q16 -18 7 -33t-19 -19l-315 -159q-18 -10 -28.5 -4t-21.5 18l-40 53q-20 25 6 45l247 189q56 41 84 6zM453 188q28 0 28 -36v-127q0 -23 -15 -32t-26 -9h-65q-139 0 -194.5 67.5t-55.5 212.5v1012q0 29 27 29h167q29 0 29 -27v-987q0 -59 16.5 -81t65.5 -22h23z
" />
    <glyph glyph-name="Lcommaaccent" unicode="&#x13b;" horiz-adv-x="923" 
d="M432 -463h-53q-29 0 -34 20.5t-5 39.5l22 274q5 55 56 55h119q39 0 48 -18.5t1 -48.5l-97 -279q-10 -27 -22 -35t-35 -8zM858 207q33 0 33 -35v-135q0 -37 -31 -37h-688q-37 0 -37 35v1198q0 31 35 31h160q37 0 37 -29v-997q0 -16 3 -23.5t23 -7.5h465z" />
    <glyph glyph-name="lcommaaccent" unicode="&#x13c;" horiz-adv-x="514" 
d="M242 -463h-54q-29 0 -33.5 20.5t-4.5 39.5l22 274q5 55 55 55h119q39 0 48 -18.5t1 -48.5l-96 -279q-10 -27 -22.5 -35t-34.5 -8zM453 188q28 0 28 -36v-127q0 -23 -15 -32t-26 -9h-65q-139 0 -194.5 67.5t-55.5 212.5v1012q0 29 27 29h167q29 0 29 -27v-987
q0 -59 16.5 -81t65.5 -22h23z" />
    <glyph glyph-name="Lcaron" unicode="&#x13d;" horiz-adv-x="923" 
d="M668 881h-54q-29 0 -34 20.5t-5 38.5l23 274q5 56 55 56h119q39 0 48 -18.5t1 -49.5l-96 -278q-10 -27 -22.5 -35t-34.5 -8zM858 207q33 0 33 -35v-135q0 -37 -31 -37h-688q-37 0 -37 35v1198q0 31 35 31h160q37 0 37 -29v-997q0 -16 3 -23.5t23 -7.5h465z" />
    <glyph glyph-name="lcaron" unicode="&#x13e;" horiz-adv-x="708" 
d="M453 188q28 0 28 -36v-127q0 -23 -15 -32t-26 -9h-65q-139 0 -194.5 67.5t-55.5 212.5v1012q0 29 27 29h167q29 0 29 -27v-987q0 -59 16.5 -81t65.5 -22h23zM569 907h-53q-29 0 -34 20.5t-5 39.5l23 274q5 55 55 55h119q39 0 48 -18t1 -49l-96 -279q-10 -27 -22.5 -35
t-35.5 -8z" />
    <glyph glyph-name="Ldot" unicode="&#x13f;" horiz-adv-x="923" 
d="M741 632q0 -50 -34.5 -85t-88 -35t-89 33t-35.5 84t35.5 87t87.5 36t88 -35t36 -85zM858 207q33 0 33 -35v-135q0 -37 -31 -37h-688q-37 0 -37 35v1198q0 31 35 31h160q37 0 37 -29v-997q0 -16 3 -23.5t23 -7.5h465z" />
    <glyph glyph-name="ldot" unicode="&#x140;" horiz-adv-x="688" 
d="M453 188q28 0 28 -36v-127q0 -23 -15 -32t-26 -9h-65q-139 0 -194.5 67.5t-55.5 212.5v1012q0 29 27 29h167q29 0 29 -27v-987q0 -59 16.5 -81t65.5 -22h23zM700 714q0 -50 -34.5 -85t-88 -35t-89 32t-35.5 84t35.5 88t87.5 36t88 -35t36 -85z" />
    <glyph glyph-name="Lslash" unicode="&#x141;" horiz-adv-x="968" 
d="M426 526v-288q0 -35 33 -35h454q37 0 37 -31v-137q0 -35 -35 -35h-684q-37 0 -36 35v358q0 27 -39 1t-63 -40t-40 13l-37 63q-6 12 -6 21.5t17 17.5l147 90q21 13 21 31v641q0 33 34 33h158q39 0 39 -33v-508q0 -14 8 -14h2l156 92q27 16 41 -10l39 -66q10 -10 4 -23.5
t-19 -19.5l-215 -123q-16 -10 -16 -33z" />
    <glyph glyph-name="lslash" unicode="&#x142;" horiz-adv-x="663" 
d="M532 188q27 0 27 -36v-127q0 -23 -13.5 -32t-25.5 -9h-65q-135 0 -192.5 60t-57.5 194v184q0 27 -10 27q-4 0 -17 -7l-92 -55q-10 -6 -21 -6t-18 14l-41 68q-4 8 -4 17t35 31t147 85q21 14 21 43v645q0 20 18 21h183q20 0 20 -19v-520q0 -18 14 -18t25 12l115 67
q6 4 18 4t18 -12l41 -67q11 -23 -4 -31l-200 -121q-20 -12 -23.5 -21.5t-3.5 -27.5l2 -262q0 -59 16.5 -80t65.5 -21h22z" />
    <glyph glyph-name="Nacute" unicode="&#x143;" horiz-adv-x="1124" 
d="M881 1528q16 -18 7 -32.5t-20 -18.5l-315 -160q-26 -14 -49 14l-41 53q-20 25 6 46l248 188q56 41 84 6zM995 41q0 -41 -43 -41h-104q-25 0 -38 4t-26 27l-417 727q-4 10 -10.5 9t-6.5 -13v-725q0 -29 -39 -29h-147q-39 0 -39 29v1185q0 49 47 50h104q29 0 42.5 -8.5
t23.5 -28.5l426 -748q8 -8 8 2v750q0 33 35 33h147q37 0 37 -33v-1190z" />
    <glyph glyph-name="nacute" unicode="&#x144;" horiz-adv-x="983" 
d="M453 1004q-21 -21 -52 -5l-57 35q-27 14 -12 43l178 293q8 14 22.5 18.5t26.5 -2.5l123 -67q23 -12 18.5 -28.5t-12.5 -24.5zM874 33q0 -33 -30 -33h-160q-33 0 -33 31v538q0 70 -36.5 114t-115.5 44t-121 -44t-42 -112v-538q0 -33 -35 -33h-158q-33 0 -32 31v846
q0 33 32 32h160q29 0 29 -30v-15q0 -16 2 -16q4 -23 22 0q35 33 95.5 53.5t113.5 20.5q162 0 235.5 -97.5t73.5 -251.5v-540z" />
    <glyph glyph-name="Ncommaaccent" unicode="&#x145;" horiz-adv-x="1124" 
d="M512 -422h-53q-29 0 -34 20.5t-5 39.5l22 274q5 55 56 55h118q68 0 50 -67l-97 -279q-10 -27 -22 -35t-35 -8zM995 41q0 -41 -43 -41h-104q-25 0 -38 4t-26 27l-417 727q-4 10 -10.5 9t-6.5 -13v-725q0 -29 -39 -29h-147q-39 0 -39 29v1185q0 49 47 50h104
q29 0 42.5 -8.5t23.5 -28.5l426 -748q8 -8 8 2v750q0 33 35 33h147q37 0 37 -33v-1190z" />
    <glyph glyph-name="ncommaaccent" unicode="&#x146;" horiz-adv-x="983" 
d="M461 -463h-53q-29 0 -34 20.5t-5 39.5l22 274q5 55 55 55h119q69 0 49 -67l-96 -279q-10 -27 -22.5 -35t-34.5 -8zM874 33q0 -33 -30 -33h-160q-33 0 -33 31v538q0 70 -36.5 114t-115.5 44t-121 -44t-42 -112v-538q0 -33 -35 -33h-158q-33 0 -32 31v846q0 33 32 32h160
q29 0 29 -30v-15q0 -16 2 -16q4 -23 22 0q35 33 95.5 53.5t113.5 20.5q162 0 235.5 -97.5t73.5 -251.5v-540z" />
    <glyph glyph-name="Ncaron" unicode="&#x147;" horiz-adv-x="1124" 
d="M614 1313h-137q-27 0 -43 20l-205 234q-21 27 2 37l64 32q26 13 43 -4l190 -153q14 -10 29 2l193 149q17 17 45 4l65 -30q24 -9 2 -37l-203 -234q-20 -20 -45 -20zM995 41q0 -41 -43 -41h-104q-25 0 -38 4t-26 27l-417 727q-4 10 -10.5 9t-6.5 -13v-725q0 -29 -39 -29
h-147q-39 0 -39 29v1185q0 49 47 50h104q29 0 42.5 -8.5t23.5 -28.5l426 -748q8 -8 8 2v750q0 33 35 33h147q37 0 37 -33v-1190z" />
    <glyph glyph-name="ncaron" unicode="&#x148;" horiz-adv-x="983" 
d="M512 993h-137q-25 0 -43 23l-205 266q-21 32 2 43l64 37q16 10 24 8t19 -12l190 -189q12 -14 29 2l192 185q20 20 45 4l66 -35q23 -12 2 -43l-203 -266q-23 -23 -45 -23zM874 33q0 -33 -30 -33h-160q-33 0 -33 31v538q0 70 -36.5 114t-115.5 44t-121 -44t-42 -112v-538
q0 -33 -35 -33h-158q-33 0 -32 31v846q0 33 32 32h160q29 0 29 -30v-15q0 -16 2 -16q4 -23 22 0q35 33 95.5 53.5t113.5 20.5q162 0 235.5 -97.5t73.5 -251.5v-540z" />
    <glyph glyph-name="napostrophe" unicode="&#x149;" horiz-adv-x="1093" 
d="M88 887h-53q-29 0 -34 20.5t-5 38.5l22 275q5 55 56 55h119q39 0 48 -18.5t1 -49.5l-97 -278q-10 -27 -22 -35t-35 -8zM985 33q0 -33 -31 -33h-159q-33 0 -33 31v538q0 70 -37 114t-116 44t-121 -44t-42 -112v-538q0 -33 -34 -33h-158q-33 0 -33 31v846q0 33 33 32h160
q29 0 28 -30v-15q0 -16 2 -16q4 -23 23 0q35 33 95.5 53.5t113.5 20.5q162 0 235.5 -97.5t73.5 -251.5v-540z" />
    <glyph glyph-name="Eng" unicode="&#x14a;" horiz-adv-x="1116" 
d="M674 -213q102 0 102 90v94q3 89 -67 207q-16 27 -44 73t-62 103.5t-70.5 120t-70.5 118.5t-62 101.5t-36 61.5t-11 16t-3 -4v-739q0 -29 -39 -29h-147q-39 0 -39 29v1202q0 33 39 33h112q29 0 42.5 -8.5t23.5 -28.5q180 -322 416 -731q8 -16 8 0v735q0 33 37 33h145
q39 0 39 -33v-1325q0 -147 -70 -226t-231 -79q-82 0 -122 16t-39 23.5t3 29.5q11 121 28 122t44 -2q28 -3 74 -3z" />
    <glyph glyph-name="eng" unicode="&#x14b;" horiz-adv-x="983" 
d="M874 -66q0 -305 -311 -305q-82 1 -111 17q-30 16 -32 24t2 25l14 92q4 23 14.5 27t39.5 1t51 -3q66 0 88 30.5t22 102.5v624q0 68 -35.5 114t-114.5 46t-122 -45t-43 -113v-538q0 -33 -35 -33h-158q-33 0 -32 31v846q0 33 30 32h160q29 0 29 -26v-25q0 -10 9 -9t17 7
q86 68 197 68q160 0 240.5 -98.5t80.5 -252.5v-639z" />
    <glyph glyph-name="Omacron" unicode="&#x14c;" horiz-adv-x="1083" 
d="M782 1391q0 -18 -6 -22.5t-28 -4.5h-435q-23 0 -31 3t-8 24v104q0 23 7.5 29t29.5 6h434q23 0 30 -6t7 -27v-106zM727 907q0 72 -46 121t-138 49t-141.5 -49t-49.5 -121v-545q0 -72 48.5 -119.5t137.5 -47.5t139 48t50 119v545zM961 360q0 -170 -117 -271t-300.5 -101
t-303 99.5t-119.5 272.5v549q0 171 117.5 273t298.5 102q182 0 303 -101t121 -274v-549z" />
    <glyph glyph-name="omacron" unicode="&#x14d;" horiz-adv-x="958" 
d="M739 1106q0 -18 -6 -22.5t-28 -4.5h-435q-23 0 -31 3t-8 24v104q0 23 7.5 29t29.5 6h434q23 0 30 -6t7 -27v-106zM637 571q0 72 -41 115t-118 43t-118 -44t-41 -114v-231q0 -70 40 -114t116 -44t119 43t43 115v231zM860 338q0 -172 -103.5 -261t-278.5 -89t-278.5 92
t-103.5 252v246q0 152 106.5 250t277.5 98t275.5 -90.5t104.5 -257.5v-240z" />
    <glyph glyph-name="Obreve" unicode="&#x14e;" horiz-adv-x="1083" 
d="M301 1614h82q20 0 25.5 -5t6.5 -40t29.5 -68t82.5 -33q102 0 120 121q2 16 7 21.5t26 5.5h74q20 0 25 -4t3 -42q-5 -102 -70.5 -175.5t-183.5 -73.5t-187 77t-73 187q0 16 5.5 22.5t27.5 6.5zM727 907q0 72 -46 121t-138 49t-141.5 -49t-49.5 -121v-545
q0 -72 48.5 -119.5t137.5 -47.5t139 48t50 119v545zM961 360q0 -170 -117 -271t-300.5 -101t-303 99.5t-119.5 272.5v549q0 171 117.5 273t298.5 102q182 0 303 -101t121 -274v-549z" />
    <glyph glyph-name="obreve" unicode="&#x14f;" horiz-adv-x="958" 
d="M256 1313h82q20 0 25.5 -5t6.5 -40t29.5 -68t82.5 -33q102 0 120 121q2 16 7 21.5t26 5.5h74q20 0 25 -4t3 -42q-5 -100 -70.5 -174.5t-183.5 -74.5q-119 0 -187.5 77t-72.5 187q0 16 5 22.5t28 6.5zM637 571q0 72 -41 115t-118 43t-118 -44t-41 -114v-231q0 -70 40 -114
t116 -44t119 43t43 115v231zM860 338q0 -172 -103.5 -261t-278.5 -89t-278.5 92t-103.5 252v246q0 152 106.5 250t277.5 98t275.5 -90.5t104.5 -257.5v-240z" />
    <glyph glyph-name="Ohungarumlaut" unicode="&#x150;" horiz-adv-x="1083" 
d="M598 1384.5q0 12.5 10 22.5l203 238q23 25 41 31.5t39 -9.5l98 -76q23 -16 15.5 -31.5t-15.5 -21.5l-274 -223q-16 -12 -26.5 -9t-24.5 13l-52 43q-14 10 -14 22.5zM291 1384.5q0 12.5 10 22.5l203 238q23 25 41 31.5t39 -9.5l98 -76q23 -16 15.5 -31.5t-15.5 -21.5
l-274 -223q-16 -12 -26.5 -9t-25.5 13l-51 43q-14 10 -14 22.5zM727 907q0 72 -46 121t-138 49t-141.5 -49t-49.5 -121v-545q0 -72 48.5 -119.5t137.5 -47.5t139 48t50 119v545zM961 360q0 -170 -117 -271t-300.5 -101t-303 99.5t-119.5 272.5v549q0 171 117.5 273
t298.5 102q182 0 303 -101t121 -274v-549z" />
    <glyph glyph-name="ohungarumlaut" unicode="&#x151;" horiz-adv-x="958" 
d="M430 1370q24 33 49 16l123 -67q34 -18 8 -53l-231 -252q-27 -29 -66 -8l-49 28q-29 14 -10 43zM721 1370q24 33 49 16l123 -67q34 -18 8 -53l-231 -252q-27 -29 -66 -8l-49 28q-29 14 -10 43zM637 571q0 72 -41 115t-118 43t-118 -44t-41 -114v-231q0 -70 40 -114
t116 -44t119 43t43 115v231zM860 338q0 -172 -103.5 -261t-278.5 -89t-278.5 92t-103.5 252v246q0 152 106.5 250t277.5 98t275.5 -90.5t104.5 -257.5v-240z" />
    <glyph glyph-name="OE" unicode="&#x152;" horiz-adv-x="1439" 
d="M526 195q43 0 78 12v858q-37 12 -76 12q-84 0 -132 -45t-48 -114v-566q0 -72 46 -114.5t132 -42.5zM517 1284q83 0 149 -20h659q35 0 35 -31v-137q0 -35 -33 -35h-459q-33 0 -32 -27v-254q0 -18 5 -25t25 -7h379q33 0 33 -33v-140q0 -33 -31 -32h-383q-18 0 -23 -7.5
t-5 -23.5v-274q0 -18 8 -24.5t28 -6.5h465q33 0 33 -35v-137q0 -35 -33 -35h-692q-49 -12 -131 -12q-175 0 -285 92.5t-110 269.5v570q0 170 112.5 267t285.5 97z" />
    <glyph glyph-name="oe" unicode="&#x153;" horiz-adv-x="1480" 
d="M637 571q0 72 -44 115t-113 43t-115 -44t-46 -114v-231q0 -70 45.5 -114t113.5 -44t112.5 42t46.5 114v233zM1151 559q34 0 28 50q-5 50 -50 86t-109 36t-103.5 -42t-46.5 -101q-4 -29 33 -29h248zM905 410q-41 0 -41 -35v-31q0 -66 44 -114t110 -48q100 0 180 97
q23 27 49 10l101 -64q40 -27 24 -55q-100 -182 -346 -182q-154 0 -246 84q-18 16 -29.5 14t-27.5 -14q-100 -84 -257 -84t-263.5 94t-106.5 250v246q0 152 106.5 250t268.5 98t260 -90q21 -21 43 0q86 90 255 90q166 0 271 -99t105 -260v-96q0 -29 -16.5 -45t-38.5 -16h-445
z" />
    <glyph glyph-name="Racute" unicode="&#x154;" horiz-adv-x="1050" 
d="M799 1528q16 -18 7 -32.5t-20 -18.5l-315 -160q-26 -14 -49 14l-41 53q-20 25 6 46l248 188q56 41 84 6zM588 690q23 0 41 12q96 76 96 202q0 58 -42 107.5t-132 49.5h-158q-18 0 -24.5 -7t-6.5 -24v-311q0 -14 5.5 -21.5t23.5 -7.5h197zM569 1264q186 0 289 -96.5
t103 -270.5q0 -109 -54.5 -200t-126.5 -156q-12 -13 -8 -23t22.5 -49t78 -169t120.5 -255q10 -20 1 -32.5t-29 -12.5h-156q-41 0 -54.5 12.5t-23.5 32.5l-188 424q-4 18 -27 18h-135q-18 0 -19 -22v-432q0 -33 -38 -33h-156q-37 0 -37 31v1198q0 35 33 35h405z" />
    <glyph glyph-name="racute" unicode="&#x155;" horiz-adv-x="651" 
d="M379 1004q-22 -22 -51 -5l-58 35q-27 14 -12 43l178 293q8 14 22.5 18.5t26.5 -2.5l123 -67q23 -12 19 -28.5t-13 -24.5zM340 489v-456q0 -33 -35 -33h-158q-33 0 -32 31v846q0 33 32 32h140q33 0 32 -30v-64q0 -12 7.5 -15t15.5 7q33 45 90 82t118 37t87 -11
q23 -6 26 -16t-1 -27l-35 -143q-4 -23 -13.5 -28t-37.5 1t-56 7q-180 0 -180 -220z" />
    <glyph glyph-name="Rcommaaccent" unicode="&#x156;" horiz-adv-x="1050" 
d="M485 -463h-53q-29 0 -34 20.5t-5 39.5l23 274q5 55 55 55h119q39 0 48 -18.5t1 -48.5l-96 -279q-10 -27 -22.5 -35t-35.5 -8zM588 690q23 0 41 12q96 76 96 202q0 58 -42 107.5t-132 49.5h-158q-18 0 -24.5 -7t-6.5 -24v-311q0 -14 5.5 -21.5t23.5 -7.5h197zM569 1264
q186 0 289 -96.5t103 -270.5q0 -109 -54.5 -200t-126.5 -156q-12 -13 -8 -23t22.5 -49t78 -169t120.5 -255q10 -20 1 -32.5t-29 -12.5h-156q-41 0 -54.5 12.5t-23.5 32.5l-188 424q-4 18 -27 18h-135q-18 0 -19 -22v-432q0 -33 -38 -33h-156q-37 0 -37 31v1198q0 35 33 35
h405z" />
    <glyph glyph-name="rcommaaccent" unicode="&#x157;" horiz-adv-x="651" 
d="M190 -463h-53q-29 0 -34 20.5t-5 39.5l23 274q5 55 55 55h119q39 0 48 -18.5t1 -48.5l-96 -279q-10 -27 -22.5 -35t-35.5 -8zM340 489v-456q0 -33 -35 -33h-158q-33 0 -32 31v846q0 33 32 32h140q33 0 32 -30v-64q0 -12 7.5 -15t15.5 7q33 45 90 82t118 37t87 -11
q23 -6 26 -16t-1 -27l-35 -143q-4 -23 -13.5 -28t-37.5 1t-56 7q-180 0 -180 -220z" />
    <glyph glyph-name="Rcaron" unicode="&#x158;" horiz-adv-x="1050" 
d="M526 1313h-137q-27 0 -43 20l-205 234q-21 27 2 37l64 32q26 13 43 -4l190 -153q14 -10 29 2l193 149q17 17 45 4l65 -30q24 -9 2 -37l-203 -234q-20 -20 -45 -20zM588 690q23 0 41 12q96 76 96 202q0 58 -42 107.5t-132 49.5h-158q-18 0 -24.5 -7t-6.5 -24v-311
q0 -14 5.5 -21.5t23.5 -7.5h197zM569 1264q186 0 289 -96.5t103 -270.5q0 -109 -54.5 -200t-126.5 -156q-12 -13 -8 -23t22.5 -49t78 -169t120.5 -255q10 -20 1 -32.5t-29 -12.5h-156q-41 0 -54.5 12.5t-23.5 32.5l-188 424q-4 18 -27 18h-135q-18 0 -19 -22v-432
q0 -33 -38 -33h-156q-37 0 -37 31v1198q0 35 33 35h405z" />
    <glyph glyph-name="rcaron" unicode="&#x159;" horiz-adv-x="651" 
d="M414 993h-138q-22 0 -43 23l-204 266q-21 32 2 43l63 37q24 15 43 -4l191 -189q12 -14 28 2l193 185q20 20 45 4l65 -35q24 -12 3 -43l-203 -266q-23 -23 -45 -23zM340 489v-456q0 -33 -35 -33h-158q-33 0 -32 31v846q0 33 32 32h140q33 0 32 -30v-64q0 -12 7.5 -15
t15.5 7q33 45 90 82t118 37t87 -11q23 -6 26 -16t-1 -27l-35 -143q-4 -23 -13.5 -28t-37.5 1t-56 7q-180 0 -180 -220z" />
    <glyph glyph-name="Sacute" unicode="&#x15a;" horiz-adv-x="997" 
d="M760 1528q16 -18 7 -32.5t-19 -18.5l-316 -160q-26 -14 -49 14l-41 53q-20 25 6 46l248 188q57 42 84 6zM805.5 90.5q-122.5 -100.5 -316.5 -100.5q-113 0 -222 36.5t-187 116.5q-18 16 -20.5 30.5t16.5 37.5l80 90q18 20 31.5 16t33.5 -20q53 -47 128 -75.5t134 -28.5
q111 0 161 45t50 101t-20.5 87t-67.5 62.5t-142 63.5q-180 60 -273 140.5t-93 234.5t114 253.5t304 99.5t336 -94q23 -16 21.5 -29.5t-15.5 -36.5l-53 -98q-21 -33 -62 -14q-135 71 -221 71t-140 -34.5t-54 -111.5t53.5 -111.5t140.5 -66.5t155 -59.5t159.5 -96.5t91.5 -239
q0 -169 -122.5 -269.5z" />
    <glyph glyph-name="sacute" unicode="&#x15b;" horiz-adv-x="845" 
d="M434 1004q-22 -22 -51 -5l-57 35q-27 14 -13 43l179 293q19 32 49 16l123 -67q23 -12 18.5 -28.5t-12.5 -24.5zM681.5 62.5q-98.5 -72.5 -267.5 -72.5q-168 0 -243 66t-91 98t-16.5 44.5t14.5 20.5l115 64q29 16 47 -9q82 -102 198 -102q41 0 81 22.5t40 60.5t-24.5 58.5
t-62.5 33.5t-77 24t-109 35t-133 81.5t-63 142.5q0 149 96 221.5t234 72.5q78 0 164 -26t151 -85q18 -18 -2 -49l-65 -96q-20 -20 -88 23.5t-153 43.5q-122 0 -122 -80q0 -53 96 -86q59 -18 126 -39.5t160 -77.5t93 -187q0 -130 -98.5 -202.5z" />
    <glyph glyph-name="Scircumflex" unicode="&#x15c;" horiz-adv-x="997" 
d="M436 1640h137q25 0 45 -20l203 -234q22 -28 -2 -36l-65 -31q-27 -14 -45 4l-193 150q-14 12 -29 2l-190 -154q-17 -17 -43 -4l-64 33q-24 9 -2 36l205 234q16 20 43 20zM805.5 90.5q-122.5 -100.5 -316.5 -100.5q-113 0 -222 36.5t-187 116.5q-18 16 -20.5 30.5
t16.5 37.5l80 90q18 20 31.5 16t33.5 -20q53 -47 128 -75.5t134 -28.5q111 0 161 45t50 101t-20.5 87t-67.5 62.5t-142 63.5q-180 60 -273 140.5t-93 234.5t114 253.5t304 99.5t336 -94q23 -16 21.5 -29.5t-15.5 -36.5l-53 -98q-21 -33 -62 -14q-135 71 -221 71t-140 -34.5
t-54 -111.5t53.5 -111.5t140.5 -66.5t155 -59.5t159.5 -96.5t91.5 -239q0 -169 -122.5 -269.5z" />
    <glyph glyph-name="scircumflex" unicode="&#x15d;" horiz-adv-x="845" 
d="M346 1368h137q23 0 45 -22l203 -267q21 -32 -2 -43l-65 -35q-25 -16 -46 5l-192 184q-16 14 -29 2l-190 -188q-20 -20 -43 -5l-64 37q-23 12 -2 43l205 267q18 22 43 22zM681.5 62.5q-98.5 -72.5 -267.5 -72.5q-168 0 -243 66t-91 98t-16.5 44.5t14.5 20.5l115 64
q29 16 47 -9q82 -102 198 -102q41 0 81 22.5t40 60.5t-24.5 58.5t-62.5 33.5t-77 24t-109 35t-133 81.5t-63 142.5q0 149 96 221.5t234 72.5q78 0 164 -26t151 -85q18 -18 -2 -49l-65 -96q-20 -20 -88 23.5t-153 43.5q-122 0 -122 -80q0 -53 96 -86q59 -18 126 -39.5
t160 -77.5t93 -187q0 -130 -98.5 -202.5z" />
    <glyph glyph-name="Scedilla" unicode="&#x15e;" horiz-adv-x="997" 
d="M575 -248q0 60 -69 60h-62q-39 0 -56 20.5t-9 54.5l27 109q-205 22 -326 147q-18 16 -20.5 30.5t16.5 37.5l80 90q18 20 31.5 16t33.5 -20q53 -47 128 -75.5t134 -28.5q111 0 161 45t50 101t-20.5 87t-67.5 62.5t-142 63.5q-180 60 -273 140.5t-93 234.5t114 253.5
t304 99.5t336 -94q23 -16 21.5 -29.5t-15.5 -36.5l-53 -98q-21 -33 -62 -14q-135 71 -221 71t-140 -34.5t-54 -111.5t53.5 -111.5t140.5 -66.5t246.5 -96.5t159.5 -296.5q0 -168 -116 -267t-294 -103q-4 -16 -7 -31.5t-7 -32.5v-2q0 -6 14 -6h14q72 0 121 -44t49 -122
q0 -110 -77.5 -141t-130.5 -31q-100 0 -168 49q-20 13 -7 35l39 47q12 15 20 15t38 -18q31 -18 74 -17q44 0 64.5 17.5t20.5 41.5z" />
    <glyph glyph-name="scedilla" unicode="&#x15f;" horiz-adv-x="845" 
d="M496 -248q0 60 -70 60h-61q-39 0 -56.5 20.5t-9.5 54.5l29 113q-187 28 -258 174q-16 32 8 45l115 64q29 16 47 -9q82 -102 198 -102q41 0 81 22.5t40 60.5t-24.5 58.5t-62.5 33.5t-77 24t-109 35t-133 81.5t-63 142.5q0 149 96 221.5t234 72.5q78 0 164 -26t151 -85
q18 -18 -2 -49l-65 -96q-20 -20 -88 23.5t-153 43.5q-122 0 -122 -80q0 -53 96 -86q59 -18 219 -69.5t160 -235.5q0 -125 -96.5 -199.5t-245.5 -74.5l-14 -62v-2q0 -6 14 -6h15q72 0 121 -44t49 -122q0 -110 -78 -141t-131 -31q-100 0 -168 49q-21 14 -6 35l39 47
q12 15 19 15t38 -18t75 -17q44 0 64.5 17.5t20.5 41.5z" />
    <glyph glyph-name="Scaron" unicode="&#x160;" horiz-adv-x="997" 
d="M561 1313h-137q-27 0 -43 20l-205 234q-21 27 2 37l64 32q25 12 43 -4l190 -153q14 -10 29 2l192 149q18 18 45 4l66 -30q24 -9 2 -37l-203 -234q-20 -20 -45 -20zM805.5 90.5q-122.5 -100.5 -316.5 -100.5q-113 0 -222 36.5t-187 116.5q-18 16 -20.5 30.5t16.5 37.5
l80 90q18 20 31.5 16t33.5 -20q53 -47 128 -75.5t134 -28.5q111 0 161 45t50 101t-20.5 87t-67.5 62.5t-142 63.5q-180 60 -273 140.5t-93 234.5t114 253.5t304 99.5t336 -94q23 -16 21.5 -29.5t-15.5 -36.5l-53 -98q-21 -33 -62 -14q-135 71 -221 71t-140 -34.5t-54 -111.5
t53.5 -111.5t140.5 -66.5t155 -59.5t159.5 -96.5t91.5 -239q0 -169 -122.5 -269.5z" />
    <glyph glyph-name="scaron" unicode="&#x161;" horiz-adv-x="845" 
d="M502 993h-137q-25 0 -43 23l-205 266q-21 32 2 43l63 37q24 15 43 -4l191 -189q12 -14 28 2l193 185q20 20 45 4l66 -35q23 -12 2 -43l-203 -266q-23 -23 -45 -23zM681.5 62.5q-98.5 -72.5 -267.5 -72.5q-168 0 -243 66t-91 98t-16.5 44.5t14.5 20.5l115 64q29 16 47 -9
q82 -102 198 -102q41 0 81 22.5t40 60.5t-24.5 58.5t-62.5 33.5t-77 24t-109 35t-133 81.5t-63 142.5q0 149 96 221.5t234 72.5q78 0 164 -26t151 -85q18 -18 -2 -49l-65 -96q-20 -20 -88 23.5t-153 43.5q-122 0 -122 -80q0 -53 96 -86q59 -18 126 -39.5t160 -77.5t93 -187
q0 -130 -98.5 -202.5z" />
    <glyph glyph-name="Tcommaaccent" unicode="&#x162;" horiz-adv-x="903" 
d="M385 -463h-53q-29 0 -34 20.5t-5 39.5l22 274q5 55 56 55h118q68 0 50 -67l-97 -279q-10 -27 -22 -35t-35 -8zM866 1098q0 -37 -30 -37h-242q-33 0 -33 -27l-2 -1001q0 -33 -37 -33h-157q-37 0 -37 31l2 1001q0 14 -5.5 21.5t-25.5 7.5h-229q-35 0 -35 37v131q0 35 35 35
h766q31 0 30 -33v-133z" />
    <glyph glyph-name="tcommaaccent" unicode="&#x163;" horiz-adv-x="675" 
d="M276 -463h-53q-29 0 -34 20.5t-5 39.5l23 274q5 55 55 55h119q39 0 48 -18.5t1 -48.5l-96 -279q-10 -27 -22.5 -35t-35.5 -8zM387 936q0 -27 29 -27h162q33 0 32 -32v-117q0 -33 -32 -33h-166q-25 0 -25 -20v-414q0 -49 19.5 -76t63.5 -27t88 10t56.5 1.5t16.5 -31.5
l20 -109q4 -29 -8 -38t-42 -19t-163 -16q-147 0 -209.5 69.5t-62.5 196.5v451q0 23 -25 22h-75q-35 0 -35 31v119q0 33 32 32h72q29 0 29 29v154q0 33 33 41l149 32q41 7 41 -28v-201z" />
    <glyph glyph-name="Tcaron" unicode="&#x164;" horiz-adv-x="903" 
d="M518 1313h-137q-27 0 -43 20l-205 234q-21 27 2 37l64 32q25 12 43 -4l190 -153q14 -10 29 2l192 149q18 18 45 4l66 -30q24 -9 2 -37l-203 -234q-20 -20 -45 -20zM866 1098q0 -37 -30 -37h-242q-33 0 -33 -27l-2 -1001q0 -33 -37 -33h-157q-37 0 -37 31l2 1001
q0 14 -5.5 21.5t-25.5 7.5h-229q-35 0 -35 37v131q0 35 35 35h766q31 0 30 -33v-133z" />
    <glyph glyph-name="tcaron" unicode="&#x165;" horiz-adv-x="772" 
d="M387 936q0 -27 29 -27h162q33 0 32 -32v-117q0 -33 -32 -33h-166q-25 0 -25 -20v-414q0 -49 19.5 -76t63.5 -27t88 10t56.5 1.5t16.5 -31.5l20 -109q4 -29 -8 -38t-42 -19t-163 -16q-147 0 -209.5 69.5t-62.5 196.5v451q0 23 -25 22h-75q-35 0 -35 31v119q0 33 32 32h72
q29 0 29 29v154q0 33 33 41l149 32q41 7 41 -28v-201zM641 1018h-53q-29 0 -34 20.5t-5 38.5l22 275q5 55 56 55h118q39 0 48.5 -18.5t1.5 -49.5l-97 -278q-10 -27 -22 -35t-35 -8z" />
    <glyph glyph-name="Tbar" unicode="&#x166;" horiz-adv-x="903" 
d="M307 756q23 0 23 30v246q0 14 -3 21.5t-22 7.5h-233q-35 0 -35 37v131q0 35 35 35h762q33 0 32 -33v-133q0 -37 -32 -37h-240q-33 0 -33 -27v-248q0 -18 4 -24t19 -6h196q31 0 31 -33v-72q0 -35 -29 -35h-198q-23 0 -23 -28v-555q0 -33 -37 -33h-157q-37 0 -37 31v557
q0 14 -2 21t-19 7h-190q-27 0 -27 35v72q0 33 29 33h186z" />
    <glyph glyph-name="tbar" unicode="&#x167;" horiz-adv-x="675" 
d="M408 936q0 -27 28 -27h162q33 0 33 -32v-117q0 -33 -33 -33h-166q-25 0 -24 -20v-89q0 -18 5 -24t19 -6h168q31 0 31 -27v-74q0 -29 -31 -28h-164q-29 0 -28 -31v-135q0 -49 19 -76t62 -27t89 10q45 10 57 1.5t16 -31.5l21 -109q4 -29 -8.5 -38t-42.5 -19t-162 -16
q-222 0 -248.5 105.5t-26.5 160.5v174q0 16 -4 23.5t-22 7.5h-84q-33 0 -33 26v76q0 27 31 27h84q29 0 28 33v84q0 23 -24 22h-84q-35 0 -35 31v119q0 33 33 32h84q27 0 26 29v154q0 31 31 41l152 32q41 7 41 -28v-201z" />
    <glyph glyph-name="Utilde" unicode="&#x168;" horiz-adv-x="1083" 
d="M523.5 1377.5q-80.5 31.5 -108.5 31.5q-60 0 -106 -51q-10 -12 -18 -12t-23 12l-57 55q-16 16 -4 37q29 49 81 84t98 35q60 0 145 -34t112 -34t47.5 19.5t32.5 34.5t19.5 16.5t19.5 -6.5l69 -45q14 -10 16.5 -18.5t-7.5 -31.5q-33 -59 -85.5 -91.5t-101.5 -32.5
t-129.5 31.5zM315 1264q37 0 37 -29v-879q0 -68 51.5 -114.5t137.5 -46.5t137 47t51 116v875q0 31 37 31h158q39 0 39 -29v-879q0 -168 -119.5 -268t-301.5 -100t-301.5 99.5t-119.5 268.5v877q0 31 37 31h157z" />
    <glyph glyph-name="utilde" unicode="&#x169;" horiz-adv-x="970" 
d="M480.5 1070q-85.5 32 -111.5 32q-58 0 -103 -51q-10 -12 -18 -12.5t-23 12.5l-57 55q-16 16 -4 37q29 49 81 84t98 35q61 0 143 -34t112 -34q29 0 49.5 19.5t32.5 34.5t19.5 16.5t19.5 -7.5l69 -45q14 -10 16.5 -18t-7.5 -31q-33 -59 -85.5 -92t-98.5 -33
q-47 0 -132.5 32zM862 33q0 -33 -33 -33h-161q-29 0 -29 29v22q0 8 -8 8.5t-27 -17.5t-66.5 -37t-113.5 -19t-129.5 25.5t-131 96t-67.5 228.5v541q0 33 31 32h160q35 0 35 -30v-541q0 -66 43 -112t114.5 -46t114.5 45t43 113v539q0 33 33 32h157q35 0 35 -30v-846z" />
    <glyph glyph-name="Umacron" unicode="&#x16a;" horiz-adv-x="1083" 
d="M786 1391q0 -18 -6 -22.5t-28 -4.5h-435q-23 0 -30.5 3t-7.5 24v104q0 23 7 29t29 6h435q23 0 29.5 -6t6.5 -27v-106zM315 1264q37 0 37 -29v-879q0 -68 51.5 -114.5t137.5 -46.5t137 47t51 116v875q0 31 37 31h158q39 0 39 -29v-879q0 -168 -119.5 -268t-301.5 -100
t-301.5 99.5t-119.5 268.5v877q0 31 37 31h157z" />
    <glyph glyph-name="umacron" unicode="&#x16b;" horiz-adv-x="970" 
d="M733 1106q0 -18 -6 -22.5t-29 -4.5h-434q-23 0 -31 3t-8 24v104q0 23 7.5 29t29.5 6h434q23 0 30 -6t7 -27v-106zM862 33q0 -33 -33 -33h-161q-29 0 -29 29v22q0 8 -8 8.5t-27 -17.5t-66.5 -37t-113.5 -19t-129.5 25.5t-131 96t-67.5 228.5v541q0 33 31 32h160
q35 0 35 -30v-541q0 -66 43 -112t114.5 -46t114.5 45t43 113v539q0 33 33 32h157q35 0 35 -30v-846z" />
    <glyph glyph-name="Ubreve" unicode="&#x16c;" horiz-adv-x="1083" 
d="M311 1620h82q20 0 25.5 -5t6.5 -40t30 -67.5t83 -32.5q101 0 119 120q2 16 7.5 21.5t25.5 5.5h74q20 0 25.5 -4t3.5 -42q-5 -101 -71 -175t-184 -74t-186.5 76.5t-72.5 187.5q0 16 5 22.5t27 6.5zM315 1264q37 0 37 -29v-879q0 -68 51.5 -114.5t137.5 -46.5t137 47
t51 116v875q0 31 37 31h158q39 0 39 -29v-879q0 -168 -119.5 -268t-301.5 -100t-301.5 99.5t-119.5 268.5v877q0 31 37 31h157z" />
    <glyph glyph-name="ubreve" unicode="&#x16d;" horiz-adv-x="970" 
d="M260 1313h82q20 0 25.5 -5t6.5 -40t29.5 -68t82.5 -33q102 0 120 121q2 16 7 21.5t26 5.5h74q20 0 25 -4t3 -42q-5 -102 -70.5 -175.5t-183.5 -73.5t-187 77t-73 187q0 16 5.5 22.5t27.5 6.5zM862 33q0 -33 -33 -33h-161q-29 0 -29 29v22q0 8 -8 8.5t-27 -17.5t-66.5 -37
t-113.5 -19t-129.5 25.5t-131 96t-67.5 228.5v541q0 33 31 32h160q35 0 35 -30v-541q0 -66 43 -112t114.5 -46t114.5 45t43 113v539q0 33 33 32h157q35 0 35 -30v-846z" />
    <glyph glyph-name="Uring" unicode="&#x16e;" horiz-adv-x="1083" 
d="M610 1513.5q0 30.5 -23.5 55t-54 24.5t-52 -22.5t-21.5 -56.5t21.5 -55t53.5 -21t54 22.5t22 53zM354 1514q0 74 51 127t127 53t130.5 -52.5t54.5 -127.5t-54 -127t-129 -52t-127.5 52.5t-52.5 126.5zM315 1264q37 0 37 -29v-879q0 -68 51.5 -114.5t137.5 -46.5t137 47
t51 116v875q0 31 37 31h158q39 0 39 -29v-879q0 -168 -119.5 -268t-301.5 -100t-301.5 99.5t-119.5 268.5v877q0 31 37 31h157z" />
    <glyph glyph-name="uring" unicode="&#x16f;" horiz-adv-x="970" 
d="M565 1181.5q0 30.5 -23.5 55.5t-54 25t-52 -22.5t-21.5 -56.5t21 -55.5t53 -21.5t54.5 22.5t22.5 53zM618.5 1055.5q-53.5 -51.5 -129.5 -51.5t-128 52t-52 126t50.5 127t126.5 53t131 -52t55 -128q0 -75 -53.5 -126.5zM862 33q0 -33 -33 -33h-161q-29 0 -29 29v22
q0 8 -8 8.5t-27 -17.5t-66.5 -37t-113.5 -19t-129.5 25.5t-131 96t-67.5 228.5v541q0 33 31 32h160q35 0 35 -30v-541q0 -66 43 -112t114.5 -46t114.5 45t43 113v539q0 33 33 32h157q35 0 35 -30v-846z" />
    <glyph glyph-name="Uhungarumlaut" unicode="&#x170;" horiz-adv-x="1083" 
d="M582 1384.5q0 12.5 10 22.5l203 238q45 49 79 22l99 -76q23 -16 15.5 -31.5t-15.5 -21.5l-275 -223q-16 -12 -26 -9t-25 13l-51 43q-14 10 -14 22.5zM666 1591q23 -16 15.5 -31.5t-15.5 -21.5l-275 -223q-16 -12 -26.5 -9t-24.5 13l-51 43q-30 21 -4 45l202 238
q46 50 80 22zM315 1264q37 0 37 -29v-879q0 -68 51.5 -114.5t137.5 -46.5t137 47t51 116v875q0 31 37 31h158q39 0 39 -29v-879q0 -168 -119.5 -268t-301.5 -100t-301.5 99.5t-119.5 268.5v877q0 31 37 31h157z" />
    <glyph glyph-name="uhungarumlaut" unicode="&#x171;" horiz-adv-x="970" 
d="M446 1370q24 33 50 16l122 -67q35 -18 9 -53l-232 -252q-27 -29 -65 -8l-49 28q-29 14 -11 43zM737 1370q24 33 49 16l123 -67q35 -18 9 -53l-232 -252q-27 -29 -65 -8l-50 28q-29 14 -10 43zM862 33q0 -33 -33 -33h-161q-29 0 -29 29v22q0 8 -8 8.5t-27 -17.5t-66.5 -37
t-113.5 -19t-129.5 25.5t-131 96t-67.5 228.5v541q0 33 31 32h160q35 0 35 -30v-541q0 -66 43 -112t114.5 -46t114.5 45t43 113v539q0 33 33 32h157q35 0 35 -30v-846z" />
    <glyph glyph-name="Uogonek" unicode="&#x172;" horiz-adv-x="1083" 
d="M315 1264q37 0 37 -29v-879q0 -68 51.5 -114.5t137.5 -46.5t137 47t51 116v875q0 31 37 31h158q39 0 39 -29v-879q0 -158 -108.5 -258t-272.5 -108q-41 -47 -65.5 -105.5t-24.5 -93.5t9 -50t44 -15t80 24t52 24t13 -10l35 -45q10 -14 1.5 -24t-30.5 -29t-75 -40t-125 -21
t-112 44t-40 109q0 118 105 238q-230 38 -279 161.5t-49 198.5v877q0 31 37 31h157z" />
    <glyph glyph-name="uogonek" unicode="&#x173;" horiz-adv-x="970" 
d="M516 -255q0 151 123 269v37q0 8 -8 8.5t-27 -17.5t-66.5 -37t-113.5 -19t-129.5 25.5t-131 96t-67.5 228.5v541q0 33 31 32h160q35 0 35 -30v-541q0 -66 43 -112t114.5 -46t114.5 45t43 113v539q0 33 33 32h157q35 0 35 -30v-846q0 -33 -33 -33h-65q-45 -47 -72.5 -108.5
t-27.5 -98.5t9 -52t44 -15t80 24t52 24t13 -10l35 -45q10 -14 1.5 -24t-30.5 -29t-75 -40t-125 -21t-112 44t-40 96z" />
    <glyph glyph-name="Wcircumflex" unicode="&#x174;" horiz-adv-x="1474" 
d="M657 1640h138q23 0 45 -20l202 -234q22 -28 -2 -36l-65 -31q-27 -14 -45 4l-193 150q-14 12 -28 2l-191 -154q-16 -16 -43 -4l-63 33q-26 10 -2 36l204 234q16 20 43 20zM1405 1264q39 0 39 -29q0 -8 -2 -14l-268 -1194q-8 -27 -48 -27h-163q-41 0 -48 25l-143 659
q-10 41 -21 103.5t-16 62.5q-6 0 -10 -24t-14.5 -71.5t-32.5 -151.5t-56 -260.5t-69 -315.5q-7 -27 -47 -27h-164q-18 0 -28.5 3t-16.5 20l-274 1202v12q0 27 32 27h170q33 0 37 -31l125 -627l39 -227q2 -6 6 -5t6 7l43 219l140 637q5 27 41 27h149q30 0 37 -29
q37 -160 76 -318.5t69 -318.5l45 -217q2 -10 7.5 -10.5t11.5 31.5t15.5 88.5t17.5 110.5q18 115 60.5 333.5t55.5 300.5q6 29 39 29h160z" />
    <glyph glyph-name="wcircumflex" unicode="&#x175;" horiz-adv-x="1345" 
d="M604 1368h137q23 0 45 -22l203 -267q21 -32 -2 -43l-65 -35q-26 -16 -45 5l-193 184q-16 14 -29 2l-190 -188q-20 -20 -43 -5l-64 37q-23 12 -2 43l205 267q18 22 43 22zM899 0q-23 0 -34 5t-19 30l-103 325l-67 250q-10 15 -17 0l-71 -264l-96 -313q-8 -25 -21.5 -29
t-30.5 -4h-131q-23 0 -34 6t-19 29l-231 831q-8 16 -1 29.5t29 13.5h156q45 0 53 -39l66 -286l55 -258q2 -8 8 -8.5t10 8.5l70 254l86 284q14 45 49 45h127q16 0 27.5 -6t21.5 -35l99 -321l61 -221q2 -6 9 -7.5t10 7.5l114 540q14 43 58 43h151q42 0 31 -43l-236 -829
q-10 -37 -49 -37h-131z" />
    <glyph glyph-name="Ycircumflex" unicode="&#x176;" horiz-adv-x="952" 
d="M401 1640h138q23 0 45 -20l202 -234q22 -28 -2 -36l-65 -31q-27 -14 -45 4l-193 150q-14 12 -28 2l-191 -154q-16 -16 -43 -4l-63 33q-26 10 -2 36l204 234q16 20 43 20zM221 1264q23 0 36 -5.5t24 -27.5l184 -498q12 -12 18 -2q136 357 185 496q10 20 21 28.5t42 8.5
h152q53 0 35 -41l-316 -729q-12 -24 -12 -54v-403q0 -37 -37 -37h-158q-37 0 -37 35v409q0 25 -10 45l-317 732q-16 43 28 43h162z" />
    <glyph glyph-name="ycircumflex" unicode="&#x177;" horiz-adv-x="888" 
d="M379 1368h137q23 0 45 -22l203 -267q21 -32 -2 -43l-66 -35q-25 -15 -45 5l-192 184q-16 14 -29 2l-190 -188q-20 -20 -43 -5l-64 37q-23 12 -2 43l205 267q18 22 43 22zM432 -373h-133q-50 0 -31 54l88 284q4 16 3 25.5t-19 9.5h-23q-40 0 -51 43l-237 825q-12 45 30 45
h164q35 0 49 -39l154 -630q4 -16 12 -16.5t15 16.5l71 245l119 381q11 43 53 43h148q20 0 30.5 -14t2.5 -37l-385 -1192q-16 -43 -60 -43z" />
    <glyph glyph-name="Ydieresis" unicode="&#x178;" horiz-adv-x="952" 
d="M414 1452q0 -51 -35 -85t-88 -34t-88 34t-35 85t35 86t88 35t88 -35t35 -86zM774 1452q0 -51 -34.5 -85t-88 -34t-89.5 34t-36 85t36 86t88 35t88 -35t36 -86zM221 1264q23 0 36 -5.5t24 -27.5l184 -498q12 -12 18 -2q136 357 185 496q10 20 21 28.5t42 8.5h152
q53 0 35 -41l-316 -729q-12 -24 -12 -54v-403q0 -37 -37 -37h-158q-37 0 -37 35v409q0 25 -10 45l-317 732q-16 43 28 43h162z" />
    <glyph glyph-name="Zacute" unicode="&#x179;" horiz-adv-x="903" 
d="M721 1528q16 -18 7 -32.5t-19 -18.5l-316 -160q-26 -14 -49 14l-41 53q-20 25 6 46l248 188q57 42 84 6zM121 0q-60 0 -60 53v60q1 37 19 69t54 99t81 152t95 177t112 208.5t110 207.5q18 35 -10 35h-389q-33 0 -33 37v135q0 31 37 31h637q53 0 53 -45v-72q0 -38 -26 -90
l-443 -826q-18 -25 11 -24h444q14 0 24.5 -8.5t10.5 -26.5v-139q0 -33 -35 -33h-692z" />
    <glyph glyph-name="zacute" unicode="&#x17a;" horiz-adv-x="874" 
d="M471 1004q-22 -22 -51 -5l-58 35q-27 14 -12 43l178 293q8 14 22.5 18.5t27.5 -2.5l122 -67q23 -12 19 -28.5t-12 -24.5zM774 195q35 0 35 -33v-129q0 -33 -33 -33h-655q-55 0 -55 47v59q0 40 20 72l375 510q8 10 6 18.5t-16 8.5h-332q-35 0 -35 30v132q0 33 33 32h604
q59 0 59 -47v-80q0 -38 -22 -69l-357 -490q-18 -29 17 -28h356z" />
    <glyph glyph-name="Zdotaccent" unicode="&#x17b;" horiz-adv-x="903" 
d="M596 1463q0 -50 -35 -85t-88 -35t-89 33t-36 84t36 87t88 36t88 -35t36 -85zM121 0q-60 0 -60 53v60q1 37 19 69t54 99t81 152t95 177t112 208.5t110 207.5q18 35 -10 35h-389q-33 0 -33 37v135q0 31 37 31h637q53 0 53 -45v-72q0 -38 -26 -90l-443 -826q-18 -25 11 -24
h444q14 0 24.5 -8.5t10.5 -26.5v-139q0 -33 -35 -33h-692z" />
    <glyph glyph-name="zdotaccent" unicode="&#x17c;" horiz-adv-x="874" 
d="M582 1144q0 -50 -35 -85t-88 -35t-89 33t-36 84t36 87t88 36t88 -35t36 -85zM774 195q35 0 35 -33v-129q0 -33 -33 -33h-655q-55 0 -55 47v59q0 40 20 72l375 510q8 10 6 18.5t-16 8.5h-332q-35 0 -35 30v132q0 33 33 32h604q59 0 59 -47v-80q0 -38 -22 -69l-357 -490
q-18 -29 17 -28h356z" />
    <glyph glyph-name="Zcaron" unicode="&#x17d;" horiz-adv-x="903" 
d="M551 1319h-137q-27 0 -43 20l-205 234q-22 28 2 37l63 32q27 14 43 -4l191 -153q14 -10 29 2l192 149q19 19 45 4l66 -30q24 -9 2 -37l-203 -234q-20 -20 -45 -20zM121 0q-60 0 -60 53v60q1 37 19 69t54 99t81 152t95 177t112 208.5t110 207.5q18 35 -10 35h-389
q-33 0 -33 37v135q0 31 37 31h637q53 0 53 -45v-72q0 -38 -26 -90l-443 -826q-18 -25 11 -24h444q14 0 24.5 -8.5t10.5 -26.5v-139q0 -33 -35 -33h-692z" />
    <glyph glyph-name="zcaron" unicode="&#x17e;" horiz-adv-x="874" 
d="M510 993h-137q-25 0 -43 23l-205 266q-21 32 2 43l63 37q24 15 43 -4l191 -189q12 -14 29 2l192 185q20 20 45 4l66 -35q23 -12 2 -43l-203 -266q-23 -23 -45 -23zM774 195q35 0 35 -33v-129q0 -33 -33 -33h-655q-55 0 -55 47v59q0 40 20 72l375 510q8 10 6 18.5t-16 8.5
h-332q-35 0 -35 30v132q0 33 33 32h604q59 0 59 -47v-80q0 -38 -22 -69l-357 -490q-18 -29 17 -28h356z" />
    <glyph glyph-name="florin" unicode="&#x192;" horiz-adv-x="1017" 
d="M287 573q-43 0 -43 31v121q2 35 45 35h114q29 0 29 24l27 172q38 266 157 298t189 32t127 -20q48 -12 33 -52l-41 -122q-10 -23 -23.5 -27t-44.5 2q-72 20 -118 -6.5t-60 -122.5l-25 -156q-2 -10 1 -15t18 -5h112q20 0 32.5 -7t12.5 -30v-119q0 -23 -11 -28t-32 -5h-137
q-31 0 -31 -28l-57 -404q-26 -187 -116 -270.5t-222 -83.5q-64 0 -139 18q-16 6 -29.5 15.5t-3.5 36.5l41 125q10 23 23.5 25.5t44.5 -3.5q78 -16 118.5 10.5t57.5 120.5l61 410q6 29 -18 28h-92z" />
    <glyph glyph-name="AEacute" unicode="&#x1fc;" horiz-adv-x="1554" 
d="M1233 1528q16 -18 7 -32.5t-19 -18.5l-316 -160q-26 -14 -49 14l-41 53q-20 25 6 46l248 188q57 42 84 6zM690 483q29 0 29 27v532q0 18 -21 19h-63q-18 0 -23 -17l-190 -542q-8 -18 12 -19h256zM1393 580q0 -37 -31 -37h-383q-18 0 -22.5 -7.5t-4.5 -23.5v-274
q0 -10 3 -20.5t26 -10.5h475q33 0 33 -35v-139q0 -33 -33 -33h-700q-37 0 -37 31v221q0 12 -3 23.5t-26 11.5h-319q-22 0 -33 -27l-86 -231q-11 -29 -41 -29h-158q-42 0 -26 47t52 140.5t81 209t94 242.5t93 242.5t80 209t54 142.5q16 31 51 31h912q33 0 33 -31v-135
q0 -37 -31 -37h-465q-29 0 -29 -27v-254q0 -18 5.5 -25t23.5 -7h381q18 0 24.5 -7.5t6.5 -25.5v-135z" />
    <glyph glyph-name="aeacute" unicode="&#x1fd;" horiz-adv-x="1464" 
d="M774 1004q-22 -22 -51 -5l-57 35q-27 14 -13 43l178 293q8 14 22.5 18.5t27.5 -2.5l123 -67q23 -12 18.5 -28.5t-12.5 -24.5zM997 731q-64 0 -104.5 -42t-46.5 -101q0 -29 35 -29h247q16 0 23.5 11.5t3.5 27.5h2q-8 61 -52 97t-108 36zM448 459q-64 0 -105.5 -42
t-41.5 -103.5t41 -104.5t110 -43t107.5 45t37.5 103t-43 101.5t-106 43.5zM883 410q-41 0 -41 -35v-31q0 -66 43 -114t109 -48t108 31t62 55t30 28.5t29 -7.5l100 -64q42 -28 27 -55q-53 -96 -146.5 -139t-192.5 -43q-185 0 -294 100q-12 12 -17.5 8t-13.5 -12
q-96 -96 -256 -96t-254 85.5t-94 230.5q0 144 92.5 234.5t253.5 90.5q90 0 158 -47q10 -8 19 -6t9 18v29q0 61 -49 95t-126 34t-197 -52q-35 -14 -45 19l-37 100q-6 14 0 25.5t46 29.5q111 52 221 52q186 0 292 -80q14 -10 22 -4q106 84 267 84q162 0 268 -98.5t106 -260.5
v-96q0 -29 -16 -45t-41 -16h-442z" />
    <glyph glyph-name="Oslashacute" unicode="&#x1fe;" horiz-adv-x="1083" 
d="M854 1528q16 -18 7 -32.5t-19 -18.5l-316 -160q-26 -14 -49 14l-41 53q-20 25 6 46l248 188q57 42 84 6zM350 451q0 -12 6 -11.5t11 6.5l315 547q12 16 -6 37q-41 47 -132 47t-142.5 -50t-51.5 -120v-456zM727 809q0 12 -3 12t-7 -6l-318 -553q-6 -14 2 -22
q54 -50 137 -50t136 48.5t53 119.5v451zM119 348v557q0 173 119 274t305 101q129 0 245 -61q17 -7 31 10l27 43q12 20 37 8l63 -33q14 -8 11 -18t-9 -21l-41 -71q-11 -18 7 -43q48 -64 47 -174v-568q0 -168 -120.5 -266t-288.5 -98t-257 57q-16 12 -25 0l-26 -41
q-14 -25 -35 -12l-64 35q-21 12 -4 39l35 61q2 6 6 13t-12 28t-33.5 74t-17.5 106z" />
    <glyph glyph-name="oslashacute" unicode="&#x1ff;" horiz-adv-x="958" 
d="M522 1004q-22 -22 -51 -5l-57 35q-27 14 -13 43l179 293q19 32 49 16l123 -67q23 -12 18.5 -28.5t-12.5 -24.5zM484 182q62 0 106.5 42t46.5 114v199q0 4 -2 8t-8 -4l-240 -299q-18 -23 -6 -29q41 -31 103 -31zM319 371q0 -12 9 -4l252 311q10 12 -23 32t-89 20
t-102.5 -44.5t-46.5 -114.5v-200zM862 578v-238q0 -165 -107 -258.5t-256 -93.5t-241 55q-10 4 -15 8t-14 -6l-39 -49q-12 -16 -34 2l-56 49q-4 4 -7 15.5t7 21.5l37 43q12 12 4 27l-12 24q-33 66 -33 154v246q0 152 106.5 250t258.5 98q153 0 252 -64q10 -4 22 8l37 45
q16 16 35 -2l51 -47q10 -6 12 -15t-8 -15l-43 -54q-13 -14 5 -38q38 -50 38 -166z" />
    <glyph glyph-name="Scommaaccent" unicode="&#x218;" horiz-adv-x="997" 
d="M444 -463h-53q-29 0 -34 20.5t-5 39.5l23 274q5 55 55 55h119q39 0 48 -18.5t1 -48.5l-96 -279q-10 -27 -22.5 -35t-35.5 -8zM805.5 90.5q-122.5 -100.5 -316.5 -100.5q-113 0 -222 36.5t-187 116.5q-18 16 -20.5 30.5t16.5 37.5l80 90q18 20 31.5 16t33.5 -20
q53 -47 128 -75.5t134 -28.5q111 0 161 45t50 101t-20.5 87t-67.5 62.5t-142 63.5q-180 60 -273 140.5t-93 234.5t114 253.5t304 99.5t336 -94q23 -16 21.5 -29.5t-15.5 -36.5l-53 -98q-21 -33 -62 -14q-135 71 -221 71t-140 -34.5t-54 -111.5t53.5 -111.5t140.5 -66.5
t155 -59.5t159.5 -96.5t91.5 -239q0 -169 -122.5 -269.5z" />
    <glyph glyph-name="scommaaccent" unicode="&#x219;" horiz-adv-x="845" 
d="M389 -463h-53q-29 0 -34 20.5t-5 39.5l22 274q5 55 56 55h119q39 0 48 -18.5t1 -48.5l-97 -279q-10 -27 -22 -35t-35 -8zM681.5 62.5q-98.5 -72.5 -267.5 -72.5q-168 0 -243 66t-91 98t-16.5 44.5t14.5 20.5l115 64q29 16 47 -9q82 -102 198 -102q41 0 81 22.5t40 60.5
t-24.5 58.5t-62.5 33.5t-77 24t-109 35t-133 81.5t-63 142.5q0 149 96 221.5t234 72.5q78 0 164 -26t151 -85q18 -18 -2 -49l-65 -96q-20 -20 -88 23.5t-153 43.5q-122 0 -122 -80q0 -53 96 -86q59 -18 126 -39.5t160 -77.5t93 -187q0 -130 -98.5 -202.5z" />
    <glyph glyph-name="schwa" unicode="&#x259;" horiz-adv-x="937" 
d="M467 182q64 0 104.5 42t46.5 102q0 29 -34 28h-248q-16 0 -23.5 -11t-3.5 -28h-2q8 -61 52 -97t108 -36zM582 504q41 0 41 35v30q0 66 -43.5 114t-109.5 48q-103 0 -179 -96q-10 -12 -20.5 -17.5t-28.5 7.5l-101 63q-42 28 -26 55q105 183 360 183q176 0 274.5 -95.5
t98.5 -252.5v-232q0 -157 -106 -257.5t-276 -100.5t-277 97.5t-107 260.5v96q0 29 16.5 45.5t40.5 16.5h443z" />
    <glyph glyph-name="primemod" unicode="&#x2b9;" horiz-adv-x="473" 
d="M25 826q0 15 6 32l194 438q9 20 27 28t35 -1l133 -70q47 -23 12 -71l-260 -406q-20 -33 -59 -10l-68 33q-20 12 -20 27z" />
    <glyph glyph-name="circumflex" unicode="&#x2c6;" horiz-adv-x="935" 
d="M408 1368h137q23 0 45 -22l203 -267q21 -32 -2 -43l-66 -35q-26 -16 -45 5l-193 184q-16 14 -28 2l-191 -188q-10 -10 -18 -12.5t-25 7.5l-63 37q-23 12 -2 43l205 267q18 22 43 22z" />
    <glyph glyph-name="caron" unicode="&#x2c7;" horiz-adv-x="874" 
d="M573 993h-137q-25 0 -43 23l-205 266q-21 32 2 43l64 37q24 15 43 -4l190 -189q12 -14 29 2l193 185q19 19 45 4l65 -35q23 -12 2 -43l-203 -266q-23 -23 -45 -23z" />
    <glyph glyph-name="breve" unicode="&#x2d8;" horiz-adv-x="962" 
d="M283 1313h82q20 0 25 -5t6 -40t30 -68t83 -33q102 0 120 121q2 16 7 21.5t26 5.5h73q20 0 25.5 -4t3.5 -42q-5 -100 -70.5 -174.5t-184.5 -74.5t-187 77t-72 187q0 16 5 22.5t28 6.5z" />
    <glyph glyph-name="dotaccent" unicode="&#x2d9;" horiz-adv-x="944" 
d="M641 1144q0 -50 -35 -85t-88 -35t-89 33t-36 84t36 87t88 36t88 -35t36 -85z" />
    <glyph glyph-name="ring" unicode="&#x2da;" horiz-adv-x="946" 
d="M602 1181.5q0 30.5 -23.5 55.5t-54 25t-52 -22.5t-21.5 -56.5t21.5 -55.5t53.5 -21.5t54 22.5t22 53zM655.5 1055.5q-53.5 -51.5 -129.5 -51.5t-128 52t-52 126t50 127t127 53t131.5 -52t54.5 -128q0 -75 -53.5 -126.5z" />
    <glyph glyph-name="ogonek" unicode="&#x2db;" horiz-adv-x="927" 
d="M561 43q17 0 17 -11t-7 -14q-53 -47 -85.5 -115.5t-32.5 -107.5t9 -54t44 -15t80 24t52 24t13 -10l35 -45q10 -14 2 -24t-30 -29t-76 -40t-126 -21t-111.5 44t-39.5 96q0 77 43.5 162.5t80 110.5t50.5 25h82z" />
    <glyph glyph-name="tilde" unicode="&#x2dc;" horiz-adv-x="935" 
d="M470 1070q-87 32 -112 32q-57 0 -102 -51q-18 -21 -41 0l-57 55q-16 16 -4 37q29 49 81 84t98 35q60 0 143 -34t112 -34t49.5 19.5t32.5 34.5t19 16.5t20 -7.5l69 -45q14 -10 16 -18t-8 -31q-33 -59 -85 -92t-98 -33t-133 32z" />
    <glyph glyph-name="hungarumlaut" unicode="&#x2dd;" horiz-adv-x="958" 
d="M414 1370q23 33 49 16l123 -67q34 -18 8 -53l-232 -252q-27 -29 -65 -8l-49 28q-29 14 -10 43zM705 1370q23 33 49 16l123 -67q34 -18 8 -53l-232 -252q-27 -29 -65 -8l-49 28q-29 14 -11 43z" />
    <glyph glyph-name="tonos" unicode="&#x384;" horiz-adv-x="931" 
d="M522 1004q-21 -21 -51 -5l-57 35q-27 14 -13 43l179 293q19 32 49 16l123 -67q22 -13 18 -29t-12 -24z" />
    <glyph glyph-name="dieresistonos" unicode="&#x385;" horiz-adv-x="946" 
d="M334 1152q0 -50 -35 -85t-88 -35t-89 34t-36 85t36 86t88 35t88 -35t36 -85zM459 1004q-22 -22 -51 -5l-60 35q-25 14 -10 43l176 293q23 32 51 16l123 -67q23 -12 18.5 -28.5t-12.5 -24.5zM924 1152q0 -50 -36 -85t-88 -35t-89 34t-37 85t36 86t88 35t89 -35t37 -85z
" />
    <glyph glyph-name="Alphatonos" unicode="&#x386;" horiz-adv-x="987" 
d="M-39 928q-22 -22 -51 -4l-57 34q-27 14 -13 43l178 293q18 32 50 17l122 -68q23 -12 19 -28.5t-12 -24.5zM385 451h213q20 0 12 20l-65 287l-49 235q-2 8 -7.5 9.5t-7.5 -9.5l-110 -524q-2 -10 0 -14t14 -4zM924 0h-166q-33 0 -41 27l-47 204q-7 29 -27 29h-303
q-16 0 -20.5 -8t-8.5 -22t-10 -41t-18 -83t-19 -81t-39 -25h-157q-29 0 -34 12.5t-1 28.5l299 1194q10 29 43 29h233q14 0 24.5 -3.5t14.5 -23.5l307 -1194q4 -10 1 -26.5t-31 -16.5z" />
    <glyph glyph-name="anoteleia" unicode="&#x387;" horiz-adv-x="468" 
d="M371 675q0 -52 -40 -93t-96 -41t-96.5 40t-40.5 93t40 92t95.5 39t96.5 -39t41 -91z" />
    <glyph glyph-name="Epsilontonos" unicode="&#x388;" horiz-adv-x="958" 
d="M-207 928q-22 -22 -51 -4l-57 34q-27 14 -13 43l178 293q18 32 50 17l123 -68q23 -12 18.5 -28.5t-12.5 -24.5zM844 1264q35 0 35 -33v-133q0 -37 -33 -37h-457q-20 0 -26.5 -6t-6.5 -21v-246q0 -35 33 -34h377q33 0 33 -37v-131q0 -35 -33 -35h-379q-18 0 -24.5 -7
t-6.5 -24v-282q0 -18 8.5 -24.5t28.5 -6.5h463q33 0 33 -35v-135q0 -37 -33 -37h-694q-37 0 -37 35v1194q0 35 37 35h682z" />
    <glyph glyph-name="Etatonos" unicode="&#x389;" horiz-adv-x="1126" 
d="M-207 928q-22 -22 -51 -4l-57 34q-27 14 -13 43l178 293q18 32 50 17l123 -68q23 -12 18.5 -28.5t-12.5 -24.5zM326 1264q36 0 36 -29v-449q0 -23 5.5 -29.5t23.5 -6.5h342q18 0 25.5 7t7.5 29v447q0 31 35 31h157q39 0 39 -29v-1202q0 -33 -36 -33h-158q-37 0 -37 31
v481q0 35 -35 35h-334q-23 0 -29 -9.5t-6 -25.5v-479q0 -33 -36 -33h-158q-39 0 -39 31v1202q0 31 39 31h158z" />
    <glyph glyph-name="Iotatonos" unicode="&#x38a;" horiz-adv-x="526" 
d="M-166 928q-22 -22 -51 -4l-57 34q-27 14 -13 43l178 293q18 32 50 17l122 -68q23 -12 19 -28.5t-12 -24.5zM180 0q-37 0 -37 31v1202q0 31 37 31h160q37 0 37 -31v-1200q0 -33 -37 -33h-160z" />
    <glyph glyph-name="Omicrontonos" unicode="&#x38c;" horiz-adv-x="1083" 
d="M-121 928q-22 -22 -51 -4l-57 34q-27 14 -13 43l179 293q18 31 49 17l123 -68q23 -12 18.5 -28.5t-12.5 -24.5zM727 907q0 72 -46 121t-138 49t-141.5 -49t-49.5 -121v-545q0 -72 48.5 -119.5t137.5 -47.5t139 48t50 119v545zM961 360q0 -170 -117 -271t-300.5 -101
t-303 99.5t-119.5 272.5v549q0 171 117.5 273t298.5 102q182 0 303 -101t121 -274v-549z" />
    <glyph glyph-name="Upsilontonos" unicode="&#x38e;" horiz-adv-x="952" 
d="M-262 928q-22 -22 -51 -4l-58 34q-27 14 -12 43l178 293q8 14 22.5 18.5t26.5 -1.5l123 -68q23 -12 19 -28.5t-13 -24.5zM221 1264q23 0 36 -5.5t24 -27.5l184 -498q12 -12 18 -2q136 357 185 496q10 20 21 28.5t42 8.5h152q53 0 35 -41l-316 -729q-12 -24 -12 -54v-403
q0 -37 -37 -37h-158q-37 0 -37 35v409q0 25 -10 45l-317 732q-16 43 28 43h162z" />
    <glyph glyph-name="Omegatonos" unicode="&#x38f;" horiz-adv-x="1138" 
d="M-125 928q-22 -22 -51 -4l-57 34q-27 14 -13 43l178 293q18 32 50 17l122 -68q23 -12 19 -28.5t-12 -24.5zM999 199q33 0 33 -31v-137q0 -31 -33 -31h-319q-23 0 -32 6t-9 25v162q0 33 29 49q100 39 100 157v498q0 125 -71 153.5t-125 28.5q-99 0 -151 -54.5t-52 -127.5
v-496q0 -112 104 -161q25 -16 25 -52v-155q0 -20 -8.5 -26.5t-30.5 -6.5h-318q-35 0 -35 31v135q0 33 35 33h76q10 0 2 8q-82 56 -82 225v467q0 163 118.5 274t319.5 111t313.5 -104.5t112.5 -280.5v-477q-5 -146 -83 -217q-4 -2 -3.5 -4t5.5 -2h79z" />
    <glyph glyph-name="iotadieresistonos" unicode="&#x390;" horiz-adv-x="450" 
d="M61 1152q0 -50 -34.5 -85t-88 -35t-89 34t-35.5 85t36 86t88 35t87.5 -35t35.5 -85zM186 1004q-21 -21 -51 -5l-59 35q-25 14 -10 43l176 293q23 32 51 16l123 -67q23 -12 18.5 -28.5t-12.5 -24.5zM651 1152q0 -50 -35.5 -85t-87.5 -35t-89.5 34t-37.5 85t36 86t88 35
t89 -35t37 -85zM307 909q35 0 35 -32v-844q0 -33 -33 -33h-159q-33 0 -33 31v846q0 33 30 32h160z" />
    <glyph glyph-name="Alpha" unicode="&#x391;" horiz-adv-x="987" 
d="M385 451h213q20 0 12 20l-65 287l-49 235q-2 8 -7.5 9.5t-7.5 -9.5l-110 -524q-2 -10 0 -14t14 -4zM924 0h-166q-33 0 -41 27l-47 204q-7 29 -27 29h-303q-16 0 -20.5 -8t-8.5 -22t-10 -41t-18 -83t-19 -81t-39 -25h-157q-29 0 -34 12.5t-1 28.5l299 1194q10 29 43 29
h233q14 0 24.5 -3.5t14.5 -23.5l307 -1194q4 -10 1 -26.5t-31 -16.5z" />
    <glyph glyph-name="Beta" unicode="&#x392;" horiz-adv-x="1056" 
d="M567 768q70 0 107 44t37 109t-39 102.5t-109 37.5h-184q-25 0 -25 -27v-233q0 -33 27 -33h186zM748 362q0 206 -175 207h-188q-31 0 -31 -30v-306q0 -16 6.5 -21t24.5 -5h207q74 0 115 50.5t41 104.5zM944 930q0 -66 -40 -136.5t-99 -109.5q-8 -8 2 -12q92 -41 135 -121
t43 -209.5t-104 -235.5t-285 -106h-436q-37 0 -37 35v1194q0 35 37 35h413q172 0 271.5 -85t99.5 -249z" />
    <glyph glyph-name="Gamma" unicode="&#x393;" horiz-adv-x="903" 
d="M856 1264q33 0 33 -31v-133q0 -31 -33 -31h-457q-32 0 -32 -31v-1005q0 -33 -33 -33h-160q-33 0 -33 31v1200q0 33 33 33h682z" />
    <glyph glyph-name="Delta" unicode="&#x394;" horiz-adv-x="1001" 
d="M495 989q-3 0 -8 -6q-12 -66 -28.5 -135.5t-30.5 -134.5l-111 -500q0 -10 1 -16.5t18 -6.5h323q10 0 15.5 9t-10.5 77t-47 190t-51 220t-37 163.5t-24 102.5t-10 37zM59 0q-40 0 -30 39l319 1196q6 29 39 29h223q33 0 37 -27l320 -1192q4 -16 1 -30.5t-32 -14.5h-877z
" />
    <glyph glyph-name="Delta" unicode="&#x2206;" horiz-adv-x="1001" 
d="M495 989q-3 0 -8 -6q-12 -66 -28.5 -135.5t-30.5 -134.5l-111 -500q0 -10 1 -16.5t18 -6.5h323q10 0 15.5 9t-10.5 77t-47 190t-51 220t-37 163.5t-24 102.5t-10 37zM59 0q-40 0 -30 39l319 1196q6 29 39 29h223q33 0 37 -27l320 -1192q4 -16 1 -30.5t-32 -14.5h-877z
" />
    <glyph glyph-name="Epsilon" unicode="&#x395;" horiz-adv-x="958" 
d="M844 1264q35 0 35 -33v-133q0 -37 -33 -37h-457q-20 0 -26.5 -6t-6.5 -21v-246q0 -35 33 -34h377q33 0 33 -37v-131q0 -35 -33 -35h-379q-18 0 -24.5 -7t-6.5 -24v-282q0 -18 8.5 -24.5t28.5 -6.5h463q33 0 33 -35v-135q0 -37 -33 -37h-694q-37 0 -37 35v1194q0 35 37 35
h682z" />
    <glyph glyph-name="Zeta" unicode="&#x396;" horiz-adv-x="903" 
d="M121 0q-60 0 -60 53v60q1 37 19 69t54 99t81 152t95 177t112 208.5t110 207.5q18 35 -10 35h-389q-33 0 -33 37v135q0 31 37 31h637q53 0 53 -45v-72q0 -38 -26 -90l-443 -826q-18 -25 11 -24h444q14 0 24.5 -8.5t10.5 -26.5v-139q0 -33 -35 -33h-692z" />
    <glyph glyph-name="Eta" unicode="&#x397;" horiz-adv-x="1126" 
d="M326 1264q36 0 36 -29v-449q0 -23 5.5 -29.5t23.5 -6.5h342q18 0 25.5 7t7.5 29v447q0 31 35 31h157q39 0 39 -29v-1202q0 -33 -36 -33h-158q-37 0 -37 31v481q0 35 -35 35h-334q-23 0 -29 -9.5t-6 -25.5v-479q0 -33 -36 -33h-158q-39 0 -39 31v1202q0 31 39 31h158z" />
    <glyph glyph-name="Theta" unicode="&#x398;" horiz-adv-x="1120" 
d="M438 543q-33 0 -32 32v136q0 33 32 32h246q31 0 31 -32v-136q0 -33 -31 -32h-246zM768 899q0 72 -53 125t-155 53t-155 -53t-53 -125v-532q0 -72 53.5 -123t155.5 -51t154.5 51t52.5 123v532zM999 365q0 -173 -121.5 -275t-318.5 -102q-196 0 -317 99.5t-121 277.5v538
q0 172 123.5 276.5t321.5 104.5t315.5 -102.5t117.5 -278.5v-538z" />
    <glyph glyph-name="Iota" unicode="&#x399;" horiz-adv-x="526" 
d="M180 0q-37 0 -37 31v1202q0 31 37 31h160q37 0 37 -31v-1200q0 -33 -37 -33h-160z" />
    <glyph glyph-name="Kappa" unicode="&#x39a;" horiz-adv-x="1093" 
d="M965 0h-164q-31 0 -33 31l-25 370q-11 189 -184 189q-92 0 -143 -55.5t-51 -139.5l-3 -362q0 -33 -28 -33h-174q-29 0 -29 31v1200q0 33 35 33h166q31 0 30 -31v-426q0 -25 25 -6l354 440q20 23 56 23h182q18 0 23.5 -11.5t-5.5 -25.5l-358 -447q-16 -23 8 -22h23
q24 0 41 -4q129 -20 192.5 -110.5t63.5 -227.5l26 -383q0 -33 -28 -33z" />
    <glyph glyph-name="Lambda" unicode="&#x39b;" horiz-adv-x="991" 
d="M217 0h-156q-29 0 -35 14.5t3 30.5q48 177 118 445t99.5 378.5t55.5 205.5t44 163q8 27 41 27h215q33 0 39 -25q18 -68 44 -163t55.5 -205.5t60 -228.5t60.5 -228.5t55.5 -205.5t37.5 -135t8 -56.5t-32 -16.5h-170q-33 0 -39 27l-225 936q0 6 -5.5 8t-7.5 -8l-63 -287
l-152 -647q-6 -29 -51 -29z" />
    <glyph glyph-name="Mu" unicode="&#x39c;" horiz-adv-x="1343" 
d="M1233 35q0 -35 -37 -35h-149q-35 0 -35 31v653q0 10 -11 0l-83 -223l-150 -387q-18 -37 -49 -37h-94q-20 0 -32.5 4t-23.5 27l-145 383l-82 229q-8 8 -8 0v-649q0 -31 -37 -31h-150q-37 0 -36 35v1188q0 41 43 41h127q25 0 38 -4.5t22 -25.5t26.5 -65.5t40 -102.5
t48 -123.5t47 -124t39 -102.5t23.5 -61l101 -268q8 -20 18 0q7 23 36.5 100.5t43.5 116.5t20 53l222 572q16 35 63 35h121q43 0 43 -41v-1188z" />
    <glyph glyph-name="Nu" unicode="&#x39d;" horiz-adv-x="1124" 
d="M995 41q0 -41 -43 -41h-104q-25 0 -38 4t-26 27l-417 727q-4 10 -10.5 9t-6.5 -13v-725q0 -29 -39 -29h-147q-39 0 -39 29v1185q0 49 47 50h104q29 0 42.5 -8.5t23.5 -28.5l426 -748q8 -8 8 2v750q0 33 35 33h147q37 0 37 -33v-1190z" />
    <glyph glyph-name="Xi" unicode="&#x39e;" horiz-adv-x="1040" 
d="M188 711q0 37 31 37h158q33 0 33 32v254q0 14 -6.5 20.5t-28.5 6.5h-234q-33 0 -32 37v131q0 35 34 35h760q35 0 35 -35v-131q0 -37 -35 -37h-241q-20 0 -26.5 -6t-6.5 -21v-254q0 -18 6 -25t27 -7h163q31 0 31 -37v-131q0 -37 -31 -37h-166q-18 0 -24 -7.5t-6 -23.5
v-274q0 -18 8 -24.5t29 -6.5h252q33 0 32 -39v-131q0 -37 -32 -37h-791q-33 0 -33 37v131q0 39 33 39h246q20 0 28.5 6t8.5 25v274q0 31 -31 31h-160q-31 0 -31 37v131z" />
    <glyph glyph-name="Omicron" unicode="&#x39f;" horiz-adv-x="1083" 
d="M727 907q0 72 -46 121t-138 49t-141.5 -49t-49.5 -121v-545q0 -72 48.5 -119.5t137.5 -47.5t139 48t50 119v545zM961 360q0 -170 -117 -271t-300.5 -101t-303 99.5t-119.5 272.5v549q0 171 117.5 273t298.5 102q182 0 303 -101t121 -274v-549z" />
    <glyph glyph-name="Pi" unicode="&#x3a0;" horiz-adv-x="1167" 
d="M989 1264q37 0 37 -33v-1198q0 -33 -37 -33h-158q-37 0 -36 31v999q0 31 -35 31h-350q-23 0 -28 -7t-5 -24v-997q0 -33 -39 -33h-158q-39 0 -39 31v1198q0 35 39 35h809z" />
    <glyph glyph-name="Rho" unicode="&#x3a1;" horiz-adv-x="995" 
d="M711 884q0 71 -42 124t-122 53h-160q-29 0 -29 -31v-280q0 -31 29 -31h160q74 0 119 47t45 118zM385 516q-25 0 -25 -24v-459q0 -33 -36 -33h-158q-39 0 -39 33v1200q0 31 39 31h381q180 0 287.5 -106t107.5 -269t-111 -268t-282 -105h-164z" />
    <glyph glyph-name="Sigma" unicode="&#x3a3;" horiz-adv-x="913" 
d="M86 1214q0 50 57 50h652q35 0 34 -33v-133q0 -37 -32 -37h-402q-32 0 -16 -27l192 -321q18 -35 19.5 -55.5t-14.5 -47.5t-43 -79t-59 -109t-60.5 -109.5t-42.5 -76.5q-12 -29 20 -29h440q33 0 33 -39v-131q0 -37 -33 -37h-700q-35 0 -44 16.5t-9 36.5v64q0 33 18 69
l226 437q21 34 4 65l-217 375q-23 32 -23 72v79z" />
    <glyph glyph-name="Tau" unicode="&#x3a4;" horiz-adv-x="903" 
d="M866 1098q0 -37 -30 -37h-242q-33 0 -33 -27l-2 -1001q0 -33 -37 -33h-157q-37 0 -37 31l2 1001q0 14 -5.5 21.5t-25.5 7.5h-229q-35 0 -35 37v131q0 35 35 35h766q31 0 30 -33v-133z" />
    <glyph glyph-name="Upsilon" unicode="&#x3a5;" horiz-adv-x="952" 
d="M221 1264q23 0 36 -5.5t24 -27.5l184 -498q12 -12 18 -2q136 357 185 496q10 20 21 28.5t42 8.5h152q53 0 35 -41l-316 -729q-12 -24 -12 -54v-403q0 -37 -37 -37h-158q-37 0 -37 35v409q0 25 -10 45l-317 732q-16 43 28 43h162z" />
    <glyph glyph-name="Phi" unicode="&#x3a6;" horiz-adv-x="1261" 
d="M338 831v-325q0 -102 46 -141t118 -46q14 0 14 11v643q-2 10 -14 10q-82 -2 -123 -48t-41 -104zM920 795q0 87 -31 135.5t-139 52.5q-10 0 -11 -8v-645q0 -10 13 -11q74 8 121 51.5t47 106.5v318zM739 31q0 -31 -37 -31h-153q-33 0 -33 29v80q0 16 -22 16
q-169 12 -271 113t-102 245v334q0 146 106 244.5t271 116.5q16 0 16 12v43q0 31 35 31h153q37 0 37 -29v-43q0 -14 17 -14q168 -12 275.5 -111t107.5 -248v-336q0 -139 -108.5 -242.5t-274.5 -115.5q-16 0 -17 -19v-75z" />
    <glyph glyph-name="Chi" unicode="&#x3a7;" horiz-adv-x="983" 
d="M495.5 442q-6.5 0 -10.5 -10l-196 -399q-12 -25 -25.5 -29t-36.5 -4h-164q-37 0 -36 27q0 12 6 24l309 574q12 23 12 39t-14 38l-277 519q-4 12 -4 18q0 27 37 27h174q39 0 60 -35q12 -29 20 -43l137 -293q8 -8 12.5 -8t10.5 10q41 84 80 166t80 168q23 35 57 35h166
q37 0 37 -25q0 -9 -8 -27l-277 -520q-8 -20 -8 -32.5t10 -32.5q133 -248 228 -422q94 -174 94 -182q0 -25 -39 -25h-166q-23 0 -36.5 5t-43.5 67t-78.5 161t-99.5 199q-4 10 -10.5 10z" />
    <glyph glyph-name="Psi" unicode="&#x3a8;" horiz-adv-x="1251" 
d="M700 1284q37 0 37 -33v-762q0 -28 27 -22q54 9 98 51t45 103v612q0 33 39 33h156q37 0 37 -31v-608q0 -141 -109 -246t-262 -117q-31 -6 -31 -28v-203q0 -33 -35 -33h-157q-35 0 -35 31v202q0 25 -27 31q-157 12 -262.5 113.5t-105.5 249.5v606q0 33 35 33h155
q37 0 37 -31v-614q0 -57 43 -98.5t96 -47.5q27 -6 27 19v757q0 33 37 33h155z" />
    <glyph glyph-name="Omega" unicode="&#x3a9;" horiz-adv-x="1138" 
d="M999 199q33 0 33 -31v-137q0 -31 -33 -31h-319q-23 0 -32 6t-9 25v162q0 33 29 49q100 39 100 157v498q0 125 -71 153.5t-125 28.5q-99 0 -151 -54.5t-52 -127.5v-496q0 -112 104 -161q25 -16 25 -52v-155q0 -20 -8.5 -26.5t-30.5 -6.5h-318q-35 0 -35 31v135q0 33 35 33
h76q10 0 2 8q-82 56 -82 225v467q0 163 118.5 274t319.5 111t313.5 -104.5t112.5 -280.5v-477q-5 -146 -83 -217q-4 -2 -3.5 -4t5.5 -2h79z" />
    <glyph glyph-name="Iotadieresis" unicode="&#x3aa;" horiz-adv-x="526" 
d="M190 1452q0 -51 -34.5 -85t-88 -34t-88 34t-34.5 85t34.5 86t88 35t88 -35t34.5 -86zM551 1452q0 -51 -35 -85t-88 -34t-89 34t-36 85t36 86t88 35t88 -35t36 -86zM180 0q-37 0 -37 31v1202q0 31 37 31h160q37 0 37 -31v-1200q0 -33 -37 -33h-160z" />
    <glyph glyph-name="Upsilondieresis" unicode="&#x3ab;" horiz-adv-x="952" 
d="M410 1452q0 -51 -35 -85t-88.5 -34t-88 34t-34.5 85t34.5 86t88 35t88.5 -35t35 -86zM770 1452q0 -51 -35 -85t-88 -34t-89 34t-36 85t36 86t88 35t88 -35t36 -86zM221 1264q23 0 36 -5.5t24 -27.5l184 -498q12 -12 18 -2q136 357 185 496q10 20 21 28.5t42 8.5h152
q53 0 35 -41l-316 -729q-12 -24 -12 -54v-403q0 -37 -37 -37h-158q-37 0 -37 35v409q0 25 -10 45l-317 732q-16 43 28 43h162z" />
    <glyph glyph-name="alphatonos" unicode="&#x3ac;" horiz-adv-x="931" 
d="M522 1004q-22 -22 -51 -5l-57 35q-27 14 -13 43l179 293q19 32 49 16l123 -67q23 -12 18.5 -28.5t-12.5 -24.5zM485 727q-72 0 -119 -44t-47 -110v-239q0 -66 45.5 -112t117.5 -46t112.5 46t40.5 112l2 237q0 66 -40 111t-112 45zM860 33q0 -33 -33 -33h-157
q-29 0 -33 25v14q-4 23 -29 3q-65 -52 -149 -52q-176 0 -269.5 94t-93.5 248v239q0 150 93 251.5t249 101.5q88 0 131 -30t55 -36t19 10l6 25q6 16 23 16h153q35 0 35 -30v-846z" />
    <glyph glyph-name="epsilontonos" unicode="&#x3ad;" horiz-adv-x="851" 
d="M489 1004q-21 -21 -51 -5l-57 35q-27 14 -12 43l178 293q8 14 22.5 18.5t26.5 -2.5l123 -67q23 -12 18.5 -28.5t-12.5 -24.5zM541 551q28 0 28 -27v-114q0 -27 -28 -27h-127q-43 0 -75 -22.5t-32 -72.5t45 -79t92 -29q103 0 179 80q18 16 32.5 23.5t32.5 -11.5l88 -84
q32 -32 12 -55q-123 -147 -364 -147t-292.5 111t-51.5 171t28.5 111t81.5 76q15 10 0 18q-51 16 -77.5 61.5t-26.5 105.5q0 125 100.5 205.5t249.5 80.5q233 0 338 -148q26 -32 -2 -53l-94 -80q-18 -16 -32.5 -12t-33.5 22q-63 74 -163 74q-53 0 -95.5 -25.5t-42.5 -89
t107 -63.5h123z" />
    <glyph glyph-name="etatonos" unicode="&#x3ae;" horiz-adv-x="983" 
d="M467 1004q-22 -22 -51 -5l-58 35q-27 14 -12 43l178 293q8 14 22.5 18.5t26.5 -2.5l123 -67q23 -12 19 -28.5t-13 -24.5zM874 33q0 -33 -30 -33h-160q-33 0 -33 31v538q0 70 -36.5 114t-115.5 44t-121 -44t-42 -112v-538q0 -33 -35 -33h-158q-33 0 -32 31v846q0 33 32 32
h160q29 0 29 -30v-15q0 -16 2 -16q4 -23 22 0q35 33 95.5 53.5t113.5 20.5q162 0 235.5 -97.5t73.5 -251.5v-540z" />
    <glyph glyph-name="iotatonos" unicode="&#x3af;" horiz-adv-x="436" 
d="M262 1004q-22 -22 -51 -5l-57 35q-27 14 -13 43l178 293q8 14 22.5 18.5t27.5 -2.5l123 -67q23 -12 18.5 -28.5t-12.5 -24.5zM307 909q35 0 35 -32v-844q0 -33 -33 -33h-159q-33 0 -33 31v846q0 33 30 32h160z" />
    <glyph glyph-name="upsilondieresistonos" unicode="&#x3b0;" horiz-adv-x="929" 
d="M313 1152q0 -50 -34.5 -85t-88 -35t-89 34t-35.5 85t35.5 86t87.5 35t88 -35t36 -85zM438 1004q-22 -22 -51 -5l-59 35q-25 14 -11 43l177 293q22 31 51 16l123 -67q23 -12 18.5 -28.5t-12.5 -24.5zM903 1152q0 -50 -36 -85t-88 -35t-89 34t-37 85t36 86t88 35t89 -35
t37 -85zM860 336q0 -157 -103.5 -254.5t-278.5 -97.5t-279.5 96.5t-104.5 255.5v541q0 33 33 32h158q35 0 34 -32v-541q0 -63 43.5 -110.5t115 -47.5t114.5 46t43 112v541q0 33 33 32h159q33 0 33 -32v-541z" />
    <glyph glyph-name="alpha" unicode="&#x3b1;" horiz-adv-x="970" 
d="M485 727q-72 0 -119 -44t-47 -110v-239q0 -66 45.5 -112t117.5 -46t112.5 46t40.5 112l2 237q0 66 -40 111t-112 45zM860 33q0 -33 -33 -33h-157q-29 0 -33 25v14q-4 23 -29 3q-65 -52 -149 -52q-176 0 -269.5 94t-93.5 248v239q0 150 93 251.5t249 101.5q88 0 131 -30
t55 -36t19 10l6 25q6 16 23 16h153q35 0 35 -30v-846z" />
    <glyph glyph-name="beta" unicode="&#x3b2;" horiz-adv-x="983" 
d="M664 502q0 66 -45.5 106.5t-114.5 40.5h-53q-29 0 -29 29v113q0 29 27 28h61q55 0 94 37t39 97t-34.5 107.5t-106.5 47.5t-114 -44t-42 -110v-616q0 -66 46 -112t113 -46t113 45t46 111v166zM887 336q0 -151 -101 -250.5t-256 -99.5q-89 0 -161 49q-23 14 -23 -10v-291
q0 -33 -33 -33h-157q-33 0 -33 31v1204q0 163 102 267t267 104t269.5 -90t104.5 -250q0 -114 -40 -165.5t-60 -63.5t-6 -17q66 -23 96.5 -85.5t30.5 -133.5v-166z" />
    <glyph glyph-name="gamma" unicode="&#x3b3;" horiz-adv-x="886" 
d="M450 346q10 0 17 26q8 26 29.5 100.5t61 200t58.5 195.5q16 37 58 37h149q33 0 33 -23t-97 -284.5t-147 -409.5t-51 -211v-315q0 -33 -35 -33h-157q-33 0 -33 31v293q0 71 -65 282t-89 287t-29.5 95.5t-12.5 40.5t-19 40t-41 19h-12q-16 0 -23.5 5t-11.5 26l-21 108
q-6 25 25 35q77 31 143 31t99.5 -44.5t73.5 -188.5t85 -331q2 -12 12 -12z" />
    <glyph glyph-name="delta" unicode="&#x3b4;" horiz-adv-x="946" 
d="M631 522q0 147 -146 189q-12 4 -23 4t-26 -6q-59 -23 -91 -70t-32 -107v-202q0 -66 42 -110t117 -44t117 43t42 111v192zM856 330q0 -162 -110 -254t-277.5 -92t-273 94t-105.5 244v223q4 80 40 155.5t108 110.5q16 6 16 14t-16 21q-91 79 -91 163q0 151 95 223.5
t247 72.5q180 -4 293 -60q37 -16 23 -51l-39 -100q-10 -23 -21 -26t-43 4t-84.5 24.5t-104.5 17.5t-92 -19.5t-40 -55.5t23.5 -58.5t63 -44.5t111.5 -52q141 -58 209 -141t68 -219v-194z" />
    <glyph glyph-name="epsilon" unicode="&#x3b5;" horiz-adv-x="825" 
d="M541 551q28 0 28 -27v-114q0 -27 -28 -27h-127q-43 0 -75 -22.5t-32 -72.5t45 -79t92 -29q103 0 179 80q18 16 32.5 23.5t32.5 -11.5l88 -84q32 -32 12 -55q-123 -147 -364 -147t-292.5 111t-51.5 171t28.5 111t81.5 76q15 10 0 18q-51 16 -77.5 61.5t-26.5 105.5
q0 125 100.5 205.5t249.5 80.5q233 0 338 -148q26 -32 -2 -53l-94 -80q-18 -16 -32.5 -12t-33.5 22q-63 74 -163 74q-53 0 -95.5 -25.5t-42.5 -89t107 -63.5h123z" />
    <glyph glyph-name="zeta" unicode="&#x3b6;" horiz-adv-x="831" 
d="M829 1266q35 0 45.5 -15.5t10.5 -40.5v-71q0 -53 -31 -72q-348 -239 -450.5 -413t-102.5 -246t36 -115t90 -75t118.5 -55t133.5 -49t118 -66t44 -96q-11 -122 -130 -296q-21 -25 -31 -25t-23 7l-88 43q-16 8 -23.5 15t28.5 73t36 99t-13 48.5t-65 31.5
q-188 57 -325 147.5t-137 274.5t127.5 347.5t332.5 337.5q4 4 5 8q0 6 -11 6h-344q-41 0 -41 39v121q0 37 41 37h649z" />
    <glyph glyph-name="eta" unicode="&#x3b7;" horiz-adv-x="983" 
d="M874 33q0 -33 -30 -33h-160q-33 0 -33 31v538q0 68 -43 114t-114.5 46t-114.5 -45t-43 -113v-538q0 -33 -35 -33h-158q-33 0 -32 31v846q0 33 30 32h160q16 0 21.5 -7t8.5 -30q3 -22 10 -22t29 18q64 56 153 56q167 0 259 -98t92 -253v-540z" />
    <glyph glyph-name="theta" unicode="&#x3b8;" horiz-adv-x="948" 
d="M635 950q0 66 -46 111t-114 45t-113 -44t-45 -110v-161q0 -33 31 -33h260q29 0 27 28v164zM635 549q0 18 -5 23.5t-22 5.5h-264q-25 0 -25 -27v-211q0 -66 43.5 -111t111.5 -45t114.5 45t46.5 111v209zM860 342q0 -157 -104.5 -255.5t-277.5 -98.5t-278.5 97.5
t-105.5 254.5v610q0 157 106.5 255t277 98t276.5 -97.5t106 -253.5v-610z" />
    <glyph glyph-name="iota" unicode="&#x3b9;" horiz-adv-x="458" 
d="M307 909q35 0 35 -32v-844q0 -33 -33 -33h-159q-33 0 -33 31v846q0 33 30 32h160z" />
    <glyph glyph-name="kappa" unicode="&#x3ba;" horiz-adv-x="972" 
d="M336 217v-188q0 -29 -31 -29h-166q-27 0 -26 29v848q0 33 30 32h160q31 0 31 -30v-252q0 -16 9 -18.5t17 5.5l240 273q18 18 53 18h199q18 0 22.5 -12t-6.5 -23q-148 -170 -254 -280q-6 -12 -6 -15q0 -10 13 -10q136 -7 191 -93t67 -247l8 -188v-6q0 -31 -33 -31h-156
q-20 0 -26 8t-8 25l-11 190q-4 83 -39 129.5t-118 46.5q-160 0 -160 -182z" />
    <glyph glyph-name="lambda" unicode="&#x3bb;" horiz-adv-x="987" 
d="M872 33q0 -33 -32 -33h-158q-31 0 -31 31v542q0 63 -45.5 108.5t-113.5 45.5t-113 -44t-45 -110v-540q0 -33 -33 -33h-160q-33 0 -32 31v540q0 155 100 253t250 98q104 0 166 -58q16 -14 21 -8t5 12v82q0 66 -51 112t-130 46t-137 -20q-57 -20 -77 -25.5t-29 14.5
l-37 107q-10 27 -3 37.5t41 30.5t113 35.5t151 15.5q182 0 281 -97.5t99 -253.5v-919z" />
    <glyph glyph-name="nu" unicode="&#x3bd;" horiz-adv-x="884" 
d="M514 0h-143q-23 0 -33 6t-19 29l-290 829q-8 16 -1 30.5t29 14.5h150q48 0 57 -39l103 -348l67 -248q4 -10 9.5 -10t9.5 8l63 242l102 348q16 47 56 47h153q23 0 29 -15t2 -28l-295 -839q-8 -27 -49 -27z" />
    <glyph glyph-name="xi" unicode="&#x3be;" horiz-adv-x="811" 
d="M715 723q41 0 41 -31v-108q0 -37 -41 -37h-189q-95 0 -165 -55t-70 -140q0 -84 68.5 -125t174.5 -67q165 -40 213 -88t48 -100q0 -117 -123 -316q-10 -23 -30.5 -20.5t-27.5 6.5l-100 49q-25 10 -27 22.5t34 78.5t36 103q0 36 -51 52q-94 31 -177 59.5t-181.5 91.5
t-98.5 221q0 94 52.5 177.5t160.5 126.5q6 6 6 9t-8 5q-156 60 -156 214q0 65 46.5 122t140.5 96q8 4 8 8t-16 4h-185q-41 0 -41 41v121q0 35 41 35h654q29 0 46 -8t17 -41v-68q0 -27 -6 -43t-33 -22q-288 -59 -354 -131t-66 -124t53.5 -85t125.5 -33h180z" />
    <glyph glyph-name="omicron" unicode="&#x3bf;" horiz-adv-x="958" 
d="M637 571q0 72 -41 115t-118 43t-118 -44t-41 -114v-231q0 -70 40 -114t116 -44t119 43t43 115v231zM860 338q0 -172 -103.5 -261t-278.5 -89t-278.5 92t-103.5 252v246q0 152 106.5 250t277.5 98t275.5 -90.5t104.5 -257.5v-240z" />
    <glyph glyph-name="pi" unicode="&#x3c0;" horiz-adv-x="980" 
d="M647 680q0 35 -33 35h-247q-23 0 -29 -7.5t-6 -23.5v-651q0 -33 -33 -33h-158q-33 0 -32 31v846q0 33 32 32h695q33 0 32 -30v-846q0 -33 -30 -33h-158q-33 0 -33 31v649z" />
    <glyph glyph-name="rho" unicode="&#x3c1;" horiz-adv-x="952" 
d="M635 578q0 151 -158 151q-68 0 -113 -44t-45 -116l3 -229q0 -66 42 -112t118 -46t115.5 45t37.5 113v238zM862 338q0 -152 -91.5 -252t-242.5 -100q-116 0 -170 45q-18 16 -27 12t-9 -16v-365q0 -33 -33 -33h-160q-33 0 -35 31v901q0 162 100.5 263.5t290.5 101.5
t283.5 -97.5t93.5 -257.5v-233z" />
    <glyph glyph-name="sigma1" unicode="&#x3c2;" horiz-adv-x="870" 
d="M681 60.5q-101 -72.5 -229 -72.5t-222.5 42t-147.5 144q-18 29 10 47l117 66q28 17 53 -17q68 -96 172 -96q53 0 88 22.5t35 54.5t-13.5 47t-37.5 28.5t-93 37.5q-155 55 -234 112.5t-79 175.5t98.5 197t255.5 79t263 -54q45 -17 33 -55l-35 -104q-10 -31 -29.5 -31
t-84.5 26t-140 27q-74 0 -109 -22.5t-35 -57.5q0 -55 97 -86q57 -20 122.5 -42.5t155.5 -78.5t90 -187q0 -130 -101 -202.5z" />
    <glyph glyph-name="sigma" unicode="&#x3c3;" horiz-adv-x="964" 
d="M466 715q-69 0 -114 -45t-45 -111v-219q0 -66 44 -112t113 -46t114 45t45 111l2 219q0 66 -45 112t-114 46zM938 748q0 -31 -33 -31h-92q-16 0 -20.5 -9.5t14.5 -27.5q43 -42 43 -123v-217q0 -161 -105 -256.5t-278 -95.5t-278 95.5t-105 254.5v219q0 157 99.5 254.5
t271.5 97.5h448q35 0 35 -30v-131z" />
    <glyph glyph-name="tau" unicode="&#x3c4;" horiz-adv-x="704" 
d="M190 254v451q0 23 -24 22h-105q-35 0 -34 31v119q0 33 32 32h547q33 0 33 -30v-119q0 -31 -33 -31h-170q-25 0 -24 -22v-416q0 -49 20.5 -75t62.5 -26t81 10t51 3.5t16 -27.5l23 -119q6 -27 -7.5 -36t-52.5 -20t-163 -11q-123 0 -188 76.5t-65 187.5z" />
    <glyph glyph-name="upsilon" unicode="&#x3c5;" horiz-adv-x="948" 
d="M860 336q0 -157 -103.5 -254.5t-278.5 -97.5t-279.5 96.5t-104.5 255.5v541q0 33 33 32h158q35 0 34 -32v-541q0 -63 43.5 -110.5t115 -47.5t114.5 46t43 112v541q0 33 33 32h159q33 0 33 -32v-541z" />
    <glyph glyph-name="phi" unicode="&#x3c6;" horiz-adv-x="1204" 
d="M887 567q0 59 -39 101.5t-111 52.5q-25 0 -24 -21v-497q0 -29 28 -23q59 10 102.5 50t43.5 100v237zM1114 328q0 -144 -107.5 -240t-265.5 -108q-18 -2 -22 -9.5t-4 -19.5v-289q0 -33 -33 -33h-158q-33 0 -32 31v289q0 26 -27 31q-162 12 -267.5 105t-105.5 234v263
q0 111 56.5 194.5t152.5 120.5q35 14 47 -12l66 -121q18 -33 -21 -51q-76 -33 -76 -127v-256q0 -61 43 -103.5t109 -48.5q12 -2 16 2t4 21v690q0 33 35 33h183q169 0 288 -96.5t119 -254.5v-245z" />
    <glyph glyph-name="chi" unicode="&#x3c7;" horiz-adv-x="835" 
d="M53 0q-35 0 -35 25q0 12 7 18l251 393q23 38 0 72l-227 350q-12 20 -5 33.5t30 13.5h151q25 0 35 -4t25 -27l125 -219q10 -14 15 -14t15 16l123 217q14 23 25.5 27t34.5 4h151q35 0 35 -22q0 -17 -8 -25l-228 -348q-16 -25 -15 -38t13 -36l256 -401q8 -12 -1 -23.5
t-31 -11.5h-146q-23 0 -37 8t-30 35l-142 242q-10 16 -18 16t-19 -18l-143 -250q-14 -23 -28.5 -28t-34.5 -5h-144z" />
    <glyph glyph-name="psi" unicode="&#x3c8;" horiz-adv-x="1200" 
d="M1077 909q35 0 35 -30v-541q0 -144 -102.5 -243t-261.5 -118q-31 0 -31 -30v-285q0 -33 -33 -33h-158q-33 0 -32 31v289q0 12 -5.5 19t-55.5 12t-116.5 35t-143.5 104t-77 217v541q0 33 31 32h160q33 0 32 -30v-541q0 -59 40 -107.5t106 -54.5q14 0 20.5 5t6.5 22v717
q0 33 32 32h160q12 0 21.5 -8t9.5 -24v-715q0 -16 6 -22.5t24 -4.5q66 6 104 53.5t38 104.5v541q0 33 33 32h157z" />
    <glyph glyph-name="omega" unicode="&#x3c9;" horiz-adv-x="1335" 
d="M1243 334q0 -162 -89 -254t-240 -92t-222 88q-18 23 -29 21.5t-37 -31.5t-84.5 -54t-123.5 -24q-158 0 -244 88t-86 246v260q0 152 104.5 247t268.5 95q37 0 37 -33v-125q0 -28 -31 -31q-156 -15 -156 -160v-247q0 -84 36 -117t90 -33t88 47t34 107v272q0 31 31 31h147
q33 0 33 -29v-274q0 -61 32 -106.5t90 -45.5t93 36t35 103v252q0 149 -154 164q-33 4 -32 31v125q0 33 36 33q165 0 269 -98t104 -251v-241z" />
    <glyph glyph-name="iotadieresis" unicode="&#x3ca;" horiz-adv-x="458" 
d="M53 1016q-53 0 -88 33.5t-35 85t35 86t88 34.5t88 -34.5t36 -84.5t-35 -85t-89 -35zM537 1136q0 -50 -35 -85t-87 -35t-89 33.5t-37 85t35.5 86t87.5 34.5t88.5 -34.5t36.5 -84.5zM307 909q35 0 35 -32v-844q0 -33 -33 -33h-159q-33 0 -33 31v846q0 33 30 32h160z" />
    <glyph glyph-name="upsilondieresis" unicode="&#x3cb;" horiz-adv-x="948" 
d="M297 1016q-53 0 -88 33.5t-35 85t35 86t88 34.5t88 -34.5t36 -84.5t-35 -85t-89 -35zM780 1136q0 -50 -35 -85t-87 -35t-89 33.5t-37 85t36 86t88 34.5t88 -34.5t36 -84.5zM860 336q0 -157 -103.5 -254.5t-278.5 -97.5t-279.5 96.5t-104.5 255.5v541q0 33 33 32h158
q35 0 34 -32v-541q0 -63 43.5 -110.5t115 -47.5t114.5 46t43 112v541q0 33 33 32h159q33 0 33 -32v-541z" />
    <glyph glyph-name="omicrontonos" unicode="&#x3cc;" horiz-adv-x="958" 
d="M504 1004q-22 -22 -51 -5l-58 35q-27 14 -12 43l178 293q8 14 22.5 18.5t26.5 -2.5l123 -67q23 -12 19 -28.5t-13 -24.5zM637 571q0 72 -41 115t-118 43t-118 -44t-41 -114v-231q0 -70 40 -114t116 -44t119 43t43 115v231zM860 338q0 -172 -103.5 -261t-278.5 -89
t-278.5 92t-103.5 252v246q0 152 106.5 250t277.5 98t275.5 -90.5t104.5 -257.5v-240z" />
    <glyph glyph-name="upsilontonos" unicode="&#x3cd;" horiz-adv-x="948" 
d="M500 1004q-22 -22 -51 -5l-58 35q-27 14 -12 43l178 293q8 14 22.5 18.5t26.5 -2.5l123 -67q23 -12 18.5 -28.5t-12.5 -24.5zM860 336q0 -157 -103.5 -254.5t-278.5 -97.5t-279.5 96.5t-104.5 255.5v541q0 33 33 32h158q35 0 34 -32v-541q0 -63 43.5 -110.5t115 -47.5
t114.5 46t43 112v541q0 33 33 32h159q33 0 33 -32v-541z" />
    <glyph glyph-name="omegatonos" unicode="&#x3ce;" horiz-adv-x="1335" 
d="M662 1004q-21 -21 -52 -5l-57 35q-27 14 -12 43l178 293q8 14 22.5 18.5t26.5 -2.5l123 -67q23 -12 18.5 -28.5t-12.5 -24.5zM1243 334q0 -162 -89 -254t-240 -92t-222 88q-18 23 -29 21.5t-37 -31.5t-84.5 -54t-123.5 -24q-158 0 -244 88t-86 246v260q0 152 104.5 247
t268.5 95q37 0 37 -33v-125q0 -28 -31 -31q-156 -15 -156 -160v-247q0 -84 36 -117t90 -33t88 47t34 107v272q0 31 31 31h147q33 0 33 -29v-274q0 -61 32 -106.5t90 -45.5t93 36t35 103v252q0 149 -154 164q-33 4 -32 31v125q0 33 36 33q165 0 269 -98t104 -251v-241z" />
    <glyph glyph-name="afii10023" unicode="&#x401;" horiz-adv-x="958" 
d="M440 1452q0 -51 -34.5 -85t-88 -34t-88 34t-34.5 85t34.5 86t88 35t88 -35t34.5 -86zM801 1452q0 -51 -35 -85t-88 -34t-89 34t-36 85t36 86t88 35t88 -35t36 -86zM844 1264q35 0 35 -33v-133q0 -37 -33 -37h-457q-20 0 -26.5 -6t-6.5 -21v-246q0 -35 33 -34h377
q33 0 33 -37v-131q0 -35 -33 -35h-379q-18 0 -24.5 -7t-6.5 -24v-282q0 -18 8.5 -24.5t28.5 -6.5h463q33 0 33 -35v-135q0 -37 -33 -37h-694q-37 0 -37 35v1194q0 35 37 35h682z" />
    <glyph glyph-name="afii10051" unicode="&#x402;" horiz-adv-x="1300" 
d="M784 -121q-4 0 -8 29l-14 123q0 16 6 24t35 17q88 23 114.5 74t26.5 133v165q0 179 -194 179q-110 0 -179 -56q-18 -14 -18 -49v-487q0 -31 -39 -31h-156q-37 0 -36 29v1003q0 12 -3.5 19.5t-25.5 7.5h-215q-33 0 -33 37v133q0 35 33 35h860q31 0 31 -35v-133
q0 -37 -31 -37h-354q-31 0 -31 -25v-250q0 -19 22 -4q118 45 230 45q172 0 273.5 -96t101.5 -266l2 -178q0 -260 -126 -328t-231 -78h-41z" />
    <glyph glyph-name="afii10052" unicode="&#x403;" horiz-adv-x="903" 
d="M748 1528q16 -18 6.5 -32.5t-19.5 -18.5l-315 -160q-26 -14 -49 14l-41 53q-20 25 6 46l248 188q56 41 84 6zM856 1264q33 0 33 -31v-133q0 -31 -33 -31h-457q-32 0 -32 -31v-1005q0 -33 -33 -33h-160q-33 0 -33 31v1200q0 33 33 33h682z" />
    <glyph glyph-name="afii10053" unicode="&#x404;" horiz-adv-x="976" 
d="M745 588q0 -37 -30 -37h-334q-16 0 -20.5 -5t-4.5 -22v-176q0 -66 48.5 -109.5t116.5 -43.5q122 0 196 92q10 10 20.5 20t30.5 0l127 -71q31 -21 14 -50q-120 -198 -381 -198q-178 0 -290.5 96.5t-112.5 261.5v578q0 163 112 261.5t285 98.5q254 0 379 -188
q6 -12 6 -25.5t-16 -28.5l-119 -81q-35 -16 -55 16q-76 100 -191 100q-76 0 -123 -44t-47 -109v-150q0 -31 27 -31h332q30 0 30 -36v-119z" />
    <glyph glyph-name="afii10054" unicode="&#x405;" horiz-adv-x="997" 
d="M805.5 90.5q-122.5 -100.5 -316.5 -100.5q-113 0 -222 36.5t-187 116.5q-18 16 -20.5 30.5t16.5 37.5l80 90q18 20 31.5 16t33.5 -20q53 -47 128 -75.5t134 -28.5q111 0 161 45t50 101t-20.5 87t-67.5 62.5t-142 63.5q-180 60 -273 140.5t-93 234.5t114 253.5t304 99.5
t336 -94q23 -16 21.5 -29.5t-15.5 -36.5l-53 -98q-21 -33 -62 -14q-135 71 -221 71t-140 -34.5t-54 -111.5t53.5 -111.5t140.5 -66.5t155 -59.5t159.5 -96.5t91.5 -239q0 -169 -122.5 -269.5z" />
    <glyph glyph-name="afii10055" unicode="&#x406;" horiz-adv-x="526" 
d="M180 0q-37 0 -37 31v1202q0 31 37 31h160q37 0 37 -31v-1200q0 -33 -37 -33h-160z" />
    <glyph glyph-name="afii10056" unicode="&#x407;" horiz-adv-x="526" 
d="M190 1452q0 -51 -34.5 -85t-88 -34t-88 34t-34.5 85t34.5 86t88 35t88 -35t34.5 -86zM551 1452q0 -51 -35 -85t-88 -34t-89 34t-36 85t36 86t88 35t88 -35t36 -86zM180 0q-37 0 -37 31v1202q0 31 37 31h160q37 0 37 -31v-1200q0 -33 -37 -33h-160z" />
    <glyph glyph-name="afii10057" unicode="&#x408;" horiz-adv-x="632" 
d="M248 213v1024q0 27 31 27h167q31 0 31 -27v-1042q0 -201 -91.5 -329.5t-301.5 -176.5q-44 -11 -51 26l-41 127q-4 16 -1 27t45 29q109 46 160.5 115.5t51.5 199.5z" />
    <glyph glyph-name="afii10058" unicode="&#x409;" horiz-adv-x="1697" 
d="M1409 387q0 78 -48 128t-128 50h-199q-31 0 -30 -28v-312q4 -20 30 -20h201q76 0 125 52t49 130zM967 1264q35 0 37 -33v-440q2 -10 6 -15.5t20 -5.5h209q176 0 286.5 -109t110.5 -277t-109.5 -276t-289.5 -108h-426q-25 0 -32 9t-7 26v999q0 27 -27 27h-235
q-25 0 -25 -31v-151q0 -236 -13 -394.5t-52 -262t-108.5 -163t-182.5 -96.5q-23 -8 -34 -2t-21 29l-41 106q-13 28 24 51q68 33 108 75t69.5 143t29.5 505v359q0 35 37 35h666z" />
    <glyph glyph-name="afii10059" unicode="&#x40a;" horiz-adv-x="1624" 
d="M930 795q0 -25 24 -25h222q173 0 280 -108.5t107 -276.5t-110 -276.5t-290 -108.5h-428q-37 0 -37 33v506q0 12 -4 19t-24 7h-277q-31 0 -31 -33v-499q0 -33 -34 -33h-158q-39 0 -39 33v1200q0 31 39 31h156q37 0 36 -29v-430q0 -20 4.5 -27.5t22.5 -7.5h285q25 0 24 35
v430q0 29 37 29h158q37 0 37 -29v-440zM1335 387q0 82 -50 130t-122 48h-205q-16 0 -22 -6t-6 -24v-299q0 -31 28 -31h205q76 0 124 50t48 132z" />
    <glyph glyph-name="afii10060" unicode="&#x40b;" horiz-adv-x="1288" 
d="M293 1059h-217q-33 0 -33 37v133q0 35 33 35h862q31 0 31 -35v-133q0 -37 -31 -37h-356q-31 0 -31 -25v-250q-1 -15 37 1q93 40 215 40q174 0 275.5 -96t101.5 -266v-432q0 -31 -39 -31h-158q-39 0 -39 29v389q0 93 -43 149t-153 56t-175 -56q-22 -13 -22 -49v-487
q0 -31 -37 -31h-156q-39 0 -39 29l3 1003q0 12 -4.5 19.5t-24.5 7.5z" />
    <glyph glyph-name="afii10061" unicode="&#x40c;" horiz-adv-x="1093" 
d="M805 1534q16 -18 7 -32.5t-19 -18.5l-316 -160q-26 -14 -49 14l-41 54q-20 25 6 45l248 188q57 42 84 6zM965 0h-164q-31 0 -33 31l-25 370q-11 189 -184 189q-92 0 -143 -55.5t-51 -139.5l-3 -362q0 -33 -28 -33h-174q-29 0 -29 31v1200q0 33 35 33h166q31 0 30 -31
v-426q0 -25 25 -6l354 440q20 23 56 23h182q18 0 23.5 -11.5t-5.5 -25.5l-358 -447q-16 -23 8 -22h23q24 0 41 -4q129 -20 192.5 -110.5t63.5 -227.5l26 -383q0 -33 -28 -33z" />
    <glyph glyph-name="afii10062" unicode="&#x40e;" horiz-adv-x="948" 
d="M256 1583h82q20 0 25.5 -5t6.5 -40t29.5 -67.5t82.5 -32.5q102 0 120 121q2 16 7 21t26 5h74q20 0 25 -4t3 -42q-5 -100 -70.5 -174.5t-183.5 -74.5q-119 0 -187.5 77t-72.5 187q0 16 5 22.5t28 6.5zM217 1266q23 0 37 -5.5t18 -25.5t19.5 -69.5t36 -115t43 -138
t58.5 -187t40 -127.5q4 -12 10 -12t6 4q59 206 195 641q6 20 18.5 27.5t40.5 7.5h142q33 0 38 -13.5t-4 -35.5l-321 -934q-27 -76 -52.5 -134.5t-80 -119t-195.5 -60.5h-88q-23 0 -30 7.5t-7 29.5v119q0 23 7.5 28t23.5 5h45q43 0 70 10t47 47t20 61t-8 46l-313 892
q-18 51 35 52h149z" />
    <glyph glyph-name="afii10145" unicode="&#x40f;" horiz-adv-x="1167" 
d="M995 1264q31 0 31 -35v-1194q0 -35 -37 -35h-260q-20 0 -26.5 -7t-8.5 -22l2 -225q-2 -35 -15 -41t-30 -6h-127q-23 0 -31 10t-12 39v225q-2 14 -7 20.5t-30 6.5h-262q-39 0 -39 37v1194q0 33 35 33h166q33 0 33 -35v-991q0 -33 33 -33h350q23 0 29 8t6 25v993
q0 33 32 33h168z" />
    <glyph glyph-name="afii10017" unicode="&#x410;" horiz-adv-x="987" 
d="M385 451h213q20 0 12 20l-65 287l-49 235q-2 8 -7.5 9.5t-7.5 -9.5l-110 -524q-2 -10 0 -14t14 -4zM924 0h-166q-33 0 -41 27l-47 204q-7 29 -27 29h-303q-16 0 -20.5 -8t-8.5 -22t-10 -41t-18 -83t-19 -81t-39 -25h-157q-29 0 -34 12.5t-1 28.5l299 1194q10 29 43 29
h233q14 0 24.5 -3.5t14.5 -23.5l307 -1194q4 -10 1 -26.5t-31 -16.5z" />
    <glyph glyph-name="afii10018" unicode="&#x411;" horiz-adv-x="1040" 
d="M354 231q0 -32 33 -32h178q80 0 136.5 47t56.5 140t-55.5 137t-141.5 44h-174q-33 0 -33 -35v-301zM385 1063q-31 0 -31 -29v-241q0 -27 29 -27h203q182 0 290.5 -108.5t108.5 -275.5t-110 -274.5t-289 -107.5h-424q-35 0 -35 33v1194q0 37 37 37h667q35 0 35 -33v-133
q0 -35 -35 -35h-446z" />
    <glyph glyph-name="afii10019" unicode="&#x412;" horiz-adv-x="1056" 
d="M567 768q70 0 107 44t37 109t-39 102.5t-109 37.5h-184q-25 0 -25 -27v-233q0 -33 27 -33h186zM748 362q0 206 -175 207h-188q-31 0 -31 -30v-306q0 -16 6.5 -21t24.5 -5h207q74 0 115 50.5t41 104.5zM944 930q0 -66 -40 -136.5t-99 -109.5q-8 -8 2 -12q92 -41 135 -121
t43 -209.5t-104 -235.5t-285 -106h-436q-37 0 -37 35v1194q0 35 37 35h413q172 0 271.5 -85t99.5 -249z" />
    <glyph glyph-name="afii10020" unicode="&#x413;" horiz-adv-x="903" 
d="M856 1264q33 0 33 -31v-133q0 -31 -33 -31h-457q-32 0 -32 -31v-1005q0 -33 -33 -33h-160q-33 0 -33 31v1200q0 33 33 33h682z" />
    <glyph glyph-name="afii10021" unicode="&#x414;" horiz-adv-x="1198" 
d="M911 -23q0 23 -32 23h-615q-23 0 -28 -5t-9 -26v-213q-4 -29 -14 -35t-27 -6h-127q-20 0 -29.5 6.5t-11.5 28.5v373q0 33 9.5 47t33.5 25l37 10q98 32 130.5 243.5t58.5 770.5q4 29 15 37t34 8h647q23 0 32 -8.5t9 -36.5v-994q0 -17 16 -20h52q25 -2 29.5 -14.5
t4.5 -32.5v-402q-2 -29 -13 -35t-28 -6h-129q-23 0 -32 8.5t-13 32.5v221zM772 207q21 0 21 18v809q0 25 -31 25h-252q-18 0 -19 -30t-5.5 -94.5t-8.5 -134t-9 -132t-8 -97.5t-13 -150t-62 -202q-6 -12 12 -12h375z" />
    <glyph glyph-name="afii10022" unicode="&#x415;" horiz-adv-x="958" 
d="M844 1264q35 0 35 -33v-133q0 -37 -33 -37h-457q-20 0 -26.5 -6t-6.5 -21v-246q0 -35 33 -34h377q33 0 33 -37v-131q0 -35 -33 -35h-379q-18 0 -24.5 -7t-6.5 -24v-282q0 -18 8.5 -24.5t28.5 -6.5h463q33 0 33 -35v-135q0 -37 -33 -37h-694q-37 0 -37 35v1194q0 35 37 35
h682z" />
    <glyph glyph-name="afii10024" unicode="&#x416;" horiz-adv-x="1646" 
d="M111 1264h180q25 0 34 -4.5t21 -18.5l340 -436q4 -6 12.5 -9t10.5 11v426q0 31 30 31h164q35 0 35 -33v-426q0 -24 25 -2l337 438q12 14 21.5 18.5t32.5 4.5h182q18 0 23.5 -11.5t-5.5 -25.5l-358 -457q-8 -10 -6 -17.5t22.5 -7.5t44.5 -4q137 -23 199 -113.5t70 -228.5
l24 -366q2 -33 -28 -33h-164q-31 0 -33 31l-27 368q-8 128 -68.5 158.5t-109.5 30.5q-90 0 -136 -58.5t-46 -136.5v-362q0 -31 -29 -31h-172q-29 0 -28 33v366q0 84 -43 136.5t-138 52.5q-132 0 -156 -78t-26 -111l-24 -368q-4 -31 -33 -31h-164q-31 0 -29 33l31 385
q8 125 76.5 225t238.5 105q12 0 14.5 6t-7.5 16l-357 457q-10 14 -6 25.5t25 11.5z" />
    <glyph glyph-name="afii10025" unicode="&#x417;" horiz-adv-x="1017" 
d="M486 1284q197 0 303 -92.5t106 -245.5q0 -84 -45 -156.5t-117 -101.5q-11 -5 -2 -14q76 -25 132.5 -100.5t56.5 -175.5q0 -193 -124 -301.5t-319 -108.5q-139 0 -211.5 29.5t-119 64t-66.5 70.5t-19.5 47.5t17.5 23.5l108 80q18 12 29.5 10t28.5 -20q31 -41 92 -69.5
t143 -28.5t140.5 51t58.5 141t-59.5 141.5t-151.5 51.5h-131q-33 0 -33 34v119q0 18 6 27.5t27 9.5h153q74 0 122 43t48 107t-44 109.5t-150 45.5t-193 -84q-12 -10 -29.5 -21.5t-33.5 3.5l-94 86q-31 21 -9 49q132 176 380 176z" />
    <glyph glyph-name="afii10026" unicode="&#x418;" horiz-adv-x="1124" 
d="M127 1229q0 35 39 35h151q37 0 37 -35v-768q0 -6 3 -5t57 98t157 288.5t207 380.5q25 41 68 41h115q37 0 36 -35v-1194q0 -35 -36 -35h-152q-37 0 -37 35v768q0 6 -2 6h-2q-20 -41 -168.5 -311.5t-253.5 -462.5q-14 -25 -26.5 -30t-38.5 -5h-115q-39 0 -39 35v1194z" />
    <glyph glyph-name="afii10027" unicode="&#x419;" horiz-adv-x="1124" 
d="M342 1583h82q20 0 25.5 -5t6.5 -40t29.5 -67.5t82.5 -32.5q102 0 120 121q2 16 7 21t26 5h74q20 0 25 -4t3 -42q-5 -100 -70.5 -174.5t-183.5 -74.5q-119 0 -187.5 77t-72.5 187q0 16 5 22.5t28 6.5zM127 1229q0 35 39 35h151q37 0 37 -35v-768q0 -6 3 -5t57 98
t157 288.5t207 380.5q25 41 68 41h115q37 0 36 -35v-1194q0 -35 -36 -35h-152q-37 0 -37 35v768q0 6 -2 6h-2q-20 -41 -168.5 -311.5t-253.5 -462.5q-14 -25 -26.5 -30t-38.5 -5h-115q-39 0 -39 35v1194z" />
    <glyph glyph-name="afii10028" unicode="&#x41a;" horiz-adv-x="1093" 
d="M965 0h-164q-31 0 -33 31l-25 370q-11 189 -184 189q-92 0 -143 -55.5t-51 -139.5l-3 -362q0 -33 -28 -33h-174q-29 0 -29 31v1200q0 33 35 33h166q31 0 30 -31v-426q0 -25 25 -6l354 440q20 23 56 23h182q18 0 23.5 -11.5t-5.5 -25.5l-358 -447q-16 -23 8 -22h23
q24 0 41 -4q129 -20 192.5 -110.5t63.5 -227.5l26 -383q0 -33 -28 -33z" />
    <glyph glyph-name="afii10029" unicode="&#x41b;" horiz-adv-x="1150" 
d="M270 1229q0 35 37 35h678q37 0 37 -35v-1196q0 -33 -37 -33h-158q-37 0 -36 33v999q0 16 -6.5 22.5t-24.5 6.5h-248q-16 0 -20.5 -7t-4.5 -24v-192q0 -221 -14 -373t-54 -251t-109.5 -156.5t-182.5 -94.5q-23 -8 -32 -3t-19 26l-43 106q-15 38 22 55q66 33 108 74
t74.5 143.5t32.5 473.5v391z" />
    <glyph glyph-name="afii10030" unicode="&#x41c;" horiz-adv-x="1343" 
d="M1233 35q0 -35 -37 -35h-149q-35 0 -35 31v653q0 10 -11 0l-83 -223l-150 -387q-18 -37 -49 -37h-94q-20 0 -32.5 4t-23.5 27l-145 383l-82 229q-8 8 -8 0v-649q0 -31 -37 -31h-150q-37 0 -36 35v1188q0 41 43 41h127q25 0 38 -4.5t22 -25.5t26.5 -65.5t40 -102.5
t48 -123.5t47 -124t39 -102.5t23.5 -61l101 -268q8 -20 18 0q7 23 36.5 100.5t43.5 116.5t20 53l222 572q16 35 63 35h121q43 0 43 -41v-1188z" />
    <glyph glyph-name="afii10031" unicode="&#x41d;" horiz-adv-x="1126" 
d="M326 1264q36 0 36 -29v-449q0 -23 5.5 -29.5t23.5 -6.5h342q18 0 25.5 7t7.5 29v447q0 31 35 31h157q39 0 39 -29v-1202q0 -33 -36 -33h-158q-37 0 -37 31v481q0 35 -35 35h-334q-23 0 -29 -9.5t-6 -25.5v-479q0 -33 -36 -33h-158q-39 0 -39 31v1202q0 31 39 31h158z" />
    <glyph glyph-name="afii10032" unicode="&#x41e;" horiz-adv-x="1083" 
d="M727 907q0 72 -46 121t-138 49t-141.5 -49t-49.5 -121v-545q0 -72 48.5 -119.5t137.5 -47.5t139 48t50 119v545zM961 360q0 -170 -117 -271t-300.5 -101t-303 99.5t-119.5 272.5v549q0 171 117.5 273t298.5 102q182 0 303 -101t121 -274v-549z" />
    <glyph glyph-name="afii10033" unicode="&#x41f;" horiz-adv-x="1167" 
d="M989 1264q37 0 37 -33v-1198q0 -33 -37 -33h-158q-37 0 -36 31v999q0 31 -35 31h-350q-23 0 -28 -7t-5 -24v-997q0 -33 -39 -33h-158q-39 0 -39 31v1198q0 35 39 35h809z" />
    <glyph glyph-name="afii10034" unicode="&#x420;" horiz-adv-x="995" 
d="M711 884q0 71 -42 124t-122 53h-160q-29 0 -29 -31v-280q0 -31 29 -31h160q74 0 119 47t45 118zM385 516q-25 0 -25 -24v-459q0 -33 -36 -33h-158q-39 0 -39 33v1200q0 31 39 31h381q180 0 287.5 -106t107.5 -269t-111 -268t-282 -105h-164z" />
    <glyph glyph-name="afii10035" unicode="&#x421;" horiz-adv-x="966" 
d="M121 352v568q0 165 113 264.5t284 99.5q106 0 203.5 -38t175.5 -148q24 -29 -10 -54l-111 -83q-16 -10 -31.5 -4t-23.5 20q-70 102 -195 102q-86 0 -130 -50t-44 -118v-559q0 -66 45 -111.5t117 -45.5q124 0 205 96l17 17q16 16 36 3l123 -75q34 -20 16 -50
q-131 -198 -373 -198q-192 0 -304.5 98.5t-112.5 265.5z" />
    <glyph glyph-name="afii10036" unicode="&#x422;" horiz-adv-x="903" 
d="M866 1098q0 -37 -30 -37h-242q-33 0 -33 -27l-2 -1001q0 -33 -37 -33h-157q-37 0 -37 31l2 1001q0 14 -5.5 21.5t-25.5 7.5h-229q-35 0 -35 37v131q0 35 35 35h766q31 0 30 -33v-133z" />
    <glyph glyph-name="afii10037" unicode="&#x423;" horiz-adv-x="948" 
d="M217 1266q23 0 37 -5.5t18 -25.5t19.5 -69.5t36 -115t43 -138t58.5 -187t40 -127.5q4 -12 10 -12t6 4q59 206 195 641q6 20 18.5 27.5t40.5 7.5h142q33 0 38 -13.5t-4 -35.5l-321 -934q-27 -76 -52.5 -134.5t-80 -119t-195.5 -60.5h-88q-23 0 -30 7.5t-7 29.5v119
q0 23 7.5 28t23.5 5h45q43 0 70 10t47 47t20 61t-8 46l-313 892q-18 51 35 52h149z" />
    <glyph glyph-name="afii10038" unicode="&#x424;" horiz-adv-x="1261" 
d="M338 831v-325q0 -102 46 -141t118 -46q14 0 14 11v643q-2 10 -14 10q-82 -2 -123 -48t-41 -104zM920 795q0 87 -31 135.5t-139 52.5q-10 0 -11 -8v-645q0 -10 13 -11q74 8 121 51.5t47 106.5v318zM739 31q0 -31 -37 -31h-153q-33 0 -33 29v80q0 16 -22 16
q-169 12 -271 113t-102 245v334q0 146 106 244.5t271 116.5q16 0 16 12v43q0 31 35 31h153q37 0 37 -29v-43q0 -14 17 -14q168 -12 275.5 -111t107.5 -248v-336q0 -139 -108.5 -242.5t-274.5 -115.5q-16 0 -17 -19v-75z" />
    <glyph glyph-name="afii10039" unicode="&#x425;" horiz-adv-x="983" 
d="M495.5 442q-6.5 0 -10.5 -10l-196 -399q-12 -25 -25.5 -29t-36.5 -4h-164q-37 0 -36 27q0 12 6 24l309 574q12 23 12 39t-14 38l-277 519q-4 12 -4 18q0 27 37 27h174q39 0 60 -35q12 -29 20 -43l137 -293q8 -8 12.5 -8t10.5 10q41 84 80 166t80 168q23 35 57 35h166
q37 0 37 -25q0 -9 -8 -27l-277 -520q-8 -20 -8 -32.5t10 -32.5q133 -248 228 -422q94 -174 94 -182q0 -25 -39 -25h-166q-23 0 -36.5 5t-43.5 67t-78.5 161t-99.5 199q-4 10 -10.5 10z" />
    <glyph glyph-name="afii10040" unicode="&#x426;" horiz-adv-x="1206" 
d="M182 0q-37 0 -37 37v1194q0 33 37 33h158q37 0 37 -35v-991q0 -16 6 -24.5t31 -8.5h350q33 0 33 33v993q0 33 37 33h155q39 0 39 -35v-1004q0 -17 14 -20h78q29 0 33 -17.5t4 -35.5v-394q-2 -31 -14.5 -37t-28.5 -6h-125q-18 0 -32.5 5.5t-16.5 39.5v215q-3 25 -33 25
h-725z" />
    <glyph glyph-name="afii10041" unicode="&#x427;" horiz-adv-x="1067" 
d="M709 516q1 8 -7 8t-38 -12q-91 -38 -207 -39q-174 0 -276.5 97.5t-102.5 267.5v397q0 31 37 31h159q39 0 39 -31v-363q0 -84 45 -138t150 -54t176 51q25 19 25 53v451q0 31 36 31h156q39 0 39 -31v-1206q0 -29 -39 -29h-156q-37 0 -36 29v487z" />
    <glyph glyph-name="afii10042" unicode="&#x428;" horiz-adv-x="1632" 
d="M182 0q-39 0 -39 37v1198q0 29 39 29h158q37 0 37 -29v-999q0 -16 6 -23.5t29 -7.5h264q16 0 21 8t8 18v1004q0 29 34 29h158q37 0 37 -29v-999q0 -16 5 -23.5t24 -7.5h264q33 0 33 31v999q0 29 36 29h156q39 0 39 -29v-1200q0 -35 -39 -35h-1270z" />
    <glyph glyph-name="afii10043" unicode="&#x429;" horiz-adv-x="1669" 
d="M182 0q-39 0 -39 37v1198q0 29 39 29h158q37 0 37 -31v-1000q0 -16 6 -22t29 -6h264q16 0 21 8t8 18v1004q0 29 34 29h158q39 0 39 -31v-1000q0 -16 5 -22t22 -6h264q20 0 26.5 8t6.5 25v993q0 33 38 33h156q37 0 37 -35v-1004q0 -20 16 -20h78q29 0 34 -17.5t5 -35.5
v-394q-2 -31 -15.5 -37t-27.5 -6h-125q-20 0 -33.5 6.5t-17.5 38.5v215q-3 25 -33 25h-1190z" />
    <glyph glyph-name="afii10044" unicode="&#x42a;" horiz-adv-x="1298" 
d="M604 795q0 -25 25 -25h209q187 0 292 -107t105 -276t-111 -278t-290 -109h-422q-39 0 -39 37l2 997q0 16 -6.5 20.5t-20.5 4.5h-280q-33 0 -33 35v135q0 35 33 35h499q37 0 37 -37v-432zM604 236q0 -31 31 -31h199q82 0 128 54t46 130t-47.5 126t-126.5 50h-201
q-16 0 -22.5 -6t-6.5 -24v-299z" />
    <glyph glyph-name="afii10045" unicode="&#x42b;" horiz-adv-x="1478" 
d="M884.5 109q-110.5 -109 -288.5 -109h-426q-37 0 -37 37v1198q0 29 37 29h156q37 0 36 -29v-440q0 -25 27 -25h219q180 0 283.5 -109t103.5 -276t-110.5 -276zM362 236q0 -31 31 -31h203q74 0 123 53.5t49 130.5q0 76 -47 126t-125 50h-203q-31 0 -31 -30v-299zM1315 1264
q37 0 37 -29v-1200q0 -35 -37 -35h-160q-37 0 -37 35v1198q0 31 37 31h160z" />
    <glyph glyph-name="afii10046" unicode="&#x42c;" horiz-adv-x="1056" 
d="M886.5 109q-110.5 -109 -290.5 -109h-424q-39 0 -39 37v1198q0 29 39 29h154q39 0 39 -29v-440q0 -25 24 -25h215q185 0 289 -107.5t104 -275.5q0 -169 -110.5 -278zM365 236q0 -31 30 -31h201q78 0 124 54t46 130t-46 126t-124 50h-203q-28 0 -28 -30v-299z" />
    <glyph glyph-name="afii10047" unicode="&#x42d;" horiz-adv-x="976" 
d="M635 924q0 66 -44 108.5t-142 42.5t-187 -100q-28 -28 -51 -12l-111 84q-18 12 -18 26t22 48t67.5 69t115.5 64.5t192 29.5q186 0 285.5 -97t99.5 -263v-578q0 -165 -116.5 -261.5t-294.5 -96.5q-264 0 -381 194q-16 29 14 49q28 14 71.5 43t58.5 37t26.5 -3t21.5 -21
q74 -92 185 -92q80 0 131 44t53 109l2 191q0 29 -27 28h-336q-31 0 -30 35v123q0 37 32 37h332q16 0 22.5 2t6.5 20v140z" />
    <glyph glyph-name="afii10048" unicode="&#x42e;" horiz-adv-x="1462" 
d="M1108 918q0 72 -45 115.5t-123 43.5t-123 -45t-45 -114v-566q0 -72 45 -114.5t123 -42.5t123 43t45 114v566zM362 786q0 -36 25 -36h125q18 2 23.5 6t7.5 20v144q0 167 112 265.5t284 98.5q173 0 286.5 -97.5t113.5 -266.5v-570q0 -171 -111.5 -266.5t-286 -95.5
t-286.5 94t-112 268v166q0 31 -25 31h-127q-18 0 -23.5 -7.5t-5.5 -23.5v-483q0 -33 -34 -33h-160q-37 0 -37 31v1202q0 31 37 31h158q37 0 36 -31v-447z" />
    <glyph glyph-name="afii10049" unicode="&#x42f;" horiz-adv-x="1067" 
d="M532 487q-18 0 -28 -20l-195 -424q-10 -18 -21.5 -30.5t-51.5 -12.5h-148q-10 0 -26.5 8t-2.5 37l217 461q8 18 -4 31q-163 149 -163 358q0 169 106 269t274 100h412q37 0 37 -35v-1196q0 -33 -37 -33h-158q-39 0 -38 33v432q0 23 -17 22h-156zM707 1030q0 31 -31 31
h-158q-80 0 -128 -50t-48 -126q0 -37 17.5 -92.5t64.5 -90.5q18 -12 47 -12h205q31 0 31 29v311z" />
    <glyph glyph-name="afii10065" unicode="&#x430;" horiz-adv-x="946" 
d="M440 459q-76 0 -115.5 -43t-39.5 -106.5t40.5 -107.5t118.5 -44t116 46t37 106t-41 104.5t-116 44.5zM487 926q351 0 351 -340v-557q0 -29 -27 -29h-160q-23 0 -22 23v16q0 31 -53 -10t-160 -41q-158 0 -248 84t-90 230t92 234.5t258 88.5q84 0 158 -43q28 -17 28 12v24
q0 123 -157 123q-109 1 -223 -47q-28 -12 -37 21l-37 104q-6 14 0 25.5t46 29.5q111 52 281 52z" />
    <glyph glyph-name="afii10066" unicode="&#x431;" horiz-adv-x="958" 
d="M637 522q0 70 -42 115t-115 45t-117 -42t-44 -114v-190q0 -81 48.5 -118.5t112.5 -37.5t110.5 43t46.5 113v186zM860 346q0 -178 -107 -268t-293 -90t-274 111.5t-88 295.5v326q0 219 110.5 347t328.5 189q51 14 95 25.5t80 21.5t42 11q16 0 22 -23l29 -110
q9 -36 -31 -45q-41 -14 -86 -25.5t-97 -27.5q-129 -38 -204.5 -102t-79.5 -173q0 -10 6 -9.5t25 14.5t72 34t112 20q166 0 252 -93t86 -253v-176z" />
    <glyph glyph-name="afii10067" unicode="&#x432;" horiz-adv-x="964" 
d="M530 541q43 0 67 27.5t24 63.5t-23 59.5t-70 23.5h-180q-18 0 -18 -19v-141q0 -14 18 -14h182zM330 209q0 -16 20 -16h201q47 0 71.5 28.5t24.5 68.5t-23.5 70.5t-76.5 30.5h-199q-18 0 -18 -18v-164zM879 272q0 -127 -82 -199.5t-219 -72.5h-428q-41 0 -41 37v833
q0 39 41 39h389q141 0 225 -62.5t84 -189.5q0 -47 -25.5 -97t-72.5 -79q-9 -4 2 -10q59 -27 93 -83t34 -116z" />
    <glyph glyph-name="afii10068" unicode="&#x433;" horiz-adv-x="755" 
d="M317 37q0 -37 -38 -37h-144q-41 0 -41 35v839q0 35 41 35h570q39 0 38 -32v-125q0 -35 -38 -35h-363q-18 0 -21.5 -6t-3.5 -19v-655z" />
    <glyph glyph-name="afii10069" unicode="&#x434;" horiz-adv-x="1001" 
d="M829 909q20 0 29.5 -7t9.5 -34v-655q0 -27 29 -31h39q20 0 24.5 -11t4.5 -24v-333q0 -29 -10.5 -34t-24.5 -5h-109q-25 0 -32 8t-7 31v166q-2 14 -9 17t-23 3h-521q-12 0 -19 -3t-11 -24v-157q0 -29 -9.5 -35t-25.5 -6h-107q-18 0 -25 6t-9 29v321q-5 42 32 49l33 8
q80 19 98.5 138.5t27.5 172.5t36 365q4 27 12 36t31 9h536zM461 719q-29 0 -31 -38t-6 -80t-8 -83t-10.5 -82t-16.5 -114t-30 -99q-19 -26 -14 -30.5t13 -4.5h269q10 0 19 3.5t9 23.5v469q0 23 -10 29t-29 6h-155z" />
    <glyph glyph-name="afii10070" unicode="&#x435;" horiz-adv-x="937" 
d="M470 731q-64 0 -104 -42t-47 -101q0 -29 35 -29h248q34 0 29 39q-8 61 -52.5 97t-108.5 36zM356 410q-41 0 -41 -35v-31q0 -66 43.5 -114t109.5 -48t108 31t62 55t30 28.5t28 -7.5l101 -64q42 -28 26 -55q-53 -96 -146 -139t-191 -43q-187 0 -291.5 95.5t-104.5 252.5
v231q0 160 107 259.5t276 99.5q170 0 276.5 -98.5t106.5 -260.5v-96q0 -29 -16.5 -45t-40.5 -16h-443z" />
    <glyph glyph-name="afii10072" unicode="&#x436;" horiz-adv-x="1464" 
d="M360 558q0 9 -34 48t-94 112.5t-94 113.5t-34 53q0 20 23 20h186q23 0 32 -1t22 -17l225 -285q10 -10 18 -8t8 20v265q0 31 33 30h160q12 0 21.5 -8t9.5 -24v-269q0 -36 37 4l219 275q10 16 20 17t33 1h182q25 0 25 -20q0 -10 -10 -21l-244 -291q-8 -8 -8 -16t44 -10
t125 -47t95 -283l12 -180q0 -37 -33 -37h-157q-33 0 -33 33l-14 194q-10 164 -152 164q-66 0 -103.5 -47t-37.5 -113v-202q0 -29 -31 -29h-164q-29 0 -29 29v225q0 53 -33 95t-93 42q-98 0 -130.5 -43.5t-37.5 -120.5l-13 -194q-2 -16 -8 -24.5t-27 -8.5h-157q-35 0 -31 37
l10 180q9 154 62 239.5t186 92.5q14 0 14 9z" />
    <glyph glyph-name="afii10073" unicode="&#x437;" horiz-adv-x="827" 
d="M416 553q102 0 102 78q0 47 -40 72.5t-92 25.5q-106 0 -171 -76q-16 -16 -30.5 -21t-34.5 11l-82 76q-16 12 -17.5 28.5t8.5 26.5q126 148 344 152q229 0 283.5 -103t54.5 -163t-25.5 -113t-74.5 -74q-8 -4 -8 -9t8 -9q53 -23 80 -75t27 -112t-55.5 -170t-311.5 -110
q-209 0 -332 151q-8 10 -8 25.5t18 32.5l91 79q16 16 28 14.5t41 -30.5t64 -53.5t95 -24.5t100 29t40 79q0 95 -98 95h-125q-31 0 -31 27v114q0 27 31 27h121z" />
    <glyph glyph-name="afii10074" unicode="&#x438;" horiz-adv-x="970" 
d="M291 907q39 0 39 -37v-450q0 -20 12 -21q8 0 32 39t68 111q43 72 95.5 154.5t84.5 134.5t45 60.5t35 8.5h121q37 0 37 -37v-837q0 -33 -37 -33h-145q-39 0 -39 35v457q0 18 -7 18t-18 -20t-31 -51l-40 -62l-221 -348q-14 -23 -26.5 -26t-29.5 -3h-119q-39 0 -38 35v837
q0 35 38 35h144z" />
    <glyph glyph-name="afii10075" unicode="&#x439;" horiz-adv-x="956" 
d="M626 1260q12 38 13.5 46.5t30.5 6.5h65q23 2 29 -4t3 -44t-22.5 -89.5t-74 -113t-167.5 -61.5q-114 0 -185 80t-80 201q-2 16 3 24.5t27 6.5h68q25 2 28 -7.5t9 -25.5q32 -121 127 -121q96 1 126 101zM291 907q39 0 39 -37v-450q0 -20 12 -21q8 0 32 39t68 111
q43 72 95.5 154.5t84.5 134.5t45 60.5t35 8.5h121q37 0 37 -37v-837q0 -33 -37 -33h-145q-39 0 -39 35v457q0 18 -7 18t-18 -20t-31 -51l-40 -62l-221 -348q-14 -23 -26.5 -26t-29.5 -3h-119q-39 0 -38 35v837q0 35 38 35h144z" />
    <glyph glyph-name="afii10076" unicode="&#x43a;" horiz-adv-x="972" 
d="M336 217v-188q0 -29 -31 -29h-166q-27 0 -26 29v848q0 33 30 32h160q31 0 31 -30v-252q0 -16 9 -18.5t17 5.5l240 273q18 18 53 18h199q18 0 22.5 -12t-6.5 -23q-148 -170 -254 -280q-6 -12 -6 -15q0 -10 13 -10q136 -7 191 -93t67 -247l8 -188v-6q0 -31 -33 -31h-156
q-20 0 -26 8t-8 25l-11 190q-4 83 -39 129.5t-118 46.5q-160 0 -160 -182z" />
    <glyph glyph-name="afii10077" unicode="&#x43b;" horiz-adv-x="925" 
d="M180 879q0 29 35 28h567q33 0 33 -28v-850q0 -29 -33 -29h-159q-31 0 -31 27v657q0 16 -3 23.5t-20 7.5h-155q-25 0 -25 -31v-182q-8 -251 -55 -337.5t-97.5 -126.5t-119.5 -75q-23 -10 -31 -3t-14 20l-54 104q-8 16 -3 24t37 26q74 43 101 128t27 291v326z" />
    <glyph glyph-name="afii10078" unicode="&#x43c;" horiz-adv-x="1200" 
d="M109 866q0 41 45 41h127q29 0 38 -8t19 -29l172 -352l86 -190q10 -10 16 0l256 544q14 23 24.5 29t33.5 6h123q25 0 34 -9t9 -30v-831q0 -37 -39 -37h-142q-41 0 -41 37v405q0 12 -5 12.5t-9 -10.5l-61 -135l-109 -217q-20 -35 -49 -35h-80q-34 0 -49 31l-98 207l-68 154
q-12 18 -12 -5v-407q0 -37 -39 -37h-139q-18 0 -30.5 10t-12.5 27v829z" />
    <glyph glyph-name="afii10079" unicode="&#x43d;" horiz-adv-x="966" 
d="M109 872q0 37 38 37h146q39 0 39 -37v-303q0 -20 20 -20h260q23 0 23 20v303q0 16 11 26.5t30 10.5h141q41 0 41 -37v-835q0 -37 -39 -37h-143q-41 0 -41 35v325q0 20 -25 21h-256q-22 0 -22 -21v-323q0 -37 -41 -37h-144q-39 0 -38 35v837z" />
    <glyph glyph-name="afii10080" unicode="&#x43e;" horiz-adv-x="958" 
d="M637 571q0 72 -41 115t-118 43t-118 -44t-41 -114v-231q0 -70 40 -114t116 -44t119 43t43 115v231zM860 338q0 -172 -103.5 -261t-278.5 -89t-278.5 92t-103.5 252v246q0 152 106.5 250t277.5 98t275.5 -90.5t104.5 -257.5v-240z" />
    <glyph glyph-name="afii10081" unicode="&#x43f;" horiz-adv-x="980" 
d="M647 680q0 35 -33 35h-247q-23 0 -29 -7.5t-6 -23.5v-651q0 -33 -33 -33h-158q-33 0 -32 31v846q0 33 32 32h695q33 0 32 -30v-846q0 -33 -30 -33h-158q-33 0 -33 31v649z" />
    <glyph glyph-name="afii10082" unicode="&#x440;" horiz-adv-x="962" 
d="M649 565q0 68 -39.5 113t-113.5 45t-119 -45t-43 -111v-231q0 -66 42 -113t120 -47t115.5 46t37.5 114v229zM872 319q0 -142 -90.5 -238.5t-249.5 -96.5q-105 0 -163 45q-35 23 -35 -6v-359q0 -33 -33 -33h-158q-35 0 -34 31v1215q0 31 32 30h154q31 0 31 -28v-17
q0 -24 34 0q79 58 174 58q171 0 254.5 -96t83.5 -257v-248z" />
    <glyph glyph-name="afii10083" unicode="&#x441;" horiz-adv-x="864" 
d="M473 -12q-176 0 -282.5 95t-106.5 255v231q0 163 109.5 259t279.5 96q227 0 342 -191q14 -35 -14 -53l-115 -66q-27 -16 -39.5 -4t-30.5 44t-60 54.5t-98 22.5t-102.5 -45t-46.5 -111v-239q0 -66 46.5 -109t102.5 -43q118 0 165 86q10 18 23 30.5t40 -3.5l115 -64
q29 -18 14 -55q-119 -190 -342 -190z" />
    <glyph glyph-name="afii10084" unicode="&#x442;" horiz-adv-x="761" 
d="M266 692q0 23 -22 23h-178q-41 0 -41 39v116q0 39 41 39h634q41 0 41 -37v-118q0 -39 -41 -39h-192q-21 0 -21 -23v-655q0 -37 -41 -37h-139q-41 0 -41 37v655z" />
    <glyph glyph-name="afii10085" unicode="&#x443;" horiz-adv-x="888" 
d="M432 -373h-133q-50 0 -31 54l88 284q4 16 3 25.5t-19 9.5h-23q-40 0 -51 43l-237 825q-12 45 30 45h164q35 0 49 -39l154 -630q4 -16 12 -16.5t15 16.5l71 245l119 381q11 43 53 43h148q20 0 30.5 -14t2.5 -37l-385 -1192q-16 -43 -60 -43z" />
    <glyph glyph-name="afii10086" unicode="&#x444;" horiz-adv-x="1189" 
d="M870 528q0 66 -33.5 116t-105.5 65q-10 2 -22.5 0t-12.5 -25v-467q0 -34 37 -27q132 29 137 181v157zM96 535q0 148 94.5 256t266.5 124q8 0 18 5.5t10 25.5v326q0 33 31 33h150q31 0 30 -33v-322q0 -23 14.5 -27.5t24.5 -7.5q262 -23 310.5 -165t48.5 -215v-170
q0 -147 -89.5 -251t-259.5 -124q-6 -2 -28.5 -7.5t-22.5 -39.5v-281q0 -33 -28 -33h-150q-29 0 -29 31v285q0 33 -14 38t-24 7q-169 16 -261 119t-92 253v173zM319 371q0 -66 33 -117t103 -64q6 -2 18 0.5t12 30.5v453q0 29 -12 33t-22 2q-66 -14 -99 -65.5t-33 -115.5v-157
z" />
    </font>
</defs>
</svg>
